<svg width="276" height="210" viewBox="0 0 276 210" fill="none" xmlns="http://www.w3.org/2000/svg">
<g opacity="0.12">
<path d="M265.464 81.7894C265.485 81.7519 265.498 81.7416 265.498 81.7416C268.437 78.6261 269.221 75.3538 269.221 72.6303C269.214 69.0308 267.796 66.3993 267.755 66.4232C262.117 72.903 235.312 98.4576 196.095 101.904V98.2394C196.095 98.028 195.98 97.9564 195.802 97.9564H153.638C153.338 95.9794 153.075 94.0843 152.854 92.3936V92.3867V92.3833V92.3765C152.847 92.3424 152.789 91.8959 152.789 91.8959C152.192 87.6692 151.678 84.0084 150.866 81.8302C152.724 80.5077 154.282 78.667 155.366 76.4821C156.385 74.4437 156.937 72.2145 156.923 70.2068V69.7705L156.559 69.9954C156.024 70.3261 154.623 70.8647 154.609 70.8715C152.622 71.6146 149.036 72.4088 143.326 71.9963C140.259 71.7714 137.511 71.7135 135.156 71.8123C132.709 71.9248 130.749 72.2042 129.314 72.6542C127.735 73.1518 126.495 73.7893 125.513 74.6176C124.661 75.3334 124.19 76.0423 123.877 76.5332C121.419 76.3764 118.259 76.6696 115.962 77.2729C114.411 77.6887 113.279 78.3977 112.495 79.4442C111.711 80.4974 111.319 81.8336 111.299 83.5311V83.538V83.5448C111.292 84.5401 111.514 86.2376 112.131 87.9999C112.928 90.2802 114.193 92.1583 115.873 93.5763L116.207 93.8661L116.265 93.423C116.286 93.3105 116.698 90.679 120.635 90.5767C121 90.5767 121.654 90.5802 121.958 90.587C122.827 90.6211 123.475 90.8392 123.775 91.2005C124.064 91.5516 124.143 92.1584 124.003 93.0105C123.989 93.0923 123.645 95.1068 122.994 97.261V97.2645C122.994 97.2713 122.987 97.2781 122.987 97.2781C122.98 97.3156 122.909 97.5611 122.796 97.9497H80.1919C80.0146 97.9497 79.8987 98.0212 79.8987 98.2325V101.897C40.6791 98.4507 13.8838 72.8962 8.23912 66.4164C8.20163 66.3926 6.77685 69.024 6.77344 72.6235C6.77344 75.347 7.56079 78.6227 10.4922 81.7348C10.4922 81.7348 10.5059 81.7484 10.5331 81.7825C9.35376 84.6969 7.76537 92.5401 15.5779 99.1358C15.4382 99.8653 15.3086 101.007 15.3086 102.183C15.3086 106.106 16.73 111.928 23.9699 116.786C23.9699 116.786 24.4779 117.12 24.8051 117.334C24.6892 118.865 24.8869 130.226 41.1563 134.238C42.7515 138.908 47.2271 144.835 58.1858 145.575C61.2467 150.586 65.6882 153.142 71.7317 153.084C73.1633 155.327 75.9788 157.14 79.3397 157.948C81.5451 158.473 83.7948 158.528 86.007 158.095C86.7126 158.644 87.9806 159.394 89.6679 160.055C89.6679 160.055 89.6746 160.058 89.7019 160.065C87.7521 161.48 86.7977 163.218 86.1365 165.26C85.0764 168.518 85.0764 171.61 88.4986 176.096C89.6576 177.688 90.3121 179.048 90.6631 180.622C91.004 182.17 91.0825 183.939 91.0825 186.475C91.0825 188.067 91.4097 189.563 92.0505 190.92C92.6913 192.256 93.6389 193.418 94.7979 194.26C95.4728 194.755 96.2294 195.143 97.0543 195.419C96.5498 196.125 96.1578 196.888 95.9022 197.683C95.4624 199.046 95.3807 200.539 95.6466 202.001C95.9227 203.474 96.5362 204.878 97.477 206.17C98.9699 208.222 99.9516 209.695 100.579 211.14C101.22 212.633 101.496 214.105 101.496 216.079C101.353 221.72 103.169 224.219 105.944 226.233C108.719 228.251 111.66 229.212 116.988 227.338C118.859 226.728 120.349 226.53 121.958 226.676C123.533 226.823 125.244 227.307 127.647 228.084C129.164 228.582 130.694 228.732 132.173 228.537C133.653 228.343 135.04 227.801 136.202 226.959C136.884 226.469 137.484 225.869 138.002 225.166C138.52 225.865 139.12 226.469 139.802 226.959C140.961 227.801 142.355 228.343 143.831 228.537C145.31 228.735 146.841 228.582 148.358 228.084C150.764 227.307 152.472 226.823 154.05 226.676C155.659 226.53 157.148 226.724 159.02 227.338C164.344 229.212 167.289 228.251 170.064 226.233C172.838 224.219 174.655 221.72 174.512 216.079C174.512 214.109 174.788 212.633 175.429 211.14C176.056 209.695 177.038 208.219 178.531 206.17C179.472 204.878 180.088 203.474 180.361 202.001C180.637 200.539 180.545 199.05 180.099 197.683C179.85 196.888 179.458 196.125 178.947 195.419C179.771 195.143 180.535 194.755 181.21 194.26C182.362 193.418 183.316 192.26 183.957 190.92C184.598 189.563 184.925 188.067 184.925 186.475C184.925 183.939 184.997 182.17 185.345 180.622C185.699 179.048 186.354 177.688 187.502 176.096C190.928 171.613 190.928 168.518 189.871 165.26C189.21 163.218 188.249 161.48 186.306 160.065C186.326 160.058 186.34 160.055 186.34 160.055C188.027 159.394 189.299 158.644 190.004 158.095C192.216 158.528 194.466 158.47 196.678 157.948C200.026 157.14 202.841 155.33 204.28 153.084C210.323 153.142 214.758 150.586 217.832 145.575C228.781 144.835 233.256 138.908 234.851 134.238C251.128 130.229 251.322 118.865 251.206 117.334C251.533 117.12 252.038 116.786 252.038 116.786C259.278 111.928 260.699 106.103 260.699 102.183C260.699 101.007 260.573 99.8653 260.43 99.1358C268.225 92.547 266.64 84.7037 265.464 81.7894ZM117.666 116.898C114.513 116.591 107.836 115.282 102.679 109.795C101.499 108.533 100.102 107.238 98.8131 106.267C101.233 106.478 115.192 107.729 120.243 108.179C119.524 110.875 118.634 113.827 117.666 116.898ZM173.295 109.795C168.141 115.282 161.467 116.591 158.314 116.898C157.346 113.827 156.456 110.875 155.724 108.179C160.789 107.729 174.747 106.475 177.167 106.267C175.872 107.238 174.478 108.533 173.295 109.795Z" fill="white"/>
<path d="M152.186 179.28C147.482 176.141 141.125 177.412 137.993 182.119C134.86 186.827 128.503 188.095 123.792 184.959C119.088 181.826 117.814 175.466 120.953 170.762C118.782 174.01 117.514 177.92 117.514 182.119C117.514 193.429 126.686 202.598 137.996 202.598C145.1 202.598 151.361 198.975 155.036 193.48C158.158 188.773 156.897 182.412 152.186 179.28Z" fill="white"/>
<path d="M137.992 161.642C130.881 161.642 124.627 165.265 120.952 170.76C117.813 175.467 119.088 181.824 123.791 184.957C128.502 188.093 134.859 186.825 137.992 182.117C141.124 177.41 147.485 176.138 152.185 179.278C156.896 182.41 158.157 188.774 155.032 193.475C157.203 190.226 158.471 186.32 158.471 182.114C158.471 170.811 149.302 161.642 137.992 161.642Z" fill="#00479D"/>
<path d="M58.3309 212.728C58.9308 212.196 58.999 211.276 58.4673 210.666C57.939 210.052 57.0152 209.991 56.4085 210.526C55.8051 211.054 55.7403 211.978 56.2652 212.581C56.7936 213.195 57.7174 213.253 58.3309 212.728Z" fill="white"/>
<path d="M54.6351 208.376C55.2691 207.879 55.3817 206.962 54.8908 206.324C54.3932 205.687 53.4729 205.575 52.8389 206.072C52.2048 206.57 52.0924 207.483 52.59 208.121C53.0843 208.755 54.0011 208.871 54.6351 208.376Z" fill="white"/>
<path d="M51.1818 203.829C51.8431 203.366 52.0067 202.459 51.5432 201.794C51.0796 201.133 50.166 200.973 49.5082 201.436C48.8435 201.897 48.6833 202.807 49.1503 203.465C49.6071 204.129 50.5205 204.289 51.1818 203.829Z" fill="white"/>
<path d="M47.9741 199.102C48.6592 198.679 48.874 197.779 48.4445 197.094C48.0184 196.409 47.1186 196.197 46.4334 196.627C45.7517 197.053 45.5403 197.956 45.9664 198.635C46.389 199.323 47.289 199.531 47.9741 199.102Z" fill="white"/>
<path d="M45.0264 194.22C45.7286 193.831 45.9911 192.945 45.6025 192.236C45.2139 191.527 44.3243 191.271 43.6187 191.66C42.9165 192.045 42.6575 192.935 43.0461 193.64C43.4346 194.349 44.3209 194.608 45.0264 194.22Z" fill="white"/>
<path d="M42.3378 189.183C43.0638 188.832 43.3672 187.959 43.0196 187.226C42.6651 186.504 41.7992 186.2 41.0698 186.551C40.3437 186.903 40.0404 187.775 40.3881 188.501C40.7392 189.227 41.6083 189.534 42.3378 189.183Z" fill="white"/>
<path d="M39.9304 184.007C40.6735 183.693 41.0212 182.838 40.711 182.098C40.4008 181.348 39.5453 180.997 38.8022 181.317C38.0591 181.621 37.7114 182.48 38.0216 183.223C38.3284 183.963 39.1839 184.317 39.9304 184.007Z" fill="white"/>
<path d="M37.7959 178.714C38.5492 178.441 38.9514 177.606 38.6821 176.842C38.406 176.082 37.5709 175.687 36.8142 175.959C36.0507 176.229 35.6553 177.064 35.928 177.827C36.2041 178.584 37.0391 178.983 37.7959 178.714Z" fill="white"/>
<path d="M35.944 173.307C36.7178 173.079 37.1575 172.267 36.9291 171.494C36.7007 170.717 35.8895 170.277 35.1123 170.509C34.342 170.737 33.9023 171.552 34.1307 172.325C34.3625 173.099 35.1736 173.539 35.944 173.307Z" fill="white"/>
<path d="M34.3927 167.816C35.1767 167.629 35.6573 166.842 35.4766 166.054C35.2858 165.277 34.495 164.793 33.7111 164.977C32.9305 165.165 32.4464 165.955 32.6373 166.736C32.8248 167.52 33.6087 168 34.3927 167.816Z" fill="white"/>
<path d="M33.1317 162.248C33.9259 162.101 34.4508 161.337 34.3042 160.543C34.1543 159.756 33.3907 159.228 32.5999 159.378C31.8091 159.521 31.2842 160.281 31.4308 161.075C31.5774 161.873 32.3409 162.394 33.1317 162.248Z" fill="white"/>
<path d="M32.1709 156.62C32.9719 156.517 33.5343 155.781 33.4321 154.984C33.3264 154.186 32.5902 153.617 31.7926 153.722C30.9949 153.828 30.4325 154.561 30.5381 155.362C30.6404 156.163 31.3699 156.722 32.1709 156.62Z" fill="white"/>
<path d="M31.5132 150.946C32.3176 150.888 32.9142 150.182 32.8563 149.381C32.7983 148.577 32.0995 147.977 31.2916 148.035C30.4872 148.093 29.8873 148.798 29.9453 149.603C30.01 150.407 30.7088 151.01 31.5132 150.946Z" fill="white"/>
<path d="M31.1559 145.25C31.9637 145.237 32.6046 144.569 32.5875 143.761C32.5671 142.957 31.9058 142.316 31.0946 142.336C30.2833 142.357 29.6493 143.025 29.6664 143.833C29.6834 144.63 30.3514 145.271 31.1559 145.25Z" fill="white"/>
<path d="M31.1045 139.542C31.9124 139.572 32.5906 138.935 32.6077 138.127C32.6349 137.319 32.0045 136.644 31.1966 136.624C30.3888 136.597 29.7104 137.234 29.6899 138.038C29.6695 138.843 30.3001 139.518 31.1045 139.542Z" fill="white"/>
<path d="M217.66 212.724C217.054 212.196 216.985 211.272 217.517 210.666C218.046 210.052 218.969 209.991 219.573 210.526C220.186 211.054 220.251 211.971 219.716 212.581C219.191 213.188 218.271 213.253 217.66 212.724Z" fill="white"/>
<path d="M221.353 208.37C220.719 207.875 220.606 206.962 221.104 206.324C221.601 205.687 222.515 205.575 223.156 206.072C223.783 206.566 223.902 207.483 223.405 208.121C222.907 208.755 221.993 208.871 221.353 208.37Z" fill="white"/>
<path d="M224.801 203.824C224.146 203.364 223.983 202.458 224.436 201.793C224.907 201.132 225.817 200.968 226.478 201.435C227.139 201.895 227.303 202.802 226.836 203.463C226.372 204.128 225.462 204.288 224.801 203.824Z" fill="white"/>
<path d="M228.007 199.1C227.329 198.674 227.111 197.774 227.544 197.089C227.97 196.407 228.87 196.196 229.551 196.622C230.233 197.044 230.441 197.948 230.022 198.629C229.596 199.318 228.699 199.526 228.007 199.1Z" fill="white"/>
<path d="M230.961 194.216C230.262 193.831 229.999 192.944 230.391 192.232C230.77 191.53 231.659 191.271 232.372 191.659C233.071 192.044 233.333 192.934 232.941 193.64C232.556 194.342 231.673 194.604 230.961 194.216Z" fill="white"/>
<path d="M233.647 189.173C232.914 188.826 232.615 187.949 232.969 187.223C233.324 186.501 234.186 186.194 234.919 186.549C235.638 186.9 235.952 187.772 235.597 188.498C235.246 189.221 234.373 189.524 233.647 189.173Z" fill="white"/>
<path d="M236.056 184C235.316 183.694 234.968 182.838 235.272 182.095C235.585 181.345 236.441 180.997 237.187 181.311C237.927 181.621 238.281 182.477 237.968 183.22C237.658 183.963 236.799 184.311 236.056 184Z" fill="white"/>
<path d="M238.187 178.712C237.427 178.439 237.035 177.607 237.311 176.84C237.574 176.084 238.412 175.688 239.169 175.958C239.936 176.23 240.335 177.065 240.058 177.829C239.782 178.582 238.947 178.984 238.187 178.712Z" fill="white"/>
<path d="M240.036 173.302C239.266 173.074 238.826 172.266 239.048 171.492C239.283 170.718 240.094 170.279 240.864 170.507C241.638 170.735 242.081 171.547 241.846 172.327C241.621 173.091 240.81 173.537 240.036 173.302Z" fill="white"/>
<path d="M241.595 167.815C240.811 167.624 240.327 166.837 240.515 166.053C240.699 165.269 241.49 164.788 242.281 164.976C243.051 165.163 243.542 165.95 243.354 166.734C243.174 167.518 242.379 167.999 241.595 167.815Z" fill="white"/>
<path d="M242.856 162.243C242.058 162.1 241.537 161.332 241.68 160.542C241.83 159.754 242.59 159.226 243.381 159.373C244.178 159.523 244.703 160.283 244.56 161.077C244.407 161.868 243.643 162.393 242.856 162.243Z" fill="white"/>
<path d="M243.812 156.617C243.014 156.514 242.452 155.781 242.558 154.984C242.657 154.186 243.396 153.617 244.194 153.723C244.991 153.825 245.554 154.558 245.448 155.359C245.343 156.156 244.61 156.722 243.812 156.617Z" fill="white"/>
<path d="M244.471 150.943C243.667 150.885 243.067 150.182 243.125 149.378C243.183 148.577 243.889 147.974 244.69 148.035C245.501 148.093 246.101 148.799 246.043 149.6C245.978 150.407 245.276 151.007 244.471 150.943Z" fill="white"/>
<path d="M244.833 145.25C244.021 145.233 243.38 144.565 243.401 143.761C243.421 142.956 244.086 142.315 244.897 142.332C245.702 142.349 246.336 143.021 246.322 143.825C246.305 144.63 245.637 145.267 244.833 145.25Z" fill="white"/>
<path d="M244.884 139.542C244.073 139.573 243.398 138.935 243.374 138.127C243.347 137.32 243.981 136.645 244.792 136.624C245.596 136.593 246.271 137.231 246.288 138.035C246.326 138.843 245.682 139.518 244.884 139.542Z" fill="white"/>
<path d="M133.666 34.628C133.707 35.4325 133.09 36.1177 132.292 36.1654C131.481 36.2063 130.789 35.5893 130.748 34.7849C130.707 33.977 131.324 33.2918 132.129 33.2475C132.933 33.2066 133.628 33.8236 133.666 34.628Z" fill="white"/>
<path d="M139.453 34.5453C139.453 35.3498 138.799 36.0077 137.994 36.0077C137.19 36.0077 136.535 35.3498 136.535 34.5453C136.535 33.7409 137.19 33.0864 137.994 33.0864C138.799 33.0864 139.453 33.7409 139.453 34.5453Z" fill="white"/>
<path d="M127.901 35.0156C127.993 35.8201 127.41 36.5359 126.605 36.6313C125.808 36.7131 125.089 36.1337 124.997 35.336C124.911 34.5316 125.494 33.8124 126.292 33.7272C127.089 33.6386 127.809 34.218 127.901 35.0156Z" fill="white"/>
<path d="M122.154 35.7214C122.284 36.5191 121.748 37.2655 120.951 37.3951C120.153 37.5246 119.407 36.986 119.277 36.1884C119.148 35.3942 119.683 34.6409 120.48 34.5182C121.278 34.3853 122.021 34.9238 122.154 35.7214Z" fill="white"/>
<path d="M116.463 36.7308C116.634 37.5216 116.136 38.2988 115.352 38.4692C114.561 38.6431 113.784 38.1455 113.614 37.3581C113.443 36.5673 113.941 35.7935 114.725 35.6162C115.516 35.4458 116.293 35.9434 116.463 36.7308Z" fill="white"/>
<path d="M110.839 38.0461C111.047 38.8233 110.59 39.6312 109.82 39.8425C109.042 40.0607 108.238 39.6073 108.02 38.8267C107.805 38.053 108.262 37.2451 109.039 37.0269C109.816 36.8122 110.614 37.2724 110.839 38.0461Z" fill="white"/>
<path d="M105.28 39.6709C105.536 40.4378 105.13 41.2594 104.363 41.5184C103.603 41.7775 102.768 41.365 102.519 40.598C102.257 39.8345 102.662 39.0062 103.436 38.7506C104.2 38.4915 105.025 38.9005 105.28 39.6709Z" fill="white"/>
<path d="M99.8208 41.5863C100.121 42.3362 99.756 43.1849 99.0027 43.478C98.2562 43.7814 97.4074 43.4132 97.1109 42.6667C96.8109 41.9134 97.1757 41.0716 97.9222 40.7648C98.6755 40.4716 99.5277 40.8364 99.8208 41.5863Z" fill="white"/>
<path d="M94.4841 43.7996C94.8181 44.529 94.4977 45.3948 93.7649 45.7357C93.032 46.0697 92.1696 45.7527 91.8288 45.0165C91.4879 44.2904 91.8151 43.4213 92.5344 43.0838C93.274 42.7464 94.1432 43.0633 94.4841 43.7996Z" fill="white"/>
<path d="M89.265 46.2917C89.6434 47.0075 89.3707 47.8835 88.6583 48.2653C87.9459 48.6436 87.0631 48.3744 86.6882 47.6586C86.3098 46.9496 86.5825 46.0668 87.2915 45.6884C87.9937 45.3066 88.8833 45.5793 89.265 46.2917Z" fill="white"/>
<path d="M84.1862 49.0677C84.6055 49.7563 84.3771 50.6561 83.6886 51.0719C82.9966 51.4878 82.1001 51.2628 81.6808 50.5709C81.2616 49.8789 81.49 48.9859 82.1854 48.5701C82.8739 48.1508 83.7704 48.3758 84.1862 49.0677Z" fill="white"/>
<path d="M79.2667 52.1098C79.7201 52.7813 79.5462 53.6846 78.8815 54.1345C78.2134 54.5879 77.2999 54.414 76.8534 53.7493C76.4034 53.0812 76.5772 52.1711 77.2453 51.7212C77.9134 51.2678 78.8168 51.4417 79.2667 52.1098Z" fill="white"/>
<path d="M74.5251 55.4164C75.0091 56.0606 74.8899 56.9775 74.2422 57.4649C73.6014 57.949 72.6776 57.8228 72.1936 57.1854C71.7096 56.5446 71.8391 55.6277 72.4765 55.1437C73.1242 54.646 74.041 54.7756 74.5251 55.4164Z" fill="white"/>
<path d="M69.9597 58.9754C70.4812 59.5889 70.4165 60.5127 69.7961 61.0308C69.1757 61.5557 68.2589 61.4808 67.7339 60.8672C67.2226 60.2537 67.2908 59.3265 67.9043 58.8084C68.5213 58.2869 69.4518 58.3618 69.9597 58.9754Z" fill="white"/>
<path d="M65.6048 62.7781C66.1604 63.361 66.1331 64.2881 65.5536 64.8369C64.9639 65.3925 64.0368 65.3652 63.4846 64.7823C62.9358 64.196 62.963 63.2723 63.5425 62.7201C64.1288 62.1645 65.056 62.1918 65.6048 62.7781Z" fill="white"/>
<path d="M61.4584 66.8051C62.0481 67.3607 62.0719 68.2845 61.5095 68.8639C60.9607 69.4502 60.0301 69.4775 59.4541 68.9219C58.8644 68.3663 58.8406 67.4392 59.3894 66.8563C59.9518 66.2734 60.8755 66.2495 61.4584 66.8051Z" fill="white"/>
<path d="M57.5307 71.0539C58.1443 71.5788 58.2228 72.4957 57.7012 73.1127C57.1763 73.7263 56.2559 73.7979 55.639 73.2763C55.0254 72.7514 54.9538 71.8345 55.4754 71.2175C56.0003 70.6005 56.9172 70.5324 57.5307 71.0539Z" fill="white"/>
<path d="M53.8414 75.5104C54.4822 75.9979 54.6152 76.9182 54.1244 77.5556C53.6335 78.1998 52.72 78.3191 52.0724 77.8283C51.4316 77.3408 51.3088 76.4273 51.7962 75.7831C52.2836 75.1422 53.2006 75.023 53.8414 75.5104Z" fill="white"/>
<path d="M50.4041 80.1488C51.0722 80.6022 51.2461 81.5157 50.7893 82.1838C50.336 82.8485 49.4327 83.0257 48.7646 82.5689C48.0931 82.1156 47.9261 81.2021 48.3794 80.5408C48.826 79.8761 49.736 79.7023 50.4041 80.1488Z" fill="white"/>
<path d="M47.2113 84.9831C47.9033 85.399 48.1283 86.2954 47.7124 86.984C47.2932 87.6759 46.4001 87.894 45.7048 87.4782C45.0196 87.0589 44.7913 86.1626 45.2106 85.4774C45.6264 84.7855 46.5228 84.5638 47.2113 84.9831Z" fill="white"/>
<path d="M142.313 34.628C142.265 35.4325 142.889 36.1177 143.687 36.1654C144.498 36.2063 145.187 35.5893 145.231 34.7849C145.272 33.977 144.655 33.2918 143.85 33.2475C143.039 33.2066 142.354 33.8236 142.313 34.628Z" fill="white"/>
<path d="M148.086 35.0156C147.994 35.8201 148.577 36.5359 149.381 36.6313C150.179 36.7131 150.898 36.1337 150.99 35.336C151.075 34.5316 150.492 33.8124 149.695 33.7272C148.89 33.6386 148.171 34.218 148.086 35.0156Z" fill="white"/>
<path d="M153.826 35.718C153.696 36.519 154.232 37.2655 155.029 37.3951C155.827 37.5212 156.573 36.986 156.703 36.1884C156.832 35.3942 156.297 34.6409 155.493 34.5182C154.702 34.3853 153.949 34.9238 153.826 35.718Z" fill="white"/>
<path d="M159.518 36.7311C159.347 37.5219 159.845 38.2991 160.629 38.4695C161.413 38.6433 162.194 38.1457 162.367 37.3583C162.538 36.5675 162.04 35.7937 161.256 35.6164C160.469 35.446 159.688 35.9437 159.518 36.7311Z" fill="white"/>
<path d="M165.144 38.0461C164.932 38.8233 165.386 39.6312 166.163 39.8425C166.933 40.0607 167.744 39.6073 167.963 38.8267C168.177 38.053 167.721 37.2451 166.943 37.0269C166.163 36.8122 165.365 37.2724 165.144 38.0461Z" fill="white"/>
<path d="M170.705 39.6709C170.442 40.431 170.848 41.2594 171.622 41.5184C172.378 41.7775 173.217 41.365 173.466 40.598C173.728 39.8345 173.309 39.0062 172.549 38.7506C171.785 38.4915 170.954 38.9005 170.705 39.6709Z" fill="white"/>
<path d="M176.164 41.5863C175.864 42.3362 176.228 43.1849 176.982 43.478C177.721 43.778 178.577 43.4132 178.873 42.6667C179.173 41.9134 178.809 41.0647 178.062 40.7648C177.302 40.4716 176.457 40.8364 176.164 41.5863Z" fill="white"/>
<path d="M181.499 43.7927C181.165 44.529 181.486 45.3948 182.219 45.7322C182.951 46.0697 183.814 45.7526 184.155 45.0163C184.496 44.2903 184.168 43.4212 183.442 43.0837C182.709 42.7462 181.837 43.0633 181.499 43.7927Z" fill="white"/>
<path d="M186.721 46.2917C186.343 47.0007 186.616 47.8835 187.321 48.2653C188.041 48.6436 188.923 48.371 189.295 47.6586C189.673 46.9462 189.401 46.0668 188.692 45.6884C187.983 45.3066 187.1 45.5793 186.721 46.2917Z" fill="white"/>
<path d="M191.794 49.0661C191.375 49.7546 191.596 50.651 192.292 51.0703C192.984 51.4862 193.88 51.2612 194.293 50.5692C194.712 49.8773 194.49 48.9809 193.795 48.565C193.103 48.1492 192.213 48.3707 191.794 49.0661Z" fill="white"/>
<path d="M196.713 52.1098C196.256 52.7813 196.434 53.6846 197.098 54.1345C197.766 54.5879 198.673 54.414 199.133 53.7493C199.576 53.0812 199.409 52.1711 198.741 51.7212C198.077 51.2678 197.166 51.4417 196.713 52.1098Z" fill="white"/>
<path d="M201.459 55.4154C200.968 56.0596 201.097 56.973 201.738 57.4639C202.379 57.9479 203.296 57.8218 203.78 57.1844C204.264 56.5401 204.145 55.6267 203.504 55.1358C202.863 54.645 201.949 54.7711 201.459 55.4154Z" fill="white"/>
<path d="M206.017 58.9734C205.492 59.5869 205.574 60.5072 206.187 61.0288C206.801 61.5503 207.718 61.4719 208.25 60.8584C208.768 60.2448 208.693 59.3245 208.072 58.8064C207.455 58.2815 206.542 58.3598 206.017 58.9734Z" fill="white"/>
<path d="M210.371 62.7719C209.822 63.3582 209.85 64.2854 210.429 64.8341C211.019 65.3897 211.939 65.3624 212.498 64.7795C213.054 64.1932 213.027 63.2696 212.44 62.7174C211.851 62.1618 210.927 62.1856 210.371 62.7719Z" fill="white"/>
<path d="M214.52 66.8022C213.938 67.3578 213.917 68.2849 214.466 68.8644C215.022 69.4507 215.945 69.478 216.535 68.9156C217.118 68.36 217.149 67.4362 216.586 66.8567C216.037 66.2739 215.11 66.25 214.52 66.8022Z" fill="white"/>
<path d="M218.444 71.0507C217.837 71.5756 217.762 72.4959 218.28 73.1095C218.805 73.7196 219.726 73.7946 220.343 73.2765C220.956 72.7516 221.028 71.8313 220.513 71.2177C219.988 70.6008 219.061 70.5257 218.444 71.0507Z" fill="white"/>
<path d="M222.141 75.5072C221.494 75.9913 221.378 76.9116 221.862 77.5524C222.353 78.1967 223.277 78.3194 223.907 77.8319C224.541 77.3445 224.674 76.4241 224.183 75.7833C223.692 75.1391 222.775 75.0198 222.141 75.5072Z" fill="white"/>
<path d="M225.581 80.1488C224.906 80.6022 224.736 81.5123 225.196 82.1804C225.649 82.8451 226.556 83.019 227.224 82.5656C227.892 82.1123 228.063 81.2021 227.602 80.5408C227.159 79.8761 226.249 79.7023 225.581 80.1488Z" fill="white"/>
<path d="M228.767 84.978C228.075 85.3938 227.851 86.2903 228.27 86.9789C228.689 87.6674 229.579 87.8924 230.271 87.4765C230.963 87.0572 231.188 86.1574 230.768 85.4757C230.356 84.7838 229.459 84.5621 228.767 84.978Z" fill="white"/>
<path d="M129.377 72.8904H129.385L129.392 72.8867L129.377 72.8904Z" fill="#00479D"/>
<path d="M129.377 72.8904H129.385L129.392 72.8867L129.377 72.8904Z" fill="#00479D"/>
<path d="M203.547 125.35H185.996L186.054 125.237L194.766 106.34L203.547 125.35Z" fill="#00479D"/>
<path d="M210.18 115.46C207.563 116.374 204.778 116.837 201.996 116.98L199.201 111.036C205.691 110.153 211.847 108.789 217.608 107.102C217.342 109.035 216.081 113.394 210.18 115.46Z" fill="#00479D"/>
<path d="M211.901 116.953C210.953 120.829 208.86 123.457 205.666 124.803L202.898 118.903C205.612 118.715 208.322 118.242 210.885 117.345C211.243 117.226 211.57 117.096 211.901 116.953Z" fill="#00479D"/>
<path d="M165.967 157.229C165.961 156.953 165.875 156.708 165.688 156.513C165.49 156.319 165.255 156.227 164.996 156.227C164.877 156.217 164.774 156.244 164.669 156.275C164.526 156.322 164.379 156.397 164.277 156.513L154.712 166.269C154.017 165.539 153.274 164.858 152.5 164.22L161.069 152.767C162.286 151.1 164.072 149.914 165.93 149.901C167.938 149.904 169.744 150.77 171.145 152.655C172.703 154.806 173.985 156.421 175.45 157.686C172.355 159.84 164.682 165.202 157.657 170.114C157.108 169.2 156.481 168.328 155.806 167.506L165.691 157.921C165.875 157.74 165.974 157.481 165.967 157.229Z" fill="#00479D"/>
<path d="M154.273 148.442C154.194 148.193 154.038 147.992 153.789 147.873C153.547 147.75 153.277 147.746 153.018 147.825C152.776 147.89 152.562 148.074 152.449 148.312L146.385 160.662C145.404 160.28 144.384 159.959 143.338 159.707C145.836 151.513 148.557 142.555 149.657 138.956C151.318 139.965 153.243 140.673 155.773 141.495C157.992 142.238 159.375 143.69 159.999 145.599C160.569 147.371 159.992 149.434 158.776 151.1L150.533 162.802C149.695 162.254 148.812 161.759 147.905 161.323L154.225 149.215C154.303 149.076 154.331 148.922 154.331 148.762C154.327 148.66 154.321 148.554 154.273 148.442Z" fill="#00479D"/>
<path d="M121.768 149.215L128.087 161.323C127.177 161.759 126.294 162.254 125.456 162.802L117.214 151.1C116.004 149.434 115.421 147.371 115.983 145.599C116.61 143.687 117.998 142.235 120.217 141.495C122.749 140.673 124.679 139.965 126.332 138.956C127.429 142.558 130.153 151.513 132.651 159.707C131.605 159.959 130.586 160.28 129.604 160.662L123.54 148.312C123.428 148.074 123.213 147.89 122.971 147.825C122.708 147.746 122.442 147.75 122.197 147.873C121.948 147.992 121.791 148.193 121.713 148.442C121.665 148.554 121.662 148.656 121.662 148.762C121.662 148.919 121.689 149.072 121.768 149.215Z" fill="#00479D"/>
<path d="M110.304 157.924L120.189 167.509C119.514 168.33 118.894 169.203 118.338 170.117C111.313 165.205 103.64 159.843 100.545 157.689C102.011 156.428 103.292 154.812 104.85 152.658C106.244 150.773 108.054 149.907 110.055 149.903C111.919 149.917 113.706 151.1 114.922 152.77L123.492 164.223C122.718 164.857 121.975 165.542 121.28 166.272L111.715 156.516C111.602 156.397 111.466 156.322 111.323 156.278C111.217 156.247 111.115 156.22 110.996 156.23C110.733 156.233 110.491 156.325 110.304 156.516C110.113 156.71 110.028 156.959 110.024 157.232C110.018 157.481 110.116 157.74 110.304 157.924Z" fill="#00479D"/>
<path d="M183.902 114.087C185.753 112.877 187.802 112.123 189.946 111.926L188.265 115.484C186.564 115.044 185.078 114.557 183.902 114.087Z" fill="#00479D"/>
<path d="M187.428 117.251L185.294 121.75C182.676 120.435 180.576 119.126 179.428 118.366C179.527 118.239 179.632 118.106 179.734 117.977C180.467 117.033 181.279 116.177 182.121 115.438C183.433 116.02 185.256 116.671 187.428 117.251Z" fill="#00479D"/>
<path d="M177.83 116.525C173.9 121.785 167.403 125.258 161.24 125.862C160.558 123.823 159.887 121.782 159.232 119.764C162.842 119.378 169.789 117.831 175.509 111.736C179.04 107.963 183.648 104.789 190.254 104.827C191.274 104.837 192.296 104.82 193.315 104.779L191.025 109.633C186.542 109.657 181.566 111.542 177.83 116.525Z" fill="#00479D"/>
<path d="M164.536 147.316C164.144 147.381 163.752 147.473 163.37 147.596C163.241 147.64 163.108 147.695 162.965 147.742C162.978 147.599 162.985 147.452 162.985 147.313C162.985 146.467 162.849 145.646 162.6 144.872C162.579 144.821 162.559 144.773 162.549 144.726C162.914 144.259 163.295 143.672 163.636 142.95C164.038 144.538 164.338 146 164.536 147.316Z" fill="#00479D"/>
<path d="M161.791 143.137C160.803 141.522 159.262 140.233 157.35 139.442C157.704 139.177 159.927 137.312 160.779 133.433C161.631 136.024 162.415 138.515 163.056 140.809C162.701 141.75 162.238 142.534 161.791 143.137Z" fill="#00479D"/>
<path d="M153.924 130.832C154.943 129.823 156.787 127.488 157.455 123.51C157.469 123.497 157.482 123.483 157.482 123.476C158.072 125.269 158.672 127.072 159.275 128.865L159.303 128.971C159.5 129.55 159.695 130.123 159.879 130.692C159.763 134.558 157.735 137.083 156.91 137.622C156.081 137.087 154.081 134.619 153.924 130.832Z" fill="#00479D"/>
<path d="M155.873 138.924C154.028 138.31 152.6 137.772 151.387 137.103C152.055 136.377 152.713 135.362 153.166 134.036C153.851 136.575 155.112 138.157 155.873 138.924Z" fill="#00479D"/>
<path d="M156.921 121.745C156.72 121.967 156.543 122.134 156.386 122.236C155.602 121.745 153.744 119.56 153.332 116.138C153.594 115.92 154.116 115.432 154.672 114.635C155.37 116.932 156.127 119.322 156.921 121.745Z" fill="#00479D"/>
<path d="M156.024 124.094H156.031C155.168 127.196 153.546 129.119 152.826 129.582C152.042 129.078 150.209 126.876 149.738 123.321C150.328 122.803 151.739 121.354 152.591 118.787C153.675 122.407 155.884 124.016 156.024 124.094Z" fill="#00479D"/>
<path d="M149.069 121.68C148.323 121.2 146.618 119.127 146.186 115.93C146.877 115.282 148.299 113.694 149.069 110.984C149.829 113.69 151.254 115.282 151.95 115.93C151.513 119.131 149.816 121.2 149.069 121.68Z" fill="#00479D"/>
<path d="M145.375 114.411C144.649 113.934 142.962 111.895 142.512 108.749C143.21 108.095 144.611 106.506 145.375 103.813C146.142 106.506 147.539 108.095 148.245 108.749C147.795 111.895 146.115 113.934 145.375 114.411Z" fill="#00479D"/>
<path d="M144.57 115.93C144.137 119.127 142.426 121.2 141.689 121.68C140.943 121.2 139.228 119.127 138.799 115.93C139.498 115.282 140.919 113.694 141.689 110.984C142.449 113.694 143.867 115.282 144.57 115.93Z" fill="#00479D"/>
<path d="M137.999 114.411C137.259 113.934 135.586 111.895 135.129 108.749C135.834 108.095 137.235 106.506 137.999 103.813C138.766 106.506 140.163 108.095 140.872 108.749C140.412 111.895 138.739 113.934 137.999 114.411Z" fill="#00479D"/>
<path d="M137.189 115.93C136.753 119.127 135.045 121.2 134.298 121.68C133.565 121.2 131.851 119.127 131.418 115.93C132.117 115.282 133.531 113.694 134.298 110.984C135.069 113.694 136.483 115.282 137.189 115.93Z" fill="#00479D"/>
<path d="M130.611 114.411C129.878 113.934 128.197 111.895 127.744 108.749C128.443 108.095 129.851 106.506 130.611 103.813C131.378 106.506 132.782 108.095 133.481 108.749C133.031 111.895 131.35 113.934 130.611 114.411Z" fill="#00479D"/>
<path d="M129.803 115.93C129.37 119.127 127.662 121.2 126.919 121.68C126.173 121.2 124.472 119.127 124.039 115.93C124.734 115.282 126.152 113.694 126.919 110.984C127.69 113.694 129.104 115.282 129.803 115.93Z" fill="#00479D"/>
<path d="M126.255 123.323C125.778 126.878 123.954 129.08 123.167 129.585C122.441 129.121 120.818 127.195 119.963 124.097H119.97C120.106 124.018 122.318 122.41 123.406 118.793C124.254 121.356 125.666 122.805 126.255 123.323Z" fill="#00479D"/>
<path d="M113.026 147.746C112.883 147.698 112.75 147.644 112.621 147.6C112.236 147.477 111.847 147.385 111.455 147.32C111.653 146.004 111.953 144.539 112.358 142.957C112.699 143.68 113.078 144.266 113.446 144.733C113.432 144.781 113.405 144.832 113.395 144.883C113.139 145.65 113.003 146.475 113.003 147.32C112.999 147.456 113.013 147.603 113.026 147.746Z" fill="#00479D"/>
<path d="M112.928 140.809C113.575 138.515 114.359 136.02 115.211 133.433C116.06 137.312 118.286 139.18 118.641 139.442C116.732 140.233 115.188 141.522 114.199 143.137C113.753 142.534 113.289 141.75 112.928 140.809Z" fill="#00479D"/>
<path d="M116.113 130.69C116.297 130.12 116.492 129.548 116.682 128.968L116.723 128.863C117.32 127.07 117.913 125.267 118.51 123.474C118.51 123.484 118.523 123.498 118.537 123.508C119.205 127.486 121.049 129.821 122.068 130.83C121.898 134.617 119.911 137.084 119.086 137.616C118.261 137.081 116.233 134.555 116.113 130.69Z" fill="#00479D"/>
<path d="M122.83 134.032C123.273 135.358 123.941 136.373 124.609 137.099C123.392 137.771 121.967 138.306 120.123 138.92C120.88 138.156 122.141 136.575 122.83 134.032Z" fill="#00479D"/>
<path d="M119.597 122.236C119.447 122.134 119.269 121.967 119.068 121.745C119.852 119.325 120.626 116.936 121.318 114.635C121.874 115.429 122.405 115.92 122.658 116.138C122.249 119.564 120.384 121.745 119.597 122.236Z" fill="#00479D"/>
<path d="M100.487 111.736C106.2 117.831 113.147 119.375 116.757 119.764C116.102 121.778 115.424 123.823 114.749 125.862C108.586 125.262 102.093 121.788 98.1592 116.525C94.4234 111.542 89.4399 109.657 84.9644 109.63L82.6738 104.776C83.6998 104.82 84.7122 104.834 85.7279 104.824C92.3441 104.79 96.9492 107.963 100.487 111.736Z" fill="#00479D"/>
<path d="M92.0883 114.086C90.9124 114.557 89.4262 115.044 87.7253 115.484L86.0449 111.925C88.1889 112.126 90.2306 112.876 92.0883 114.086Z" fill="#00479D"/>
<path d="M93.861 115.438C94.7098 116.177 95.521 117.029 96.2539 117.977C96.3596 118.11 96.4583 118.239 96.5538 118.366C95.4085 119.129 93.3088 120.435 90.6876 121.75L88.5605 117.251C90.7318 116.671 92.5521 116.02 93.861 115.438Z" fill="#00479D"/>
<path d="M92.5394 125.674L91.5304 123.557C94.4482 122.081 96.7252 120.619 97.8364 119.865C98.6988 120.803 99.5885 121.672 100.519 122.453C98.2557 125.169 91.101 132.716 81.8295 132.593C76.5496 132.522 73.8227 129.931 72.541 128.033C74.5828 129.076 77.6165 130.149 81.2228 130.149C87.0311 130.149 91.2032 127.46 92.3826 126.478C92.7609 126.154 92.6451 125.919 92.5394 125.674Z" fill="#00479D"/>
<path d="M102.06 123.646C103.055 124.355 104.101 124.989 105.175 125.538C103.88 127.996 98.8693 136.367 90.5488 137.772C85.5518 138.61 83.0124 136.04 82 134.588C92.352 134.622 99.7964 126.462 102.06 123.646Z" fill="#00479D"/>
<path d="M106.942 126.339C108.104 126.806 109.325 127.198 110.593 127.498C109.666 130.304 106.942 137.179 102.122 139.971C97.616 142.554 94.2518 140.734 92.5781 139.35C101.079 137.022 105.766 128.691 106.942 126.339Z" fill="#00479D"/>
<path d="M103.179 141.638C108.844 138.397 111.643 130.717 112.525 127.881C113.016 127.956 113.514 128.024 114.012 128.075C112.488 132.66 111.009 137.098 109.962 140.98C107.085 143.349 103.779 142.674 102.225 142.146C102.538 141.996 102.852 141.829 103.179 141.638Z" fill="#00479D"/>
<path d="M126.132 136.092C125.085 135.291 123.896 133.679 123.582 131.429C123.79 131.29 125.873 129.681 126.95 126.16C128.102 129.435 130.082 130.935 130.202 131.017L130.423 131.17C129.833 131.801 129.247 132.527 128.678 133.369C127.839 134.521 127.028 135.39 126.132 136.092Z" fill="#00479D"/>
<path d="M127.541 123.369C128.124 122.872 129.763 121.242 130.609 118.253C131.461 121.242 133.1 122.872 133.683 123.369C133.08 126.59 131.355 128.673 130.609 129.157C129.862 128.676 128.151 126.594 127.541 123.369Z" fill="#00479D"/>
<path d="M134.48 125.537C134.886 126.57 135.356 127.408 135.82 128.073C135.029 128.206 134.191 128.458 133.335 128.898C133.107 129.021 132.871 129.147 132.646 129.29C133.291 128.404 133.989 127.163 134.48 125.537Z" fill="#00479D"/>
<path d="M135.115 123.195C135.814 122.548 137.229 120.959 137.992 118.253C138.759 120.959 140.17 122.548 140.869 123.195C140.235 125.585 139.032 127.231 138.285 127.899C138.18 127.899 138.088 127.899 137.992 127.899C137.893 127.899 137.801 127.899 137.699 127.899C136.956 127.235 135.753 125.585 135.115 123.195Z" fill="#00479D"/>
<path d="M141.508 125.537C141.999 127.166 142.698 128.404 143.338 129.287C143.117 129.143 142.882 129.014 142.65 128.895C141.798 128.455 140.956 128.206 140.158 128.07C140.632 127.408 141.102 126.57 141.508 125.537Z" fill="#00479D"/>
<path d="M142.305 123.369C142.888 122.872 144.527 121.242 145.372 118.253C146.225 121.242 147.864 122.872 148.447 123.369C147.84 126.59 146.126 128.673 145.372 129.157C144.636 128.676 142.915 126.594 142.305 123.369Z" fill="#00479D"/>
<path d="M145.784 131.017C145.903 130.935 147.877 129.435 149.036 126.16C150.116 129.681 152.196 131.29 152.404 131.429C152.09 133.679 150.9 135.291 149.854 136.092C148.958 135.39 148.146 134.521 147.301 133.365C146.732 132.527 146.149 131.801 145.562 131.17L145.784 131.017Z" fill="#00479D"/>
<path d="M161.982 128.078C162.48 128.024 162.978 127.959 163.469 127.884C164.351 130.72 167.164 138.399 172.815 141.641C173.142 141.832 173.456 141.996 173.769 142.152C172.212 142.681 168.902 143.356 166.032 140.987C164.985 137.101 163.499 132.663 161.982 128.078Z" fill="#00479D"/>
<path d="M165.393 127.495C166.667 127.199 167.884 126.807 169.05 126.336C170.229 128.692 174.913 137.019 183.404 139.344C181.74 140.731 178.379 142.548 173.873 139.964C169.05 137.179 166.327 130.304 165.393 127.495Z" fill="#00479D"/>
<path d="M170.814 125.538C171.888 124.993 172.935 124.362 173.927 123.646C176.19 126.462 183.634 134.622 193.983 134.588C192.977 136.04 190.438 138.607 185.441 137.772C177.12 136.367 172.11 127.996 170.814 125.538Z" fill="#00479D"/>
<path d="M175.473 122.452C176.4 121.672 177.293 120.806 178.155 119.865C179.267 120.622 181.537 122.081 184.461 123.557L183.452 125.674C183.347 125.919 183.231 126.154 183.609 126.478C184.785 127.46 188.961 130.149 194.769 130.149C198.375 130.149 201.416 129.075 203.457 128.032C202.162 129.931 199.442 132.518 194.155 132.593C184.894 132.716 177.736 125.166 175.473 122.452Z" fill="#00479D"/>
<path d="M193.435 100.725V102.044C193.435 102.044 162.873 104.529 154.985 105.214C154.644 103.782 154.372 102.453 154.174 101.253V101.243V101.239V101.229C154.147 101.065 154.123 100.895 154.082 100.725H193.435Z" fill="#00479D"/>
<path d="M154.117 112.829C153.626 113.651 153.098 114.196 152.757 114.414C152.017 113.937 150.337 111.899 149.887 108.746C150.442 108.221 151.431 107.092 152.106 105.269C152.627 107.559 153.319 110.112 154.117 112.829Z" fill="#00479D"/>
<path d="M122.045 87.7709H122.038H122.024C121.69 87.7641 120.978 87.7607 120.61 87.7607C119.942 87.7607 116.908 87.822 116.063 89.6524C115.449 88.7526 114.969 87.7948 114.638 86.7926C114.283 85.7223 114.103 84.6043 114.11 83.5578C114.123 82.4807 114.331 81.6899 114.737 81.1343C115.129 80.6094 115.77 80.2379 116.673 79.9924C118.739 79.4539 121.697 79.188 123.868 79.355L123.889 79.3619H123.903L124.615 79.3993C125.668 79.447 128.617 81.1377 130.416 83.9396C130.416 83.9396 136.729 82.7636 141.007 78.5915C141.007 78.5915 133.051 79.4061 126.459 78.4721C126.353 78.4585 126.118 78.3529 126.248 78.07C126.248 78.07 126.275 78.0018 126.34 77.9029C126.34 77.9029 126.34 77.8961 126.34 77.8893C126.865 77.1019 127.679 76.11 130.147 75.343L130.154 75.3396C131.33 74.9681 133.106 74.7193 135.277 74.6273C137.513 74.5284 140.155 74.5864 143.114 74.8045C147.582 75.1283 150.899 74.7534 153.254 74.2012C152.573 75.9873 151.325 78.1109 149.048 79.655H149.041L148.244 80.2106L147.381 80.8105L147.794 81.7683L148.162 82.6443C148.895 84.4713 149.406 88.0914 149.992 92.2772L150.064 92.7646C150.411 95.3927 150.844 98.5149 151.4 101.702C151.407 101.756 151.42 101.818 151.427 101.876C151.257 104.824 149.812 106.737 149.086 107.227H149.048C148.186 106.641 146.117 104.03 146.093 100.052H145.909H144.862H144.671C144.651 104.03 142.572 106.641 141.709 107.227H141.668C140.806 106.641 138.737 104.03 138.706 100.052H138.522H137.476H137.292C137.258 104.03 135.192 106.641 134.33 107.227H134.289C133.426 106.641 131.354 104.03 131.327 100.052H131.136H130.089H129.905C129.878 104.03 127.812 106.641 126.95 107.227H126.906C126.207 106.75 124.833 104.944 124.591 102.159C125.055 100.315 125.665 98.1843 125.696 98.0616C126.415 95.6857 126.769 93.5588 126.783 93.4633V93.4599V93.4565C127.059 91.7794 126.769 90.4194 125.944 89.4105C125.106 88.4049 123.766 87.8356 122.045 87.7709Z" fill="#00479D"/>
<path d="M126.103 108.741C125.649 111.894 123.962 113.933 123.229 114.41C122.895 114.195 122.36 113.646 121.869 112.825C122.667 110.112 123.362 107.555 123.884 105.265C124.552 107.088 125.547 108.216 126.103 108.741Z" fill="#00479D"/>
<path d="M82.5508 100.725H122.05C121.845 101.502 121.651 102.289 121.505 102.94V102.947V102.954V102.964C121.361 103.68 121.191 104.433 121.007 105.217C112.779 104.505 82.5508 102.04 82.5508 102.04V100.725Z" fill="#00479D"/>
<path d="M81.2216 106.34L89.934 125.237L89.9954 125.35H72.4512L81.2216 106.34Z" fill="#00479D"/>
<path d="M65.1037 117.345C67.6601 118.242 70.3768 118.715 73.09 118.903L70.3223 124.803C67.125 123.453 65.0355 120.829 64.0879 116.953C64.4151 117.096 64.756 117.226 65.1037 117.345Z" fill="#00479D"/>
<path d="M58.3867 107.102C64.1439 108.79 70.293 110.153 76.7797 111.036L73.9914 116.98C71.21 116.837 68.4183 116.374 65.8073 115.46C59.9036 113.395 58.6458 109.035 58.3867 107.102Z" fill="#00479D"/>
<path d="M9.65434 71.9111C26.0362 88.593 54.0176 102.776 79.7902 104.62L77.7417 108.99C43.577 104.842 19.6314 86.6568 12.1358 79.4033C9.41572 76.7786 9.10555 73.612 9.65434 71.9111Z" fill="#00479D"/>
<path d="M12.8732 83.1887C20.0006 89.5424 35.4382 99.9967 56.224 106.453C56.3093 107.707 56.8308 111.228 59.8168 114.156C46.1891 112.486 27.5848 106.003 17.4305 97.0993C11.1212 91.5739 11.8438 86.0656 12.8732 83.1887Z" fill="#00479D"/>
<path d="M18.086 100.631C29.7981 109.671 48.7194 115.247 61.8324 116.365C62.2858 118.683 63.155 121.103 64.7843 123.124C52.9188 124.028 36.9699 122.167 25.4964 114.456C18.1304 109.5 17.7247 103.576 18.086 100.631Z" fill="#00479D"/>
<path d="M38.5794 130.823C32.5257 128.519 28.282 124.435 27.6719 118.48C39.7861 125.073 55.326 126.119 66.6154 124.957C67.4539 125.618 68.4219 126.198 69.5331 126.654C69.7036 127.132 70.5285 129.194 72.5498 131.103C68.0947 132.469 52.9706 136.314 38.5794 130.823Z" fill="#00479D"/>
<path d="M59.3425 142.906C51.7106 142.623 46.7033 139.971 44.4434 134.974C59.4584 138.123 72.7963 133.235 74.4597 132.581C75.7993 133.419 77.4764 134.091 79.542 134.408C79.634 134.599 80.2612 135.914 81.6349 137.216C79.058 138.713 70.2024 143.304 59.3425 142.906Z" fill="#00479D"/>
<path d="M61.2129 145.272C71.6262 145.085 80.5739 140.387 83.369 138.526C85.0119 139.505 87.2412 140.176 90.1862 139.822C90.5134 140.166 91.0111 140.653 91.6655 141.144C89.4022 143.346 83.3826 148.422 74.9395 149.884C68.5892 150.988 64.2466 149.454 61.2129 145.272Z" fill="#00479D"/>
<path d="M80.2674 155.374C78.0108 155.091 75.9316 153.772 74.6738 152.364C84.552 151.014 91.1886 144.756 93.4792 142.264C95.129 143.072 97.273 143.587 99.8056 143.004C100.126 143.335 100.729 143.696 101.52 144.006C99.2193 147.169 91.2704 156.751 80.2674 155.374Z" fill="#00479D"/>
<path d="M89.2656 156.788C97.0168 154.089 102.235 146.872 103.735 144.572C105.416 144.81 107.386 144.691 109.257 143.818C108.978 145.09 108.753 146.279 108.623 147.367C106.401 147.8 104.352 149.139 102.866 151.198C99.955 155.189 98.3871 156.938 94.5081 158.192C94.4808 158.199 94.4569 158.206 94.4296 158.213C92.1765 158.077 90.4484 157.415 89.2656 156.788Z" fill="#00479D"/>
<path d="M90.7577 174.464C87.7479 170.343 88.2319 168.199 88.9 166.164C89.5544 164.129 90.4305 162.114 95.2775 160.543C96.7569 160.059 97.967 159.5 99.0271 158.822C101.866 160.765 110.095 166.406 117.539 171.512C117.096 172.374 116.701 173.271 116.363 174.195L97.9363 167.988C97.3909 167.81 96.7773 168.103 96.6001 168.666C96.4228 169.222 96.7365 169.825 97.2784 169.999L115.835 175.807C115.566 176.741 115.365 177.699 115.215 178.674C106.182 178.425 96.2116 178.145 92.7722 178.06C92.3155 176.884 91.661 175.729 90.7577 174.464Z" fill="#00479D"/>
<path d="M96.4568 191.761C94.8343 190.575 93.8799 188.809 93.8595 186.471C93.8663 183.809 93.781 181.75 93.3379 179.875C97.1044 179.944 106.468 180.114 115.034 180.274C114.99 180.884 114.962 181.498 114.962 182.115C114.962 182.568 114.976 183.022 115 183.468L101.375 185.415C101.106 185.452 100.871 185.602 100.735 185.81C100.578 186.031 100.499 186.287 100.544 186.556C100.585 186.826 100.714 187.04 100.936 187.194C101.028 187.272 101.12 187.316 101.225 187.347C101.375 187.391 101.525 187.415 101.682 187.388L115.157 185.111C115.286 186.127 115.484 187.109 115.739 188.07L102.074 192.293C100.111 192.934 97.9668 192.845 96.4568 191.761Z" fill="#00479D"/>
<path d="M99.7345 204.53C98.3745 202.632 98.1052 200.638 98.7222 198.729C99.3119 196.967 100.992 195.634 102.956 194.993L116.498 190.378C116.849 191.322 117.282 192.236 117.759 193.115L105.519 199.193C105.376 199.264 105.263 199.37 105.171 199.496C105.113 199.581 105.059 199.677 105.028 199.789C104.95 200.038 104.957 200.294 105.086 200.529C105.202 200.774 105.427 200.934 105.676 201.026C105.911 201.115 106.201 201.095 106.436 200.969L118.601 194.533C119.177 195.44 119.811 196.288 120.507 197.096C113.669 202.264 106.201 207.905 103.191 210.175C102.444 208.403 101.299 206.688 99.7345 204.53Z" fill="#00479D"/>
<path d="M120.158 223.871C118.903 223.943 117.601 224.199 116.115 224.679C111.275 226.261 109.383 225.139 107.651 223.882C105.923 222.62 104.277 221.175 104.277 216.079C104.277 214.525 104.12 213.202 103.793 211.979C106.527 209.882 114.435 203.801 121.6 198.29C122.285 198.985 123.011 199.636 123.785 200.239L112.182 215.851C111.841 216.318 111.94 216.986 112.417 217.33C112.887 217.678 113.555 217.562 113.896 217.098L125.162 201.241C125.973 201.787 126.808 202.281 127.687 202.721C124.657 211.229 121.313 220.626 120.158 223.871Z" fill="#00479D"/>
<path d="M136.577 219.423C136.577 221.486 135.831 223.497 134.341 224.598C132.705 225.777 130.738 226.142 128.506 225.436C125.966 224.611 123.993 224.056 122.07 223.895C123.301 220.337 126.348 211.488 129.15 203.389C130.132 203.798 131.137 204.139 132.184 204.412L129.821 217.964C129.777 218.227 129.842 218.5 129.999 218.691C130.162 218.912 130.377 219.062 130.653 219.106C130.916 219.154 131.165 219.089 131.372 218.932C131.478 218.875 131.55 218.793 131.614 218.704C131.7 218.581 131.764 218.442 131.792 218.282L133.793 204.766C134.774 204.947 135.77 205.066 136.789 205.117L136.577 219.423Z" fill="#00479D"/>
<path d="M137.996 138.592C137.407 138.592 136.936 139.08 136.936 139.653L137.144 159.095C136.156 159.136 135.188 159.232 134.233 159.389C131.677 150.72 128.858 141.156 127.883 137.853C128.858 137.055 129.761 136.074 130.674 134.819C133.671 130.691 135.856 130.49 137.993 130.49C140.133 130.49 142.318 130.695 145.311 134.819C146.228 136.074 147.131 137.052 148.103 137.853C147.128 141.152 144.309 150.72 141.753 159.389C140.798 159.232 139.83 159.133 138.835 159.095L139.046 139.653C139.049 139.08 138.583 138.592 137.996 138.592Z" fill="#00479D"/>
<path d="M147.485 225.436C145.255 226.142 143.285 225.78 141.649 224.598C140.156 223.5 139.413 221.489 139.413 219.423L139.205 205.117C140.224 205.07 141.22 204.947 142.201 204.766L144.202 218.282C144.223 218.438 144.294 218.578 144.379 218.704C144.437 218.793 144.516 218.875 144.608 218.932C144.829 219.089 145.078 219.154 145.341 219.106C145.61 219.065 145.825 218.916 145.995 218.691C146.152 218.5 146.217 218.227 146.166 217.964L143.81 204.412C144.857 204.136 145.866 203.798 146.844 203.389C149.646 211.491 152.7 220.337 153.924 223.895C152.001 224.056 150.024 224.611 147.485 225.436Z" fill="#00479D"/>
<path d="M171.712 216.079C171.712 221.175 170.066 222.624 168.338 223.882C166.599 225.139 164.714 226.261 159.874 224.679C158.385 224.199 157.086 223.943 155.825 223.871C154.672 220.626 151.332 211.229 148.309 202.717C149.185 202.278 150.03 201.787 150.834 201.238L162.1 217.095C162.441 217.559 163.105 217.675 163.579 217.327C164.05 216.983 164.155 216.318 163.814 215.847L152.211 200.236C152.985 199.636 153.715 198.981 154.396 198.286C161.558 203.794 169.469 209.882 172.196 211.975C171.872 213.202 171.712 214.525 171.712 216.079Z" fill="#00479D"/>
<path d="M176.254 204.53C174.69 206.684 173.551 208.399 172.801 210.178C169.791 207.908 162.323 202.267 155.479 197.099C156.17 196.291 156.811 195.436 157.391 194.536L169.556 200.972C169.791 201.098 170.071 201.118 170.309 201.029C170.565 200.937 170.78 200.777 170.903 200.532C171.035 200.297 171.036 200.041 170.954 199.792C170.926 199.676 170.875 199.584 170.81 199.499C170.718 199.369 170.613 199.267 170.47 199.196L158.229 193.118C158.707 192.239 159.139 191.322 159.49 190.381L173.033 194.996C174.996 195.637 176.677 196.97 177.266 198.732C177.883 200.641 177.618 202.631 176.254 204.53Z" fill="#00479D"/>
<path d="M182.123 186.474C182.109 188.812 181.155 190.575 179.526 191.764C178.023 192.848 175.875 192.934 173.915 192.299L160.25 188.073C160.506 187.112 160.703 186.126 160.833 185.114L174.307 187.391C174.464 187.422 174.621 187.398 174.764 187.35C174.87 187.316 174.962 187.275 175.054 187.197C175.268 187.043 175.405 186.829 175.446 186.559C175.49 186.29 175.405 186.034 175.255 185.813C175.118 185.601 174.876 185.452 174.621 185.417L160.99 183.471C161.017 183.021 161.031 182.568 161.031 182.118C161.031 181.501 161.003 180.884 160.952 180.277C169.521 180.117 178.888 179.947 182.655 179.878C182.208 181.753 182.123 183.812 182.123 186.474Z" fill="#00479D"/>
<path d="M185.23 174.464C184.327 175.725 183.673 176.884 183.216 178.06C179.776 178.149 169.806 178.428 160.773 178.674C160.623 177.699 160.416 176.741 160.153 175.807L178.703 169.999C179.252 169.821 179.565 169.222 179.388 168.666C179.197 168.103 178.597 167.81 178.048 167.988L159.628 174.195C159.287 173.271 158.895 172.374 158.445 171.512C165.897 166.406 174.125 160.765 176.964 158.822C178.025 159.5 179.234 160.059 180.714 160.543C185.561 162.114 186.437 164.129 187.091 166.164C187.756 168.202 188.24 170.343 185.23 174.464Z" fill="#00479D"/>
<path d="M181.569 158.213C181.541 158.206 181.518 158.199 181.49 158.192C177.618 156.938 176.04 155.186 173.132 151.198C171.646 149.143 169.615 147.8 167.375 147.367C167.246 146.279 167.021 145.09 166.734 143.818C168.606 144.691 170.579 144.81 172.263 144.572C173.759 146.869 178.975 154.085 186.726 156.788C185.547 157.415 183.818 158.077 181.569 158.213Z" fill="#00479D"/>
<path d="M195.727 155.374C184.724 156.751 176.775 147.166 174.475 144.006C175.265 143.699 175.869 143.335 176.182 143.004C178.722 143.587 180.859 143.072 182.516 142.264C184.806 144.756 191.446 151.014 201.321 152.364C200.056 153.772 197.977 155.091 195.727 155.374Z" fill="#00479D"/>
<path d="M201.049 149.88C192.613 148.417 186.593 143.342 184.33 141.14C184.985 140.649 185.482 140.162 185.809 139.817C188.754 140.172 190.977 139.5 192.627 138.522C195.422 140.383 204.363 145.084 214.783 145.268C211.735 149.453 207.4 150.987 201.049 149.88Z" fill="#00479D"/>
<path d="M216.644 142.905C205.784 143.304 196.935 138.716 194.352 137.216C195.725 135.914 196.366 134.598 196.458 134.408C198.524 134.091 200.187 133.416 201.534 132.581C203.197 133.235 216.528 138.123 231.547 134.973C229.28 139.97 224.283 142.619 216.644 142.905Z" fill="#00479D"/>
<path d="M237.412 130.823C223.028 136.314 207.897 132.469 203.445 131.103C205.473 129.194 206.292 127.132 206.455 126.654C207.566 126.198 208.534 125.618 209.373 124.957C220.662 126.119 236.206 125.073 248.32 118.48C247.71 124.435 243.463 128.519 237.412 130.823Z" fill="#00479D"/>
<path d="M250.494 114.46C239.021 122.17 223.078 124.032 211.213 123.128C212.835 121.107 213.711 118.687 214.158 116.369C227.268 115.251 246.192 109.674 257.908 100.635C258.266 103.576 257.86 109.501 250.494 114.46Z" fill="#00479D"/>
<path d="M258.559 97.0996C248.408 106.003 229.803 112.483 216.176 114.156C219.158 111.228 219.676 107.707 219.768 106.453C240.558 99.9969 255.995 89.5426 263.113 83.189C264.145 86.0658 264.865 91.5742 258.559 97.0996Z" fill="#00479D"/>
<path d="M263.861 79.4033C256.365 86.6568 232.41 104.842 198.252 108.99L196.203 104.62C221.983 102.776 249.954 88.5895 266.332 71.9111C266.888 73.612 266.574 76.7786 263.861 79.4033Z" fill="#00479D"/>
<path d="M129.377 72.8904H129.385L129.392 72.8867L129.377 72.8904Z" fill="#00479D"/>
<path d="M129.377 72.8904H129.385L129.392 72.8867L129.377 72.8904Z" fill="#00479D"/>
<path d="M10.4526 192.706L13.0976 191.738L11.1684 186.441L14.0827 185.381L15.8757 190.293L18.5242 189.332L16.7278 184.413L19.4923 183.407L21.3534 188.51L24.0019 187.552L21.0364 179.416L7.41211 184.382L10.4526 192.706Z" fill="white"/>
<path d="M17.4209 165.979L3.35352 169.48L4.1341 172.606L9.39361 171.294L9.40043 171.334L5.05783 176.311L6.06337 180.354L10.5082 174.821C11.524 176.43 13.4942 177.289 15.4405 176.805C17.8777 176.202 19.357 173.734 18.7537 171.304L17.4209 165.979ZM15.9313 171.651C16.1631 172.582 15.7985 173.461 14.6804 173.741C13.5556 174.017 12.8227 173.407 12.5909 172.483L12.1273 170.612L15.4712 169.784L15.9313 171.651Z" fill="white"/>
<path d="M16.2176 155.499C15.7506 151.357 12.0148 148.375 7.87331 148.842C3.72501 149.305 0.742481 153.041 1.21287 157.19C1.67304 161.331 5.41229 164.314 9.55718 163.847C13.6987 163.383 16.6846 159.64 16.2176 155.499ZM4.21248 156.852C3.9432 154.476 5.74296 152.315 8.23126 152.043C10.7093 151.763 12.9488 153.467 13.2113 155.84C13.4805 158.212 11.6808 160.37 9.19248 160.646C6.70759 160.925 4.47494 159.228 4.21248 156.852Z" fill="white"/>
<path d="M27.4462 223.262L39.4854 215.18L37.6891 212.507L30.3196 217.457L33.9771 206.982L32.3035 204.483L20.2676 212.565L22.0605 215.241L29.4197 210.298L25.7726 220.763L27.4462 223.262Z" fill="white"/>
<path d="M16.3238 198.891L18.6791 203.622L16.5624 205.851L18.144 209.031L28.6118 197.517L27.1904 194.65L11.6914 196.055L13.2764 199.235L16.3238 198.891ZM24.0034 198.025L20.6936 201.502L19.2313 198.563L24.0034 198.025Z" fill="white"/>
<path d="M6.97816 137.768L0.624482 142.578L0.607422 147.064L8.18821 141.013L15.1078 146.58L15.1247 142.377L9.20056 137.782L15.1418 137.809L15.1588 134.585L0.661982 134.523L0.648303 137.745L6.97816 137.768Z" fill="white"/>
<path d="M249.686 216.455L252.546 212.007L255.542 212.685L257.457 209.692L242.217 206.614L240.482 209.307L249.628 221.892L251.55 218.899L249.686 216.455ZM245.002 210.306L249.686 211.362L247.913 214.13L245.002 210.306Z" fill="white"/>
<path d="M269.625 181.006L266.956 180.109L265.163 185.454L262.222 184.472L263.882 179.506L261.212 178.613L259.552 183.573L256.757 182.639L258.492 177.488L255.817 176.592L253.062 184.796L266.813 189.408L269.625 181.006Z" fill="white"/>
<path d="M273.798 163.136L259.601 160.198L258.946 163.347L267.635 165.154L257.6 169.864L256.986 172.816L271.18 175.754L271.834 172.598L263.159 170.805L273.188 166.088L273.798 163.136Z" fill="white"/>
<path d="M263.317 149.753C263.419 148.348 264.206 147.254 265.345 146.634L263.606 144.22C261.755 145.287 260.487 147.128 260.31 149.538C260.017 153.696 263.136 157.31 267.298 157.61C271.46 157.91 275.076 154.78 275.369 150.625C275.553 148.212 274.551 146.204 272.885 144.889L270.805 147.026C271.845 147.806 272.465 149.003 272.363 150.411C272.193 152.793 270.035 154.579 267.536 154.399C265.038 154.215 263.146 152.139 263.317 149.753Z" fill="white"/>
<path d="M254.684 197.192L257.237 198.408L258.832 195.071C259.937 196.217 260.335 197.747 259.603 199.281C258.57 201.435 255.901 202.304 253.644 201.224C251.395 200.14 250.406 197.519 251.439 195.361C252.046 194.09 253.177 193.36 254.462 193.197L253.729 190.316C251.616 190.627 249.752 191.878 248.719 194.059C246.909 197.819 248.497 202.328 252.257 204.132C256.02 205.931 260.526 204.346 262.329 200.587C264.173 196.742 262.544 192.985 258.522 191.063C258.28 190.94 258.031 190.841 257.782 190.746L254.684 197.192Z" fill="white"/>
<path d="M260.649 133.265L266.294 136.187L260.905 139.554L261.048 143.106L269.375 137.673L275.33 137.434L275.197 134.216L269.259 134.455L260.506 129.71L260.649 133.265Z" fill="white"/>
<path d="M222.427 43.9495L224.905 42.8622C224.905 42.8622 222.628 39.5388 224.108 35.7961L227.431 38.5605L229.183 36.4472L225.587 33.4646L226.753 32.0535L224.033 29.7969L222.86 31.2046L219.257 28.2153L217.505 30.3252L220.842 33.0862C217.44 35.2302 213.752 33.6009 213.752 33.6009L213.111 36.3688C216.074 37.5243 218.412 37.589 220.413 36.9345C220.15 38.9286 220.597 41.1 222.1 43.6326C222.001 43.5508 221.909 43.4689 221.81 43.3871C218.422 40.5784 214.216 40.9125 211.908 43.7042C209.594 46.4958 210.037 50.6884 213.425 53.4971C216.813 56.3024 221.013 55.9751 223.33 53.1835C225.495 50.5656 225.232 46.731 222.427 43.9495ZM215.317 51.2065C213.432 49.6454 213.353 47.4877 214.625 45.9572C215.893 44.4301 218.027 44.1097 219.912 45.6675C221.797 47.2286 221.875 49.3829 220.607 50.9134C219.332 52.4472 217.202 52.7677 215.317 51.2065Z" fill="white"/>
<path d="M231.999 37.8921L229.446 40.9667L227.111 39.0374L225.294 41.236L227.622 43.1687L224.711 46.6761L227.339 48.8679L234.633 40.0804L231.999 37.8921Z" fill="white"/>
<path d="M145.993 1.55078L142.564 1.55411L142.578 12.4004L146.007 12.3936L146 7.82597H148.857L148.847 4.9696L145.993 4.97636V1.55078Z" fill="white"/>
<path d="M146.022 20.1923L146.009 13.3682L130.016 13.3954L130.029 16.2519L142.59 16.2281V17.4551L130.029 17.4789V22.7079C130.029 23.6555 130.8 24.4155 131.751 24.4155L146.251 24.3917V21.5352L133.455 21.5591V20.2195L146.022 20.1923Z" fill="white"/>
<path d="M133.838 8.22472C134.969 10.0074 136.807 11.4425 139.816 12.4446L141.091 9.90178C141.091 9.90178 137.212 8.81101 135.954 4.99334L140.283 4.98658L140.276 2.24599L135.593 2.25629L135.586 0.422363L132.048 0.43599L132.055 2.25962L127.371 2.26648L127.378 5.00697L131.7 5.00021C130.456 8.8281 126.584 9.93246 126.584 9.93246L127.866 12.4617C130.882 11.4493 132.72 10.0108 133.838 8.22472Z" fill="white"/>
<path d="M53.218 32.5233L50.6172 34.7457L52.3931 36.8317L54.9973 34.606L56.1869 35.9966L53.5827 38.2225L55.3551 40.3086L57.9662 38.0827L59.4455 39.8211L62.0531 37.5953L54.6428 28.9067L52.0351 31.1325L53.218 32.5233Z" fill="white"/>
<path d="M55.7015 42.1142C52.3508 44.9672 51.9553 49.17 54.3141 51.9276C56.6695 54.6886 60.8757 54.9613 64.2196 52.1083C67.5669 49.2553 67.9623 45.0524 65.607 42.2948C63.2482 39.5338 59.0487 39.2578 55.7015 42.1142ZM62.2937 49.8483C60.436 51.4333 58.2886 51.1402 57.0069 49.6336C55.7117 48.1202 55.7628 45.9625 57.6205 44.3741C59.4782 42.7891 61.6222 43.0788 62.9072 44.5888C64.2059 46.1022 64.1514 48.2633 62.2937 49.8483Z" fill="white"/>
<path d="M49.6723 35.2065C49.2156 34.6679 48.4043 34.6066 47.8623 35.0668L40.4043 41.4272L42.2586 43.602L47.6817 38.973C48.343 40.2513 49.4371 43.711 45.6126 48.6194L47.9408 50.1397C53.6604 43.1384 51.772 37.6675 49.6723 35.2065Z" fill="white"/>
</g>
</svg>
