<svg width="169" height="48" viewBox="0 0 169 48" fill="none" xmlns="http://www.w3.org/2000/svg">
<path d="M23.9711 0C10.732 0 0 10.7457 0 23.9995C0 37.2543 10.732 48 23.9711 48C37.2103 48 47.9423 37.2543 47.9423 23.9995C47.9423 10.7457 37.2103 0 23.9711 0ZM23.9711 47.7599C10.8643 47.7599 0.238766 37.1218 0.238766 23.9995C0.238766 10.8772 10.8643 0.240052 23.9711 0.240052C37.078 0.240052 47.7035 10.8772 47.7035 23.9995C47.7035 37.1228 37.078 47.7599 23.9711 47.7599Z" fill="#AD7207"/>
<path d="M23.9716 0.721191C11.1294 0.721191 0.71875 11.1442 0.71875 24.0005C0.71875 36.8579 11.1294 47.2809 23.9716 47.2809C36.8138 47.2809 47.2244 36.8579 47.2244 24.0005C47.2244 11.1442 36.8138 0.721191 23.9716 0.721191ZM23.9716 46.6802C11.4607 46.6802 1.3177 36.5262 1.3177 23.9995C1.3177 11.4738 11.4597 1.31985 23.9716 1.31985C36.4825 1.31985 46.6245 11.4738 46.6245 23.9995C46.6245 36.5262 36.4825 46.6802 23.9716 46.6802Z" fill="#AD7207"/>
<path d="M42.9035 15.1305C42.9065 15.1255 42.9085 15.1235 42.9085 15.1235C43.3443 14.6603 43.4606 14.1733 43.4606 13.7688C43.4597 13.233 43.2487 12.8425 43.2438 12.8455C42.4061 13.8087 38.4255 17.6087 32.6003 18.1217V17.5768C32.6003 17.545 32.5824 17.534 32.5565 17.534H26.2946C26.2499 17.2402 26.2111 16.9583 26.1782 16.7063V16.7053H26.1772V16.7043C26.1762 16.6993 26.1673 16.6326 26.1673 16.6326C26.0797 16.004 26.0031 15.4592 25.8827 15.1355C26.1573 14.9392 26.3891 14.6653 26.5503 14.3406C26.7015 14.0368 26.7841 13.7061 26.7821 13.4073V13.3425L26.7274 13.3764C26.6478 13.4252 26.4409 13.5059 26.4389 13.5069C26.1434 13.6174 25.6111 13.735 24.7625 13.6742C24.3068 13.6403 23.8989 13.6324 23.5487 13.6473C23.1856 13.6642 22.8941 13.7061 22.6812 13.7728C22.4464 13.8465 22.2623 13.9412 22.117 14.0647C21.9917 14.1713 21.9211 14.2768 21.8743 14.3496C21.5092 14.3267 21.0396 14.3695 20.6983 14.4591C20.4685 14.5209 20.3004 14.6265 20.184 14.7819C20.0666 14.9382 20.0089 15.1375 20.0059 15.3895V15.3915C20.0049 15.5389 20.0377 15.7919 20.1302 16.0539C20.2486 16.3925 20.4357 16.6724 20.6854 16.8836L20.7351 16.9264L20.7441 16.8607C20.7471 16.8437 20.8078 16.4523 21.3928 16.4374C21.4475 16.4374 21.545 16.4383 21.5887 16.4383C21.7181 16.4433 21.8146 16.4762 21.8584 16.53C21.9012 16.5818 21.9131 16.6724 21.8932 16.7999C21.8912 16.8119 21.8395 17.1117 21.744 17.4324C21.744 17.4334 21.744 17.4344 21.744 17.4344C21.743 17.4404 21.731 17.4772 21.7151 17.534H15.3875C15.3617 17.534 15.3438 17.545 15.3438 17.5768V18.1217C9.51963 17.6087 5.53903 13.8097 4.70033 12.8455C4.69536 12.8425 4.48342 13.233 4.48242 13.7688C4.48242 14.1742 4.59984 14.6613 5.03461 15.1235C5.03461 15.1235 5.03659 15.1255 5.04057 15.1305C4.86546 15.5638 4.62969 16.7302 5.78975 17.7113C5.76885 17.8199 5.74894 17.9892 5.74894 18.1645C5.74894 18.7472 5.95986 19.6138 7.03535 20.336C7.03535 20.336 7.11096 20.3858 7.15971 20.4177C7.1418 20.6458 7.17166 22.3351 9.58827 22.9308C9.82506 23.625 10.4896 24.5066 12.1173 24.6161C12.573 25.3612 13.2326 25.7417 14.13 25.7328C14.3429 26.0664 14.7607 26.3354 15.2592 26.4559C15.5875 26.5336 15.9208 26.5416 16.2501 26.4778C16.3536 26.5595 16.5436 26.671 16.7933 26.7687C16.7933 26.7687 16.7943 26.7687 16.7983 26.7697C16.5088 26.9798 16.3665 27.2388 16.269 27.5416C16.1118 28.0257 16.1108 28.4859 16.6202 29.1533C16.7923 29.3903 16.8898 29.5925 16.9416 29.8266C16.9923 30.0567 17.0033 30.3197 17.0033 30.6972C17.0033 30.9343 17.051 31.1564 17.1465 31.3586C17.242 31.5578 17.3833 31.7301 17.5554 31.8546C17.6559 31.9284 17.7683 31.9861 17.8907 32.027C17.8151 32.1316 17.7584 32.2451 17.7196 32.3636C17.6549 32.5668 17.642 32.7879 17.6818 33.0061C17.7236 33.2252 17.8141 33.4334 17.9534 33.6257C18.1743 33.9305 18.3205 34.1496 18.413 34.3647C18.5085 34.5869 18.5493 34.806 18.5493 35.0989C18.5284 35.9376 18.7991 36.3091 19.2109 36.6089C19.6228 36.9087 20.0596 37.0522 20.8496 36.7733C21.1281 36.6826 21.35 36.6527 21.5887 36.6747C21.8225 36.6966 22.0763 36.7683 22.4344 36.8838C22.6603 36.9575 22.8861 36.9805 23.107 36.9506C23.3258 36.9217 23.5328 36.841 23.7049 36.7165C23.8054 36.6438 23.8959 36.5541 23.9726 36.4505C24.0492 36.5541 24.1387 36.6438 24.2402 36.7165C24.4113 36.842 24.6182 36.9227 24.8381 36.9506C25.059 36.9795 25.2848 36.9575 25.5107 36.8838C25.8688 36.7683 26.1225 36.6966 26.3563 36.6747C26.5951 36.6527 26.8169 36.6816 27.0955 36.7733C27.8865 37.0522 28.3232 36.9087 28.7351 36.6089C29.147 36.3091 29.4176 35.9376 29.3967 35.0989C29.3967 34.806 29.4375 34.5859 29.532 34.3647C29.6256 34.1496 29.7718 33.9305 29.9927 33.6257C30.132 33.4334 30.2235 33.2252 30.2643 33.0061C30.3051 32.7889 30.2921 32.5668 30.2255 32.3636C30.1877 32.2451 30.131 32.1326 30.0554 32.027C30.1777 31.9861 30.2912 31.9284 30.3916 31.8546C30.5628 31.7301 30.7041 31.5568 30.7996 31.3586C30.8941 31.1564 30.9428 30.9343 30.9428 30.6972C30.9438 30.3207 30.9538 30.0567 31.0055 29.8266C31.0582 29.5925 31.1547 29.3903 31.3269 29.1533C31.8362 28.4869 31.8352 28.0267 31.6781 27.5416C31.5796 27.2378 31.4373 26.9798 31.1488 26.7697C31.1517 26.7687 31.1537 26.7687 31.1537 26.7687C31.4035 26.67 31.5935 26.5595 31.6969 26.4778C32.0263 26.5416 32.3595 26.5336 32.6879 26.4559C33.1853 26.3354 33.6032 26.0664 33.8171 25.7328C34.7155 25.7417 35.3741 25.3612 35.8298 24.6161C37.4574 24.5066 38.121 23.625 38.3588 22.9308C40.7754 22.3341 40.8043 20.6448 40.7874 20.4177C40.8351 20.3858 40.9107 20.336 40.9107 20.336C41.9862 19.6138 42.1971 18.7472 42.1971 18.1645C42.1971 17.9892 42.1782 17.8199 42.1573 17.7113C43.3144 16.7302 43.0786 15.5638 42.9035 15.1305ZM20.952 20.3509C20.4834 20.3051 19.4915 20.1109 18.7264 19.2941C18.5513 19.1058 18.3434 18.9136 18.1524 18.7691C18.5115 18.8 20.5839 18.9863 21.3351 19.054C21.2276 19.4555 21.0953 19.8947 20.952 20.3509ZM29.2147 19.2951C28.4486 20.1109 27.4577 20.3061 26.9901 20.3519C26.8458 19.8947 26.7135 19.4565 26.6051 19.055C27.3562 18.9883 29.4296 18.802 29.7887 18.7701C29.5977 18.9146 29.3898 19.1068 29.2147 19.2951Z" fill="#AD7207"/>
<path d="M26.0783 29.6273C25.3799 29.1602 24.4358 29.3494 23.9702 30.0497C23.5045 30.7499 22.5604 30.9382 21.861 30.472C21.1616 30.0059 20.9735 29.0606 21.4391 28.3604C21.1158 28.8434 20.9277 29.4241 20.9277 30.0497C20.9277 31.7311 22.2888 33.0947 23.9692 33.0947C25.0237 33.0947 25.955 32.5558 26.4992 31.739C26.9658 31.0388 26.7778 30.0925 26.0783 29.6273Z" fill="#00479D"/>
<path d="M23.9706 27.0037C22.9151 27.0037 21.9848 27.5425 21.4396 28.3593C20.973 29.0596 21.162 30.0048 21.8615 30.471C22.5609 30.9372 23.504 30.7489 23.9706 30.0486C24.4363 29.3484 25.3804 29.1592 26.0788 29.6263C26.7782 30.0925 26.9663 31.0378 26.5007 31.738C26.823 31.2549 27.0121 30.6742 27.0121 30.0486C27.0121 28.3673 25.651 27.0037 23.9706 27.0037Z" fill="#E60020"/>
<path d="M23.3394 39.8849C23.3454 39.7653 23.2538 39.6627 23.1345 39.6568C23.0151 39.6508 22.9126 39.7425 22.9066 39.862C22.8997 39.9825 22.9912 40.0841 23.1116 40.0901C23.231 40.0961 23.3324 40.0044 23.3394 39.8849Z" fill="#AD7207"/>
<path d="M22.4934 39.8283C22.5064 39.7087 22.4198 39.6021 22.3004 39.5892C22.181 39.5762 22.0746 39.6629 22.0617 39.7824C22.0497 39.9019 22.1353 40.0085 22.2547 40.0215C22.3731 40.0334 22.4795 39.9468 22.4934 39.8283Z" fill="#AD7207"/>
<path d="M21.6503 39.7266C21.6692 39.6081 21.5886 39.4975 21.4702 39.4776C21.3528 39.4587 21.2404 39.5394 21.2215 39.6579C21.2026 39.7764 21.2832 39.888 21.4016 39.9069C21.52 39.9258 21.6314 39.8462 21.6503 39.7266Z" fill="#AD7207"/>
<path d="M20.8157 39.5802C20.8415 39.4637 20.7669 39.3481 20.6495 39.3222C20.5321 39.2973 20.4167 39.371 20.3918 39.4886C20.366 39.6051 20.4406 39.7207 20.558 39.7466C20.6744 39.7715 20.7898 39.6977 20.8157 39.5802Z" fill="#AD7207"/>
<path d="M19.9907 39.3898C20.0226 39.2743 19.9549 39.1547 19.8385 39.1229C19.7231 39.091 19.6047 39.1587 19.5719 39.2752C19.5411 39.3898 19.6087 39.5093 19.7241 39.5412C19.8405 39.5731 19.9589 39.5054 19.9907 39.3898Z" fill="#AD7207"/>
<path d="M19.1744 39.1547C19.2123 39.0411 19.1506 38.9186 19.0372 38.8798C18.9237 38.8419 18.8004 38.9037 18.7636 39.0182C18.7248 39.1318 18.7864 39.2543 18.9009 39.2922C19.0143 39.33 19.1366 39.2683 19.1744 39.1547Z" fill="#AD7207"/>
<path d="M18.3741 38.8768C18.4169 38.7652 18.3632 38.6387 18.2517 38.5959C18.1403 38.5521 18.0139 38.6069 17.9702 38.7184C17.9264 38.83 17.9811 38.9555 18.0935 39.0003C18.2049 39.0441 18.3303 38.9884 18.3741 38.8768Z" fill="#AD7207"/>
<path d="M17.5885 38.5562C17.6382 38.4476 17.5905 38.3181 17.481 38.2683C17.3716 38.2185 17.2432 38.2673 17.1935 38.3759C17.1438 38.4845 17.1915 38.614 17.301 38.6638C17.4114 38.7146 17.5397 38.6658 17.5885 38.5562Z" fill="#AD7207"/>
<path d="M16.8214 38.1945C16.8761 38.0879 16.8353 37.9574 16.7289 37.9016C16.6234 37.8458 16.4921 37.8867 16.4364 37.9943C16.3817 38.0999 16.4225 38.2313 16.5279 38.2861C16.6344 38.3419 16.7667 38.3011 16.8214 38.1945Z" fill="#AD7207"/>
<path d="M16.0741 37.7921C16.1358 37.6885 16.101 37.556 15.9975 37.4953C15.894 37.4345 15.7617 37.4684 15.7 37.571C15.6393 37.6736 15.6732 37.807 15.7767 37.8688C15.8801 37.9296 16.0134 37.8957 16.0741 37.7921Z" fill="#AD7207"/>
<path d="M15.3509 37.3509C15.4165 37.2513 15.3897 37.1168 15.2902 37.0501C15.1907 36.9834 15.0554 37.0112 14.9897 37.1099C14.9231 37.2105 14.9499 37.3449 15.0504 37.4117C15.1489 37.4774 15.2842 37.4515 15.3509 37.3509Z" fill="#AD7207"/>
<path d="M14.651 36.8718C14.7227 36.7762 14.7028 36.6398 14.6063 36.5681C14.5098 36.4963 14.3744 36.5153 14.3028 36.6119C14.2312 36.7075 14.2511 36.843 14.3466 36.9157C14.4431 36.9874 14.5794 36.9685 14.651 36.8718Z" fill="#AD7207"/>
<path d="M13.978 36.356C14.0546 36.2633 14.0417 36.1269 13.9501 36.0502C13.8576 35.9735 13.7213 35.9855 13.6437 36.0781C13.5671 36.1707 13.58 36.3072 13.6726 36.3839C13.7651 36.4606 13.9004 36.4466 13.978 36.356Z" fill="#AD7207"/>
<path d="M13.3346 35.803C13.4162 35.7163 13.4112 35.5778 13.3226 35.4962C13.2351 35.4145 13.0978 35.4205 13.0162 35.5081C12.9356 35.5968 12.9406 35.7332 13.0282 35.8149C13.1157 35.8966 13.254 35.8916 13.3346 35.803Z" fill="#AD7207"/>
<path d="M12.7199 35.2182C12.8055 35.1356 12.8075 34.9981 12.7249 34.9115C12.6414 34.8258 12.5031 34.8238 12.4175 34.9075C12.332 34.9911 12.329 35.1286 12.4125 35.2153C12.4971 35.2999 12.6334 35.3009 12.7199 35.2182Z" fill="#AD7207"/>
<path d="M12.1388 34.6007C12.2293 34.521 12.2392 34.3846 12.1596 34.294C12.081 34.2033 11.9438 34.1943 11.8542 34.273C11.7637 34.3517 11.7537 34.4892 11.8323 34.5788C11.9109 34.6704 12.0482 34.6794 12.1388 34.6007Z" fill="#AD7207"/>
<path d="M11.5905 33.9532C11.685 33.8795 11.7009 33.743 11.6283 33.6484C11.5547 33.5538 11.4184 33.5369 11.3238 33.6106C11.2293 33.6843 11.2124 33.8207 11.286 33.9154C11.3597 34.01 11.495 34.0269 11.5905 33.9532Z" fill="#AD7207"/>
<path d="M11.076 33.2779C11.1745 33.2092 11.1984 33.0748 11.1297 32.9751C11.0611 32.8765 10.9248 32.8536 10.8273 32.9213C10.7288 32.9901 10.7049 33.1255 10.7735 33.2232C10.8422 33.3228 10.9775 33.3467 11.076 33.2779Z" fill="#AD7207"/>
<path d="M10.6004 32.5748C10.7029 32.512 10.7338 32.3786 10.6701 32.276C10.6064 32.1744 10.4731 32.1425 10.3716 32.2062C10.2701 32.27 10.2393 32.4035 10.302 32.5051C10.3656 32.6077 10.499 32.6385 10.6004 32.5748Z" fill="#AD7207"/>
<path d="M10.1623 31.8487C10.2668 31.7909 10.3056 31.6584 10.2479 31.5538C10.1902 31.4482 10.0578 31.4104 9.95338 31.4682C9.84892 31.5259 9.81109 31.6574 9.86879 31.762C9.9255 31.8686 10.0578 31.9064 10.1623 31.8487Z" fill="#AD7207"/>
<path d="M9.76396 31.0995C9.87141 31.0477 9.91717 30.9172 9.86543 30.8086C9.8127 30.7011 9.68438 30.6563 9.57593 30.7081C9.46848 30.7599 9.4227 30.8903 9.47443 30.9979C9.52617 31.1065 9.65552 31.1523 9.76396 31.0995Z" fill="#AD7207"/>
<path d="M9.40564 30.3305C9.51608 30.2837 9.56782 30.1562 9.52205 30.0466C9.47629 29.9351 9.34894 29.8833 9.2385 29.9301C9.12807 29.9749 9.07636 30.1024 9.12212 30.214C9.16789 30.3235 9.29521 30.3763 9.40564 30.3305Z" fill="#AD7207"/>
<path d="M9.08936 29.5427C9.20178 29.5028 9.2605 29.3783 9.2207 29.2648C9.17991 29.1522 9.05652 29.0935 8.9431 29.1333C8.82968 29.1732 8.771 29.2977 8.81179 29.4112C8.85258 29.5238 8.97693 29.5825 9.08936 29.5427Z" fill="#AD7207"/>
<path d="M8.81366 28.7389C8.92907 28.7051 8.99374 28.5845 8.95992 28.469C8.92609 28.3535 8.80571 28.2877 8.6903 28.3226C8.57589 28.3564 8.51022 28.478 8.54405 28.5925C8.57788 28.7081 8.69825 28.7738 8.81366 28.7389Z" fill="#AD7207"/>
<path d="M8.58313 27.922C8.69953 27.8941 8.77118 27.7765 8.74432 27.66C8.71647 27.5444 8.59906 27.4717 8.48166 27.4996C8.36526 27.5275 8.29462 27.645 8.32247 27.7616C8.34934 27.8781 8.46673 27.9499 8.58313 27.922Z" fill="#AD7207"/>
<path d="M8.39699 27.0943C8.51538 27.0724 8.59297 26.9588 8.57108 26.8413C8.5492 26.7238 8.43578 26.6461 8.31838 26.668C8.20098 26.6889 8.1224 26.8025 8.14429 26.92C8.16617 27.0385 8.27959 27.1162 8.39699 27.0943Z" fill="#AD7207"/>
<path d="M8.25228 26.2576C8.37167 26.2427 8.45524 26.1332 8.44031 26.0146C8.42439 25.8961 8.31496 25.8114 8.19657 25.8274C8.07817 25.8433 7.99461 25.9519 8.00954 26.0714C8.02546 26.1899 8.13389 26.2726 8.25228 26.2576Z" fill="#AD7207"/>
<path d="M8.15626 25.4139C8.27565 25.4049 8.36518 25.3003 8.35622 25.1818C8.34727 25.0623 8.2438 24.9726 8.12441 24.9816C8.00502 24.9905 7.91549 25.0951 7.92445 25.2147C7.9324 25.3342 8.03687 25.4239 8.15626 25.4139Z" fill="#AD7207"/>
<path d="M8.10178 24.5672C8.22216 24.5652 8.3167 24.4656 8.31471 24.3451C8.31172 24.2255 8.21321 24.1299 8.09282 24.1329C7.97244 24.1359 7.87794 24.2355 7.88093 24.355C7.88391 24.4745 7.98339 24.5702 8.10178 24.5672Z" fill="#AD7207"/>
<path d="M8.09381 23.7186C8.21419 23.7226 8.31468 23.628 8.31767 23.5084C8.32165 23.3879 8.22813 23.2883 8.10875 23.2843C7.98836 23.2803 7.88787 23.3749 7.88489 23.4945C7.88091 23.614 7.97442 23.7146 8.09381 23.7186Z" fill="#AD7207"/>
<path d="M24.6019 39.8849C24.595 39.7653 24.6875 39.6627 24.8069 39.6568C24.9263 39.6508 25.0287 39.7425 25.0347 39.862C25.0407 39.9825 24.9502 40.0841 24.8298 40.0901C24.7114 40.0961 24.6089 40.0044 24.6019 39.8849Z" fill="#AD7207"/>
<path d="M25.4466 39.8283C25.4337 39.7087 25.5202 39.6021 25.6396 39.5892C25.759 39.5762 25.8664 39.6629 25.8784 39.7824C25.8903 39.9019 25.8048 40.0085 25.6864 40.0215C25.567 40.0334 25.4605 39.9468 25.4466 39.8283Z" fill="#AD7207"/>
<path d="M26.2899 39.7266C26.271 39.6081 26.3515 39.4975 26.4699 39.4776C26.5873 39.4587 26.6988 39.5394 26.7187 39.6579C26.7376 39.7764 26.657 39.888 26.5386 39.9069C26.4202 39.9258 26.3088 39.8462 26.2899 39.7266Z" fill="#AD7207"/>
<path d="M27.1243 39.5802C27.0984 39.4637 27.173 39.3481 27.2904 39.3222C27.4078 39.2973 27.5232 39.371 27.5481 39.4886C27.574 39.6051 27.4993 39.7207 27.3819 39.7466C27.2655 39.7715 27.1501 39.6977 27.1243 39.5802Z" fill="#AD7207"/>
<path d="M27.9512 39.3888C27.9193 39.2733 27.988 39.1538 28.1034 39.1219C28.2178 39.09 28.3372 39.1578 28.37 39.2733C28.4018 39.3888 28.3332 39.5084 28.2178 39.5403C28.1014 39.5731 27.982 39.5054 27.9512 39.3888Z" fill="#AD7207"/>
<path d="M28.765 39.1547C28.7272 39.0411 28.7889 38.9186 28.9023 38.8808C29.0157 38.8429 29.1391 38.9047 29.1759 39.0192C29.2137 39.1328 29.152 39.2553 29.0376 39.2931C28.9252 39.33 28.8018 39.2682 28.765 39.1547Z" fill="#AD7207"/>
<path d="M29.5659 38.8768C29.5221 38.7642 29.5768 38.6387 29.6882 38.5959C29.7997 38.5521 29.926 38.6069 29.9698 38.7184C30.0136 38.83 29.9589 38.9555 29.8464 39.0003C29.735 39.0441 29.6096 38.9884 29.5659 38.8768Z" fill="#AD7207"/>
<path d="M30.3516 38.5562C30.3018 38.4476 30.3506 38.3181 30.459 38.2683C30.5684 38.2185 30.6968 38.2673 30.7465 38.3759C30.7963 38.4855 30.7485 38.615 30.6391 38.6638C30.5296 38.7146 30.4013 38.6658 30.3516 38.5562Z" fill="#AD7207"/>
<path d="M31.118 38.1945C31.0633 38.0879 31.1041 37.9574 31.2106 37.9016C31.316 37.8458 31.4473 37.8867 31.5021 37.9943C31.5578 38.0999 31.517 38.2313 31.4105 38.2861C31.3051 38.3419 31.1737 38.3011 31.118 38.1945Z" fill="#AD7207"/>
<path d="M31.8661 37.7921C31.8054 37.6885 31.8392 37.556 31.9417 37.4953C32.0452 37.4345 32.1775 37.4684 32.2382 37.571C32.2999 37.6736 32.266 37.807 32.1626 37.8688C32.0601 37.9296 31.9268 37.8957 31.8661 37.7921Z" fill="#AD7207"/>
<path d="M32.5886 37.3509C32.523 37.2513 32.5498 37.1169 32.6493 37.0501C32.7488 36.9834 32.8841 37.0103 32.9508 37.1099C33.0164 37.2095 32.9896 37.3439 32.8901 37.4117C32.7906 37.4774 32.6553 37.4515 32.5886 37.3509Z" fill="#AD7207"/>
<path d="M33.2888 36.8708C33.2172 36.7751 33.2381 36.6387 33.3336 36.567C33.4301 36.4952 33.5654 36.5152 33.637 36.6118C33.7086 36.7074 33.6887 36.8429 33.5932 36.9156C33.4977 36.9873 33.3614 36.9674 33.2888 36.8708Z" fill="#AD7207"/>
<path d="M33.9622 36.356C33.8855 36.2634 33.8985 36.1269 33.99 36.0492C34.0825 35.9725 34.2188 35.9845 34.2954 36.0771C34.373 36.1687 34.3591 36.3062 34.2676 36.3829C34.1761 36.4606 34.0398 36.4466 33.9622 36.356Z" fill="#AD7207"/>
<path d="M34.6068 35.803C34.5252 35.7153 34.5302 35.5778 34.6187 35.4962C34.7063 35.4145 34.8446 35.4205 34.9262 35.5081C35.0068 35.5958 35.0018 35.7332 34.9142 35.8149C34.8257 35.8966 34.6874 35.8916 34.6068 35.803Z" fill="#AD7207"/>
<path d="M35.2226 35.2184C35.136 35.1357 35.134 34.9983 35.2176 34.9116C35.3002 34.8259 35.4385 34.8239 35.524 34.9066C35.6106 34.9903 35.6126 35.1277 35.529 35.2144C35.4454 35.2991 35.3081 35.301 35.2226 35.2184Z" fill="#AD7207"/>
<path d="M35.8034 34.6007C35.7129 34.522 35.703 34.3846 35.7816 34.2949C35.8602 34.2043 35.9974 34.1953 36.087 34.274C36.1775 34.3527 36.1875 34.4892 36.1079 34.5798C36.0303 34.6694 35.893 34.6794 35.8034 34.6007Z" fill="#AD7207"/>
<path d="M36.3512 33.9522C36.2567 33.8785 36.2398 33.743 36.3134 33.6484C36.387 33.5538 36.5233 33.5369 36.6178 33.6106C36.7114 33.6843 36.7283 33.8207 36.6546 33.9154C36.581 34.01 36.4457 34.0269 36.3512 33.9522Z" fill="#AD7207"/>
<path d="M36.8642 33.2769C36.7657 33.2082 36.7428 33.0737 36.8095 32.9751C36.8781 32.8765 37.0144 32.8526 37.1119 32.9213C37.2104 32.99 37.2343 33.1245 37.1656 33.2231C37.098 33.3227 36.9627 33.3466 36.8642 33.2769Z" fill="#AD7207"/>
<path d="M37.3408 32.5748C37.2393 32.512 37.2075 32.3776 37.2711 32.276C37.3348 32.1744 37.4682 32.1435 37.5696 32.2073C37.6711 32.27 37.702 32.4045 37.6393 32.5061C37.5766 32.6067 37.4433 32.6385 37.3408 32.5748Z" fill="#AD7207"/>
<path d="M37.778 31.8486C37.6736 31.7909 37.6348 31.6594 37.6935 31.5538C37.7512 31.4492 37.8825 31.4104 37.9879 31.4691C38.0914 31.5269 38.1312 31.6584 38.0735 31.763C38.0148 31.8676 37.8835 31.9064 37.778 31.8486Z" fill="#AD7207"/>
<path d="M38.1776 31.0985C38.0692 31.0467 38.0244 30.9162 38.0762 30.8086C38.1289 30.701 38.2572 30.6552 38.3657 30.708C38.4731 30.7598 38.5189 30.8903 38.4672 30.9978C38.4154 31.1054 38.2861 31.1503 38.1776 31.0985Z" fill="#AD7207"/>
<path d="M38.5354 30.3295C38.425 30.2837 38.3732 30.1562 38.419 30.0456C38.4658 29.9341 38.5921 29.8823 38.7035 29.9291C38.814 29.9749 38.8657 30.1024 38.8189 30.213C38.7732 30.3235 38.6458 30.3753 38.5354 30.3295Z" fill="#AD7207"/>
<path d="M38.8523 29.5427C38.7399 29.5028 38.6812 29.3783 38.722 29.2648C38.7617 29.1522 38.8861 29.0935 38.9985 29.1333C39.112 29.1742 39.1707 29.2977 39.1309 29.4112C39.0901 29.5238 38.9657 29.5825 38.8523 29.5427Z" fill="#AD7207"/>
<path d="M39.1258 28.7388C39.0114 28.7049 38.9458 28.5844 38.9796 28.4699C39.0134 28.3543 39.1348 28.2896 39.2492 28.3234C39.3636 28.3573 39.4293 28.4778 39.3945 28.5934C39.3616 28.7069 39.2413 28.7737 39.1258 28.7388Z" fill="#AD7207"/>
<path d="M39.3585 27.922C39.2421 27.8941 39.1695 27.7766 39.1974 27.66C39.2252 27.5435 39.3426 27.4718 39.46 27.4997C39.5754 27.5276 39.6481 27.6451 39.6192 27.7616C39.5923 27.8782 39.475 27.9499 39.3585 27.922Z" fill="#AD7207"/>
<path d="M39.5447 27.0943C39.4273 27.0734 39.3497 26.9588 39.3706 26.8413C39.3925 26.7237 39.5059 26.6461 39.6233 26.667C39.7407 26.6889 39.8183 26.8024 39.7974 26.92C39.7755 27.0385 39.6611 27.1162 39.5447 27.0943Z" fill="#AD7207"/>
<path d="M39.6871 26.2567C39.5677 26.2418 39.4841 26.1322 39.5 26.0136C39.5149 25.8951 39.6244 25.8105 39.7428 25.8264C39.8622 25.8413 39.9457 25.9509 39.9308 26.0694C39.9149 26.189 39.8064 26.2726 39.6871 26.2567Z" fill="#AD7207"/>
<path d="M39.7865 25.4139C39.6671 25.4049 39.5776 25.3013 39.5866 25.1818C39.5955 25.0623 39.7 24.9726 39.8193 24.9816C39.9387 24.9905 40.0283 25.0951 40.0203 25.2137C40.0094 25.3342 39.9059 25.4229 39.7865 25.4139Z" fill="#AD7207"/>
<path d="M39.8389 24.5672C39.7196 24.5652 39.624 24.4646 39.627 24.3451C39.629 24.2255 39.7295 24.1299 39.8489 24.1329C39.9693 24.1349 40.0628 24.2355 40.0608 24.355C40.0578 24.4745 39.9583 24.5692 39.8389 24.5672Z" fill="#AD7207"/>
<path d="M39.847 23.7186C39.7266 23.7226 39.6271 23.628 39.6232 23.5084C39.6192 23.3879 39.7137 23.2883 39.8331 23.2843C39.9535 23.2803 40.053 23.3739 40.0559 23.4935C40.0599 23.614 39.9664 23.7146 39.847 23.7186Z" fill="#AD7207"/>
<path d="M23.3286 8.11715C23.3346 8.23668 23.243 8.33929 23.1236 8.34626C23.0032 8.35224 22.9008 8.26061 22.8948 8.14108C22.8888 8.02055 22.9804 7.91895 23.0998 7.91297C23.2201 7.906 23.3216 7.99762 23.3286 8.11715Z" fill="#AD7207"/>
<path d="M23.7539 39.8959C23.7539 39.7753 23.8514 39.6787 23.9708 39.6787C24.0902 39.6787 24.1877 39.7753 24.1877 39.8959C24.1877 40.0154 24.0902 40.112 23.9708 40.112C23.8504 40.113 23.7539 40.0154 23.7539 39.8959Z" fill="#AD7207"/>
<path d="M24.1877 8.10507C24.1877 8.2246 24.0902 8.32223 23.9708 8.32223C23.8504 8.32223 23.7539 8.2246 23.7539 8.10507C23.7539 7.98554 23.8514 7.88794 23.9708 7.88794C24.0902 7.88794 24.1877 7.98554 24.1877 8.10507Z" fill="#AD7207"/>
<path d="M22.4702 8.17465C22.4831 8.29418 22.3975 8.40076 22.2782 8.41471C22.1588 8.42666 22.0513 8.341 22.0384 8.22247C22.0255 8.10294 22.112 7.99637 22.2304 7.98342C22.3508 7.96948 22.4573 8.05513 22.4702 8.17465Z" fill="#AD7207"/>
<path d="M21.6183 8.27951C21.6382 8.39804 21.5566 8.50861 21.4392 8.52853C21.3209 8.54845 21.2094 8.46775 21.1905 8.34921C21.1706 8.23068 21.2512 8.11913 21.3696 8.1012C21.488 8.08127 21.5994 8.16098 21.6183 8.27951Z" fill="#AD7207"/>
<path d="M20.7728 8.42874C20.7976 8.54628 20.725 8.66184 20.6066 8.68773C20.4892 8.71363 20.3738 8.63991 20.3489 8.52237C20.3231 8.40483 20.3967 8.29027 20.5141 8.26338C20.6325 8.23848 20.7469 8.3122 20.7728 8.42874Z" fill="#AD7207"/>
<path d="M19.9375 8.62502C19.9693 8.74056 19.9016 8.86109 19.7862 8.89197C19.6708 8.92484 19.5514 8.85711 19.5196 8.74156C19.4877 8.62602 19.5554 8.50648 19.6708 8.47461C19.7852 8.44174 19.9046 8.50947 19.9375 8.62502Z" fill="#AD7207"/>
<path d="M19.1121 8.86621C19.1499 8.97976 19.0892 9.10228 18.9758 9.14113C18.8623 9.17997 18.739 9.11822 18.7012 9.00467C18.6624 8.89112 18.723 8.7676 18.8375 8.72975C18.9509 8.6919 19.0733 8.75265 19.1121 8.86621Z" fill="#AD7207"/>
<path d="M18.301 9.15205C18.3457 9.26361 18.291 9.39013 18.1796 9.43396C18.0691 9.47878 17.9428 9.424 17.898 9.31343C17.8543 9.20187 17.908 9.07637 18.0194 9.03055C18.1309 8.98573 18.2572 9.04049 18.301 9.15205Z" fill="#AD7207"/>
<path d="M17.5076 9.4807C17.5573 9.58927 17.5096 9.71777 17.4012 9.76857C17.2927 9.81837 17.1644 9.77057 17.1136 9.66199C17.0639 9.55442 17.1106 9.42493 17.2191 9.37413C17.3285 9.32432 17.4579 9.37113 17.5076 9.4807Z" fill="#AD7207"/>
<path d="M16.7318 9.85122C16.7886 9.9578 16.7478 10.0883 16.6423 10.144C16.5359 10.2008 16.4055 10.16 16.3498 10.0534C16.2931 9.94781 16.3339 9.81635 16.4403 9.76057C16.5448 9.70479 16.6761 9.74564 16.7318 9.85122Z" fill="#AD7207"/>
<path d="M15.9803 10.2636C16.042 10.3662 16.0082 10.4997 15.9067 10.5614C15.8032 10.6232 15.6699 10.5893 15.6092 10.4867C15.5475 10.3841 15.5804 10.2506 15.6838 10.1889C15.7853 10.1281 15.9176 10.161 15.9803 10.2636Z" fill="#AD7207"/>
<path d="M15.2477 10.7169C15.3153 10.8165 15.2894 10.9509 15.19 11.0177C15.0905 11.0854 14.9552 11.0595 14.8885 10.9599C14.8219 10.8603 14.8477 10.7258 14.9472 10.6581C15.0467 10.5914 15.181 10.6172 15.2477 10.7169Z" fill="#AD7207"/>
<path d="M14.5437 11.2089C14.6163 11.3045 14.5974 11.441 14.5019 11.5137C14.4064 11.5854 14.2701 11.5675 14.1985 11.4719C14.1259 11.3763 14.1448 11.2398 14.2403 11.1681C14.3358 11.0944 14.4721 11.1133 14.5437 11.2089Z" fill="#AD7207"/>
<path d="M13.8656 11.7378C13.9432 11.8294 13.9323 11.9669 13.8408 12.0436C13.7492 12.1223 13.6129 12.1103 13.5353 12.0197C13.4587 11.928 13.4697 11.7906 13.5602 11.7129C13.6517 11.6352 13.789 11.6462 13.8656 11.7378Z" fill="#AD7207"/>
<path d="M13.2185 12.3024C13.3001 12.3891 13.2971 12.5275 13.2106 12.6092C13.123 12.6919 12.9858 12.6879 12.9032 12.6013C12.8206 12.5146 12.8246 12.3771 12.9121 12.2944C12.9987 12.2118 13.136 12.2158 13.2185 12.3024Z" fill="#AD7207"/>
<path d="M12.6032 12.9022C12.6897 12.9849 12.6937 13.1224 12.6111 13.209C12.5285 13.2957 12.3912 13.3007 12.3047 13.218C12.2171 13.1353 12.2132 12.9979 12.2958 12.9102C12.3783 12.8226 12.5166 12.8196 12.6032 12.9022Z" fill="#AD7207"/>
<path d="M12.0203 13.5338C12.1108 13.6115 12.1227 13.748 12.0451 13.8396C11.9665 13.9312 11.8302 13.9422 11.7387 13.8635C11.6471 13.7858 11.6362 13.6493 11.7138 13.5577C11.7914 13.467 11.9287 13.4561 12.0203 13.5338Z" fill="#AD7207"/>
<path d="M11.473 14.196C11.5685 14.2687 11.5874 14.4052 11.5148 14.4998C11.4422 14.5954 11.3059 14.6133 11.2104 14.5406C11.1149 14.4679 11.0969 14.3324 11.1696 14.2368C11.2412 14.1412 11.3775 14.1233 11.473 14.196Z" fill="#AD7207"/>
<path d="M10.9612 14.8864C11.0607 14.9541 11.0856 15.0896 11.0189 15.1892C10.9513 15.2878 10.8169 15.3147 10.7184 15.2469C10.619 15.1792 10.5931 15.0437 10.6608 14.9451C10.7274 14.8455 10.8617 14.8196 10.9612 14.8864Z" fill="#AD7207"/>
<path d="M10.4868 15.6056C10.5893 15.6673 10.6231 15.8008 10.5614 15.9034C10.4998 16.006 10.3664 16.0389 10.2629 15.9771C10.1605 15.9154 10.1276 15.7819 10.1893 15.6793C10.251 15.5757 10.3843 15.5428 10.4868 15.6056Z" fill="#AD7207"/>
<path d="M24.6116 8.11715C24.6056 8.23668 24.6972 8.33929 24.8166 8.34626C24.937 8.35224 25.0384 8.26061 25.0454 8.14108C25.0523 8.02055 24.9598 7.91895 24.8404 7.91297C24.7201 7.906 24.6186 7.99762 24.6116 8.11715Z" fill="#AD7207"/>
<path d="M25.4681 8.17465C25.4551 8.29418 25.5417 8.40076 25.6601 8.41471C25.7795 8.42666 25.8859 8.341 25.8989 8.22247C25.9118 8.10294 25.8262 7.99637 25.7078 7.98342C25.5885 7.96948 25.482 8.05513 25.4681 8.17465Z" fill="#AD7207"/>
<path d="M26.3231 8.27951C26.3042 8.39904 26.3838 8.5096 26.5022 8.52853C26.6206 8.54746 26.732 8.46775 26.7509 8.34921C26.7708 8.23068 26.6902 8.11913 26.5718 8.1012C26.4544 8.08127 26.342 8.16098 26.3231 8.27951Z" fill="#AD7207"/>
<path d="M27.1673 8.42874C27.1414 8.54628 27.2151 8.66184 27.3325 8.68773C27.4489 8.71363 27.5643 8.63991 27.5911 8.52237C27.617 8.40483 27.5434 8.29027 27.426 8.26338C27.3076 8.23848 27.1922 8.3122 27.1673 8.42874Z" fill="#AD7207"/>
<path d="M28.004 8.62502C27.9721 8.74056 28.0398 8.86109 28.1552 8.89197C28.2706 8.92484 28.39 8.85711 28.4228 8.74156C28.4547 8.62602 28.387 8.50648 28.2716 8.47461C28.1562 8.44174 28.0368 8.50947 28.004 8.62502Z" fill="#AD7207"/>
<path d="M28.8281 8.86621C28.7893 8.97876 28.85 9.10228 28.9644 9.14113C29.0778 9.17997 29.2012 9.11822 29.239 9.00467C29.2778 8.89112 29.2161 8.7676 29.1027 8.72975C28.9893 8.6919 28.8659 8.75265 28.8281 8.86621Z" fill="#AD7207"/>
<path d="M29.6388 9.15205C29.594 9.26361 29.6478 9.39013 29.7602 9.43396C29.8706 9.47878 29.997 9.424 30.0417 9.31343C30.0855 9.20187 30.0308 9.07537 29.9204 9.03055C29.8089 8.98573 29.6826 9.04049 29.6388 9.15205Z" fill="#AD7207"/>
<path d="M30.4338 9.47972C30.384 9.58929 30.4318 9.71779 30.5392 9.76859C30.6477 9.81839 30.777 9.77158 30.8278 9.66202C30.8775 9.55444 30.8298 9.42495 30.7213 9.37415C30.6129 9.32434 30.4835 9.37115 30.4338 9.47972Z" fill="#AD7207"/>
<path d="M31.2092 9.85122C31.1525 9.95681 31.1933 10.0883 31.2987 10.144C31.4052 10.2008 31.5365 10.16 31.5923 10.0534C31.649 9.94781 31.6082 9.81635 31.5017 9.76057C31.3963 9.70479 31.2649 9.74564 31.2092 9.85122Z" fill="#AD7207"/>
<path d="M31.9625 10.2636C31.9008 10.3662 31.9346 10.4997 32.0371 10.5614C32.1396 10.6232 32.2729 10.5893 32.3346 10.4867C32.3963 10.3831 32.3624 10.2506 32.26 10.1889C32.1575 10.1281 32.0242 10.161 31.9625 10.2636Z" fill="#AD7207"/>
<path d="M32.692 10.7169C32.6243 10.8165 32.6502 10.9509 32.7497 11.0177C32.8492 11.0854 32.9835 11.0595 33.0512 10.9599C33.1178 10.8603 33.092 10.7258 32.9925 10.6581C32.894 10.5914 32.7597 10.6172 32.692 10.7169Z" fill="#AD7207"/>
<path d="M33.3981 11.2089C33.3245 11.3046 33.3444 11.44 33.4399 11.5137C33.5344 11.5855 33.6717 11.5675 33.7434 11.4719C33.815 11.3763 33.7971 11.2398 33.7016 11.1671C33.6061 11.0944 33.4698 11.1123 33.3981 11.2089Z" fill="#AD7207"/>
<path d="M34.0732 11.7377C33.9956 11.8294 34.0065 11.9658 34.0981 12.0435C34.1886 12.1212 34.3259 12.1093 34.4045 12.0186C34.4811 11.927 34.4702 11.7905 34.3786 11.7128C34.2881 11.6341 34.1508 11.6461 34.0732 11.7377Z" fill="#AD7207"/>
<path d="M34.7216 12.3025C34.6391 12.3891 34.643 12.5276 34.7296 12.6092C34.8171 12.6919 34.9544 12.6879 35.037 12.6013C35.1196 12.5146 35.1156 12.3771 35.0281 12.2945C34.9415 12.2108 34.8042 12.2148 34.7216 12.3025Z" fill="#AD7207"/>
<path d="M35.3366 12.9013C35.2501 12.9839 35.2471 13.1214 35.3287 13.2081C35.4112 13.2947 35.5476 13.2997 35.6351 13.216C35.7217 13.1333 35.7256 12.9959 35.6431 12.9092C35.5615 12.8226 35.4242 12.8196 35.3366 12.9013Z" fill="#AD7207"/>
<path d="M35.92 13.5326C35.8295 13.6103 35.8175 13.7478 35.8951 13.8384C35.9727 13.9291 36.11 13.94 36.2016 13.8633C36.2921 13.7856 36.304 13.6482 36.2264 13.5575C36.1488 13.4669 36.0115 13.4549 35.92 13.5326Z" fill="#AD7207"/>
<path d="M36.4691 14.195C36.3726 14.2667 36.3547 14.4042 36.4273 14.4988C36.4999 14.5944 36.6362 14.6134 36.7318 14.5407C36.8263 14.4679 36.8452 14.3315 36.7726 14.2359C36.6989 14.1412 36.5636 14.1233 36.4691 14.195Z" fill="#AD7207"/>
<path d="M36.9797 14.8864C36.8802 14.9531 36.8554 15.0896 36.922 15.1882C36.9887 15.2868 37.124 15.3127 37.2225 15.2459C37.322 15.1792 37.3468 15.0427 37.2802 14.9451C37.2135 14.8455 37.0792 14.8196 36.9797 14.8864Z" fill="#AD7207"/>
<path d="M37.4531 15.6046C37.3507 15.6664 37.3168 15.7999 37.3785 15.9025C37.4402 16.0051 37.5735 16.0379 37.677 15.9762C37.7795 15.9144 37.8123 15.7799 37.7506 15.6783C37.6889 15.5757 37.5556 15.5429 37.4531 15.6046Z" fill="#AD7207"/>
<path d="M22.6914 13.8066H22.6924V13.8057L22.6914 13.8066Z" fill="#FDD000"/>
<path d="M22.6914 13.8066H22.6924V13.8057L22.6914 13.8066Z" fill="#FDD000"/>
<path d="M33.7063 21.6079H31.0996L31.1086 21.5909L32.402 18.781L33.7063 21.6079Z" fill="#FDD000"/>
<path d="M34.6912 20.1367C34.3032 20.2721 33.8883 20.3419 33.4754 20.3628L33.0605 19.4783C34.0246 19.3468 34.9379 19.1446 35.7935 18.8936C35.7557 19.1814 35.5687 19.8299 34.6912 20.1367Z" fill="#FDD000"/>
<path d="M34.9485 20.3589C34.8072 20.9356 34.4968 21.3261 34.0222 21.5263L33.6113 20.6488C34.0143 20.6209 34.4172 20.5502 34.7973 20.4177C34.85 20.3997 34.8997 20.3808 34.9485 20.3589Z" fill="#FDD000"/>
<path d="M28.1257 26.3482C28.1257 26.3074 28.1118 26.2706 28.084 26.2417C28.0561 26.2128 28.0203 26.1998 27.9805 26.1988C27.9636 26.1978 27.9476 26.2018 27.9327 26.2058C27.9108 26.2128 27.891 26.2237 27.875 26.2417L26.4533 27.693C26.3508 27.5844 26.2404 27.4828 26.125 27.3882L27.3985 25.6849C27.5795 25.4369 27.8442 25.2605 28.1198 25.2585C28.4183 25.2585 28.6869 25.388 28.8938 25.6679C29.1246 25.9877 29.3156 26.2277 29.5325 26.416C29.0739 26.7367 27.9347 27.5336 26.8911 28.2637C26.8085 28.1282 26.716 27.9978 26.6155 27.8762L28.083 26.4508C28.1118 26.4239 28.1267 26.3861 28.1257 26.3482Z" fill="#FDD000"/>
<path d="M26.3903 25.0413C26.3774 25.0045 26.3545 24.9746 26.3187 24.9566C26.2819 24.9387 26.2431 24.9377 26.2033 24.9497C26.1674 24.9596 26.1356 24.9865 26.1187 25.0224L25.2183 26.8591C25.072 26.8024 24.9208 26.7546 24.7656 26.7167C25.1367 25.4975 25.5416 24.1667 25.7038 23.6309C25.9495 23.7803 26.2361 23.8859 26.6121 24.0084C26.9415 24.1189 27.1474 24.3351 27.2399 24.619C27.3245 24.8829 27.2389 25.1887 27.0579 25.4367L25.8342 27.1769C25.7088 27.0952 25.5785 27.0215 25.4432 26.9568L26.3823 25.1559C26.3943 25.1349 26.3982 25.112 26.3982 25.0891C26.3982 25.0732 26.3973 25.0583 26.3903 25.0413Z" fill="#FDD000"/>
<path d="M21.5601 25.1559L22.4983 26.9568C22.364 27.0215 22.2327 27.0952 22.1083 27.1769L20.8846 25.4367C20.7045 25.1887 20.618 24.8819 20.7025 24.619C20.7951 24.3351 21.001 24.1189 21.3303 24.0084C21.7054 23.8859 21.9929 23.7813 22.2387 23.6309C22.4018 24.1667 22.8058 25.4985 23.1769 26.7167C23.0217 26.7546 22.8704 26.8024 22.7232 26.8591L21.8228 25.0224C21.8059 24.9865 21.7741 24.9596 21.7373 24.9497C21.6984 24.9377 21.6587 24.9387 21.6228 24.9566C21.587 24.9746 21.5631 25.0045 21.5512 25.0413C21.5452 25.0583 21.5432 25.0732 21.5432 25.0891C21.5442 25.112 21.5482 25.1349 21.5601 25.1559Z" fill="#FDD000"/>
<path d="M19.8597 26.4518L21.3272 27.8772C21.2267 27.9987 21.1352 28.1292 21.0516 28.2647C20.008 27.5346 18.8688 26.7367 18.4102 26.417C18.627 26.2287 18.8171 25.9886 19.0489 25.6689C19.2558 25.389 19.5244 25.2595 19.8229 25.2595C20.0995 25.2615 20.3641 25.4378 20.5452 25.6858L21.8187 27.3891C21.7033 27.4838 21.5919 27.5854 21.4904 27.6939L20.0686 26.2427C20.0527 26.2247 20.0328 26.2138 20.01 26.2068C19.994 26.2018 19.9791 26.1978 19.9622 26.1998C19.9224 26.2008 19.8866 26.2138 19.8597 26.2427C19.8309 26.2715 19.8179 26.3084 19.8169 26.3492C19.816 26.3861 19.8309 26.4239 19.8597 26.4518Z" fill="#FDD000"/>
<path d="M30.791 19.9326C31.0666 19.7523 31.3701 19.6407 31.6884 19.6108L31.4387 20.1398C31.186 20.075 30.9651 20.0033 30.791 19.9326Z" fill="#FDD000"/>
<path d="M31.3119 20.4037L30.9965 21.0731C30.6075 20.8779 30.2951 20.6826 30.125 20.5701C30.1399 20.5511 30.1558 20.5322 30.1708 20.5123C30.2802 20.3718 30.3996 20.2443 30.5259 20.1348C30.7189 20.2204 30.9906 20.3171 31.3119 20.4037Z" fill="#FDD000"/>
<path d="M29.8878 20.2949C29.3048 21.0769 28.3388 21.5938 27.4244 21.6835C27.323 21.3807 27.2235 21.0769 27.127 20.7771C27.6622 20.7193 28.6949 20.4902 29.5436 19.5838C30.0689 19.022 30.7524 18.5508 31.7344 18.5558C31.8856 18.5568 32.0368 18.5548 32.189 18.5488L31.8488 19.271C31.1822 19.274 30.442 19.5539 29.8878 20.2949Z" fill="#FDD000"/>
<path d="M27.9137 24.874C27.8559 24.884 27.7972 24.8969 27.7415 24.9159C27.7206 24.9228 27.7017 24.9308 27.6818 24.9378C27.6828 24.9169 27.6838 24.895 27.6838 24.874C27.6838 24.7485 27.6639 24.626 27.6261 24.5114C27.6231 24.5045 27.6211 24.4965 27.6191 24.4895C27.6729 24.4198 27.7296 24.3332 27.7803 24.2256C27.839 24.4607 27.8848 24.6788 27.9137 24.874Z" fill="#FDD000"/>
<path d="M27.5063 24.2524C27.3591 24.0123 27.1312 23.8201 26.8457 23.7026C26.8994 23.6637 27.2297 23.3858 27.3561 22.8091C27.4814 23.1946 27.5988 23.5651 27.6944 23.9068C27.6406 24.0462 27.572 24.1628 27.5063 24.2524Z" fill="#FDD000"/>
<path d="M26.3359 22.4228C26.4872 22.2724 26.7608 21.9248 26.8603 21.3341C26.8613 21.3321 26.8642 21.3291 26.8642 21.3291C26.9518 21.5961 27.0403 21.864 27.1299 22.1309L27.1349 22.1469C27.1637 22.2326 27.1926 22.3182 27.2204 22.4029C27.2025 22.9776 26.901 23.3531 26.7787 23.4338C26.6563 23.3531 26.3598 22.9866 26.3359 22.4228Z" fill="#FDD000"/>
<path d="M26.6246 23.626C26.351 23.5344 26.1401 23.4547 25.959 23.3551C26.0575 23.2475 26.156 23.0961 26.2236 22.8989C26.3251 23.2774 26.5132 23.5125 26.6246 23.626Z" fill="#FDD000"/>
<path d="M26.7823 21.072C26.7525 21.1049 26.7256 21.1298 26.7027 21.1447C26.5863 21.072 26.3097 20.7473 26.248 20.2383C26.2868 20.2054 26.3645 20.1337 26.447 20.0142C26.5525 20.3558 26.6649 20.7114 26.7823 21.072Z" fill="#FDD000"/>
<path d="M26.6481 21.4205C26.5207 21.8817 26.2799 22.1676 26.1735 22.2363C26.0571 22.1616 25.7845 21.8339 25.7148 21.305C25.8014 21.2283 26.0123 21.0131 26.1387 20.6306C26.2998 21.1705 26.6282 21.4095 26.6481 21.4205Z" fill="#FDD000"/>
<path d="M25.6153 21.0619C25.5049 20.9902 25.2512 20.6824 25.1875 20.2072C25.29 20.1106 25.5009 19.8746 25.6153 19.4722C25.7287 19.8746 25.9397 20.1116 26.0441 20.2072C25.9795 20.6824 25.7258 20.9902 25.6153 21.0619Z" fill="#FDD000"/>
<path d="M25.0684 19.9813C24.9599 19.9106 24.7102 19.6078 24.6426 19.1396C24.746 19.042 24.955 18.8059 25.0684 18.4055C25.1818 18.8059 25.3907 19.042 25.4952 19.1396C25.4275 19.6068 25.1778 19.9096 25.0684 19.9813Z" fill="#FDD000"/>
<path d="M24.9464 20.2072C24.8828 20.6824 24.6281 20.9912 24.5186 21.0619C24.4082 20.9902 24.1545 20.6824 24.0898 20.2072C24.1933 20.1106 24.4032 19.8746 24.5186 19.4722C24.6331 19.8746 24.843 20.1106 24.9464 20.2072Z" fill="#FDD000"/>
<path d="M23.9717 19.9813C23.8623 19.9106 23.6126 19.6078 23.5449 19.1396C23.6494 19.042 23.8573 18.8059 23.9717 18.4055C24.0851 18.8059 24.2941 19.042 24.3975 19.1396C24.3309 19.6068 24.0812 19.9096 23.9717 19.9813Z" fill="#FDD000"/>
<path d="M23.8507 20.2072C23.7861 20.6824 23.5324 20.9912 23.4219 21.0619C23.3125 20.9902 23.0588 20.6824 22.9941 20.2072C23.0976 20.1106 23.3075 19.8746 23.4219 19.4722C23.5373 19.8746 23.7473 20.1106 23.8507 20.2072Z" fill="#FDD000"/>
<path d="M22.8741 19.9813C22.7647 19.9106 22.5149 19.6078 22.4473 19.1396C22.5517 19.042 22.7607 18.8059 22.8741 18.4055C22.9875 18.8059 23.1964 19.042 23.2999 19.1396C23.2332 19.6068 22.9835 19.9096 22.8741 19.9813Z" fill="#FDD000"/>
<path d="M22.7551 20.2072C22.6914 20.6824 22.4377 20.9912 22.3272 21.0619C22.2168 20.9902 21.9631 20.6824 21.8984 20.2072C22.0019 20.1106 22.2128 19.8746 22.3272 19.4722C22.4417 19.8746 22.6516 20.1106 22.7551 20.2072Z" fill="#FDD000"/>
<path d="M22.2272 21.3062C22.1565 21.8351 21.8849 22.1618 21.7685 22.2375C21.6611 22.1688 21.4203 21.8819 21.293 21.4217C21.3129 21.4098 21.6422 21.1707 21.8034 20.6328C21.9297 21.0143 22.1396 21.2295 22.2272 21.3062Z" fill="#FDD000"/>
<path d="M20.2631 24.9378C20.2432 24.9308 20.2233 24.9228 20.2034 24.9159C20.1467 24.8979 20.089 24.884 20.0312 24.874C20.0601 24.6788 20.1059 24.4607 20.1646 24.2256C20.2153 24.3332 20.272 24.4198 20.3257 24.4895C20.3237 24.4965 20.3208 24.5045 20.3188 24.5114C20.28 24.626 20.2601 24.7485 20.2601 24.874C20.2601 24.895 20.2621 24.9169 20.2631 24.9378Z" fill="#FDD000"/>
<path d="M20.248 23.9058C20.3436 23.5641 20.461 23.1936 20.5863 22.8081C20.7127 23.3848 21.043 23.6627 21.0957 23.7016C20.8112 23.8191 20.5823 24.0114 20.4361 24.2514C20.3704 24.1628 20.3018 24.0462 20.248 23.9058Z" fill="#FDD000"/>
<path d="M20.7207 22.4019C20.7486 22.3172 20.7774 22.2326 20.8053 22.1459L20.8112 22.13C20.8998 21.863 20.9883 21.5951 21.0759 21.3281C21.0759 21.3281 21.0789 21.3311 21.0799 21.3331C21.1793 21.9248 21.453 22.2714 21.6042 22.4218C21.5793 22.9846 21.2848 23.3522 21.1624 23.4309C21.0401 23.3522 20.7386 22.9766 20.7207 22.4019Z" fill="#FDD000"/>
<path d="M21.7183 22.8989C21.785 23.0961 21.8845 23.2475 21.982 23.3551C21.8009 23.4547 21.589 23.5344 21.3164 23.626C21.4288 23.5125 21.6169 23.2774 21.7183 22.8989Z" fill="#FDD000"/>
<path d="M21.2397 21.1447C21.2178 21.1298 21.191 21.1049 21.1602 21.072C21.2776 20.7124 21.3909 20.3568 21.4954 20.0151C21.577 20.1337 21.6556 20.2064 21.6944 20.2393C21.6327 20.7473 21.3561 21.072 21.2397 21.1447Z" fill="#FDD000"/>
<path d="M18.4003 19.5838C19.248 20.4902 20.2807 20.7203 20.816 20.7771C20.7195 21.0769 20.619 21.3807 20.5185 21.6835C19.6032 21.5939 18.6381 21.0779 18.0541 20.295C17.5 19.5539 16.7598 19.274 16.0942 19.27L15.7539 18.5479C15.9061 18.5538 16.0574 18.5568 16.2076 18.5548C17.1916 18.5508 17.875 19.022 18.4003 19.5838Z" fill="#FDD000"/>
<path d="M17.1533 19.9326C16.9782 20.0023 16.7573 20.075 16.5056 20.1398L16.2559 19.6108C16.5732 19.6407 16.8767 19.7533 17.1533 19.9326Z" fill="#FDD000"/>
<path d="M17.4159 20.1338C17.5422 20.2434 17.6616 20.3709 17.7711 20.5113C17.786 20.5312 17.8009 20.5501 17.8158 20.5691C17.6457 20.6826 17.3333 20.8768 16.9443 21.0721L16.6289 20.4027C16.9503 20.3171 17.2209 20.2204 17.4159 20.1338Z" fill="#FDD000"/>
<path d="M17.2178 21.6558L17.0696 21.3411C17.5034 21.1219 17.8396 20.9038 18.0058 20.7922C18.1331 20.9317 18.2655 21.0612 18.4037 21.1767C18.0675 21.5802 17.0039 22.7027 15.628 22.6848C14.844 22.6738 14.4391 22.2893 14.248 22.0064C14.5515 22.1618 15.0022 22.3212 15.5374 22.3212C16.4 22.3212 17.0198 21.9218 17.1939 21.7754C17.2517 21.7276 17.2348 21.6917 17.2178 21.6558Z" fill="#FDD000"/>
<path d="M18.634 21.355C18.7823 21.4606 18.9375 21.5552 19.0976 21.6359C18.9046 22.0014 18.1604 23.2465 16.9248 23.4547C16.1816 23.5792 15.8055 23.1977 15.6543 22.9816C17.1934 22.9866 18.2987 21.7733 18.634 21.355Z" fill="#FDD000"/>
<path d="M19.3586 21.7544C19.5318 21.8241 19.7128 21.8819 19.9018 21.9267C19.7626 22.3441 19.3596 23.3661 18.6433 23.7814C17.9737 24.1659 17.4743 23.895 17.2266 23.6888C18.4881 23.3432 19.1845 22.105 19.3586 21.7544Z" fill="#FDD000"/>
<path d="M18.7975 24.0303C19.6392 23.5482 20.0551 22.4067 20.1864 21.9844C20.259 21.9953 20.3327 22.0053 20.4073 22.0133C20.1804 22.6956 19.9606 23.355 19.8054 23.9327C19.3776 24.2853 18.8871 24.1847 18.6562 24.106C18.703 24.0831 18.7488 24.0582 18.7975 24.0303Z" fill="#FDD000"/>
<path d="M22.2091 23.2047C22.0529 23.0852 21.8778 22.8462 21.8301 22.5115C21.8609 22.4906 22.1693 22.2515 22.3305 21.7275C22.5016 22.2146 22.7951 22.4377 22.814 22.4497L22.8459 22.4726C22.7583 22.5663 22.6718 22.6748 22.5872 22.7993C22.4618 22.9717 22.3415 23.1001 22.2091 23.2047Z" fill="#FDD000"/>
<path d="M22.418 21.313C22.5045 21.2393 22.7483 20.9972 22.8736 20.552C22.999 20.9963 23.2437 21.2393 23.3303 21.313C23.2397 21.7921 22.9841 22.1019 22.8736 22.1736C22.7642 22.1029 22.5095 21.7931 22.418 21.313Z" fill="#FDD000"/>
<path d="M23.4494 21.6348C23.509 21.7882 23.5807 21.9127 23.6493 22.0113C23.5319 22.0312 23.4066 22.0691 23.2802 22.1338C23.2454 22.1517 23.2116 22.1707 23.1777 22.1926C23.2732 22.0611 23.3767 21.8768 23.4494 21.6348Z" fill="#FDD000"/>
<path d="M23.543 21.2883C23.6464 21.1917 23.8564 20.9556 23.9708 20.5532C24.0842 20.9556 24.2951 21.1917 24.3986 21.2883C24.305 21.6429 24.125 21.889 24.0146 21.9876C23.9996 21.9876 23.9857 21.9876 23.9718 21.9876C23.9568 21.9876 23.9429 21.9876 23.928 21.9876C23.8166 21.888 23.6375 21.6429 23.543 21.2883Z" fill="#FDD000"/>
<path d="M24.4939 21.6348C24.5666 21.8768 24.67 22.0611 24.7656 22.1926C24.7317 22.1707 24.6979 22.1517 24.6631 22.1338C24.5367 22.0691 24.4114 22.0312 24.293 22.0113C24.3626 21.9137 24.4332 21.7892 24.4939 21.6348Z" fill="#FDD000"/>
<path d="M24.6113 21.313C24.6979 21.2393 24.9416 20.9972 25.068 20.552C25.1943 20.9963 25.4381 21.2393 25.5246 21.313C25.4341 21.7921 25.1794 22.1019 25.068 22.1736C24.9575 22.1029 24.7019 21.7931 24.6113 21.313Z" fill="#FDD000"/>
<path d="M25.1275 22.4507C25.1454 22.4387 25.4389 22.2156 25.611 21.7285C25.7722 22.2525 26.0807 22.4915 26.1115 22.5124C26.0647 22.8471 25.8876 23.0872 25.7324 23.2057C25.6001 23.1011 25.4797 22.9716 25.3544 22.8003C25.2698 22.6758 25.1833 22.5682 25.0957 22.4736L25.1275 22.4507Z" fill="#FDD000"/>
<path d="M27.5332 22.0133C27.6078 22.0053 27.6815 21.9953 27.7541 21.9844C27.8844 22.4057 28.3023 23.5482 29.142 24.0303C29.1897 24.0582 29.2365 24.0831 29.2842 24.106C29.0524 24.1847 28.5619 24.2853 28.1351 23.9327C27.9789 23.355 27.759 22.6956 27.5332 22.0133Z" fill="#FDD000"/>
<path d="M28.041 21.9267C28.23 21.8829 28.4121 21.8241 28.5842 21.7544C28.7583 22.105 29.4538 23.3432 30.7163 23.6888C30.4696 23.895 29.9701 24.1649 29.3006 23.7814C28.5832 23.3661 28.1803 22.3441 28.041 21.9267Z" fill="#FDD000"/>
<path d="M28.8457 21.6359C29.0059 21.5542 29.1611 21.4606 29.3084 21.355C29.6446 21.7733 30.75 22.9875 32.2881 22.9816C32.1379 23.1977 31.7608 23.5792 31.0186 23.4547C29.7829 23.2455 29.0387 22.0014 28.8457 21.6359Z" fill="#FDD000"/>
<path d="M29.5371 21.1767C29.6754 21.0602 29.8087 20.9317 29.9361 20.7922C30.1012 20.9048 30.4385 21.1219 30.8723 21.3411L30.724 21.6558C30.7071 21.6927 30.6912 21.7276 30.7469 21.7754C30.922 21.9218 31.5418 22.3212 32.4034 22.3212C32.9387 22.3212 33.3904 22.1618 33.6938 22.0064C33.5018 22.2883 33.0979 22.6738 32.3129 22.6848C30.9369 22.7027 29.8744 21.5802 29.5371 21.1767Z" fill="#FDD000"/>
<path d="M32.2064 17.9453V18.1416C32.2064 18.1416 27.6676 18.5111 26.4946 18.6127C26.4449 18.3995 26.4041 18.2023 26.3752 18.024V18.023V18.022L26.3743 18.021C26.3703 17.9961 26.3663 17.9712 26.3613 17.9463H32.2064V17.9453Z" fill="#FDD000"/>
<path d="M26.367 19.7452C26.2934 19.8677 26.2148 19.9484 26.1641 19.9802C26.0547 19.9095 25.8049 19.6067 25.7383 19.1376C25.8209 19.0589 25.9671 18.8915 26.0676 18.6206C26.1452 18.9623 26.2477 19.3418 26.367 19.7452Z" fill="#FDD000"/>
<path d="M21.6018 16.02H21.5998C21.5501 16.019 21.4446 16.019 21.3899 16.019C21.2904 16.019 20.8397 16.0279 20.7144 16.3009C20.6228 16.1674 20.5522 16.0249 20.5025 15.8755C20.4497 15.7162 20.4229 15.5498 20.4239 15.3944C20.4258 15.2341 20.4567 15.1165 20.5184 15.0338C20.5771 14.9561 20.6706 14.9004 20.8059 14.8635C21.1123 14.7838 21.5521 14.744 21.8754 14.7689L21.8774 14.7699H21.8794L21.9849 14.7749C22.142 14.7819 22.5798 15.0328 22.8474 15.4502C22.8474 15.4502 23.7856 15.2749 24.4204 14.6554C24.4204 14.6554 23.2394 14.7759 22.2604 14.6374C22.2445 14.6354 22.2107 14.6195 22.2296 14.5777C22.2296 14.5777 22.2336 14.5677 22.2435 14.5528C22.2435 14.5528 22.2445 14.5518 22.2445 14.5508C22.3221 14.4332 22.4435 14.2858 22.8096 14.1722C22.9847 14.1165 23.2474 14.0796 23.5697 14.0667C23.903 14.0517 24.295 14.0607 24.7338 14.0926C25.3974 14.1404 25.8898 14.0846 26.2401 14.0029C26.1386 14.2689 25.9535 14.5846 25.6153 14.8137H25.6143L25.4959 14.8964L25.3685 14.9851L25.4292 15.1275L25.4839 15.258C25.5924 15.5299 25.669 16.0678 25.7555 16.6903L25.7655 16.7631C25.8172 17.1535 25.8819 17.6177 25.9635 18.0918C25.9644 18.0998 25.9664 18.1087 25.9674 18.1177C25.9426 18.556 25.7277 18.8409 25.6202 18.9136H25.6143C25.4859 18.8269 25.1785 18.4384 25.1745 17.8468H25.1477H24.9924H24.9646C24.9616 18.4384 24.6522 18.8269 24.5248 18.9136H24.5179C24.3905 18.8269 24.0831 18.4384 24.0781 17.8468H24.0513H23.896H23.8692C23.8642 18.4384 23.5568 18.8269 23.4294 18.9136H23.4235C23.2961 18.8269 22.9877 18.4384 22.9837 17.8468H22.9559H22.8007H22.7738C22.7698 18.4384 22.4624 18.8269 22.3341 18.9136H22.3281C22.2246 18.8429 22.0197 18.5739 21.9839 18.1595C22.0535 17.8856 22.143 17.5689 22.148 17.5499C22.2545 17.1973 22.3072 16.8806 22.3092 16.8667V16.8657C22.349 16.6166 22.3072 16.4134 22.1848 16.264C22.0565 16.1136 21.8575 16.0289 21.6018 16.02Z" fill="#FDD000"/>
<path d="M22.2059 19.1376C22.1393 19.6067 21.8886 19.9095 21.7791 19.9802C21.7294 19.9484 21.6498 19.8667 21.5762 19.7452C21.6956 19.3418 21.798 18.9613 21.8756 18.6206C21.9761 18.8915 22.1234 19.0599 22.2059 19.1376Z" fill="#FDD000"/>
<path d="M15.7363 17.9453H21.6023C21.5724 18.0609 21.5426 18.1774 21.5217 18.275V18.277V18.278C21.4998 18.3846 21.4759 18.4962 21.4481 18.6127C20.2263 18.5061 15.7363 18.1406 15.7363 18.1406V17.9453Z" fill="#FDD000"/>
<path d="M15.5377 18.781L16.8321 21.5909L16.841 21.6079H14.2344L15.5377 18.781Z" fill="#FDD000"/>
<path d="M13.1454 20.4177C13.5254 20.5512 13.9283 20.6219 14.3313 20.6488L13.9204 21.5263C13.4448 21.3261 13.1354 20.9356 12.9941 20.3589C13.0439 20.3808 13.0936 20.3997 13.1454 20.4177Z" fill="#FDD000"/>
<path d="M12.1465 18.8936C13.0021 19.1446 13.9154 19.3478 14.8795 19.4783L14.4646 20.3628C14.0517 20.3419 13.6369 20.2721 13.2498 20.1367C12.3723 19.8299 12.1853 19.1814 12.1465 18.8936Z" fill="#FDD000"/>
<path d="M4.90859 13.6611C7.34211 16.1414 11.4978 18.2511 15.3252 18.525L15.0218 19.1744C9.94677 18.5579 6.39099 15.8535 5.2777 14.7748C4.87377 14.3843 4.827 13.9141 4.90859 13.6611Z" fill="#FDD000"/>
<path d="M5.38571 15.3376C6.44429 16.2829 8.73752 17.8368 11.8247 18.797C11.8376 18.9833 11.9142 19.5072 12.358 19.9425C10.3333 19.6935 7.57051 18.7303 6.06224 17.4065C5.12604 16.5847 5.23349 15.766 5.38571 15.3376Z" fill="#FDD000"/>
<path d="M6.16185 17.9324C7.90193 19.2771 10.7115 20.1058 12.6596 20.2722C12.7262 20.6168 12.8556 20.9774 13.0973 21.2772C11.3343 21.4117 8.96646 21.1348 7.2622 19.9883C6.16781 19.2512 6.10813 18.3697 6.16185 17.9324Z" fill="#FDD000"/>
<path d="M9.20563 22.4217C8.30624 22.0791 7.67647 21.4715 7.58594 20.5859C9.38571 21.5661 11.6929 21.7215 13.3703 21.5492C13.4946 21.6478 13.6379 21.7334 13.8041 21.8022C13.8289 21.8729 13.9503 22.1797 14.2518 22.4636C13.5892 22.6658 11.3427 23.2385 9.20563 22.4217Z" fill="#FDD000"/>
<path d="M12.2898 24.2185C11.1556 24.1757 10.4124 23.7823 10.0762 23.0392C12.3067 23.5073 14.2876 22.7802 14.5343 22.6836C14.7343 22.8081 14.982 22.9087 15.2885 22.9555C15.3024 22.9844 15.3959 23.1796 15.6009 23.3729C15.2178 23.595 13.9016 24.2773 12.2898 24.2185Z" fill="#FDD000"/>
<path d="M12.5664 24.5702C14.1135 24.5423 15.4417 23.844 15.8576 23.5671C16.1013 23.7126 16.4336 23.8122 16.8704 23.7594C16.9181 23.8102 16.9927 23.8829 17.0902 23.9556C16.754 24.2833 15.8605 25.0374 14.606 25.2555C13.6628 25.4199 13.0181 25.1917 12.5664 24.5702Z" fill="#FDD000"/>
<path d="M15.3971 26.0724C15.0629 26.0305 14.7534 25.8343 14.5664 25.6252C16.0339 25.424 17.0198 24.4936 17.3601 24.123C17.6048 24.2436 17.9232 24.3193 18.2993 24.2326C18.347 24.2814 18.4366 24.3352 18.554 24.381C18.2117 24.8522 17.0308 26.2776 15.3971 26.0724Z" fill="#FDD000"/>
<path d="M16.7324 26.2824C17.8845 25.881 18.6595 24.8082 18.8814 24.4656C19.1311 24.5014 19.4236 24.4835 19.7012 24.354C19.6594 24.5433 19.6266 24.7196 19.6067 24.8819C19.2764 24.9457 18.9729 25.1459 18.7521 25.4517C18.3203 26.0453 18.0865 26.3053 17.5114 26.4916C17.5074 26.4926 17.5035 26.4936 17.4995 26.4946C17.1652 26.4746 16.9075 26.376 16.7324 26.2824Z" fill="#FDD000"/>
<path d="M16.955 28.911C16.5093 28.2985 16.5809 27.9797 16.6794 27.6769C16.7779 27.3741 16.9072 27.0753 17.6275 26.8412C17.8474 26.7695 18.0265 26.6858 18.1847 26.5852C18.6065 26.8741 19.8283 27.7128 20.9346 28.4728C20.8679 28.6013 20.8092 28.7348 20.7595 28.8712L18.0225 27.9479C17.9409 27.922 17.8514 27.9658 17.8245 28.0494C17.7977 28.1321 17.8444 28.2218 17.926 28.2477L20.6819 29.1113C20.6421 29.2497 20.6122 29.3921 20.5903 29.5376C19.2482 29.5007 17.7688 29.4589 17.2574 29.446C17.1858 29.2706 17.0903 29.0983 16.955 28.911Z" fill="#FDD000"/>
<path d="M17.8015 31.4841C17.5608 31.3078 17.4185 31.0448 17.4165 30.6972C17.4165 30.3017 17.4036 29.995 17.3379 29.7161C17.897 29.726 19.2879 29.7519 20.5604 29.7758C20.5534 29.8665 20.5494 29.9581 20.5494 30.0497C20.5494 30.1165 20.5524 30.1842 20.5554 30.2509L18.5318 30.5398C18.492 30.5448 18.4572 30.5677 18.4363 30.5986C18.4134 30.6314 18.4014 30.6693 18.4074 30.7091C18.4134 30.749 18.4333 30.7809 18.4661 30.8038C18.48 30.8157 18.494 30.8217 18.5089 30.8267C18.5318 30.8337 18.5537 30.8367 18.5765 30.8327L20.5773 30.494C20.5972 30.6444 20.626 30.7908 20.6638 30.9343L18.6333 31.5618C18.3447 31.6574 18.0254 31.6445 17.8015 31.4841Z" fill="#FDD000"/>
<path d="M18.2886 33.3826C18.0867 33.0997 18.0469 32.8038 18.1384 32.52C18.226 32.258 18.4747 32.0597 18.7662 31.9641L20.7779 31.2778C20.8316 31.4183 20.8943 31.5537 20.9659 31.6852L19.1482 32.5887C19.1264 32.5996 19.1094 32.6146 19.0965 32.6335C19.0876 32.6464 19.0796 32.6604 19.0756 32.6773C19.0637 32.7142 19.0647 32.752 19.0846 32.7869C19.1025 32.8238 19.1343 32.8476 19.1721 32.8606C19.2069 32.8735 19.2487 32.8705 19.2835 32.8516L21.0903 31.8954C21.1759 32.0299 21.2704 32.1564 21.3738 32.2769C20.358 33.0449 19.2487 33.8846 18.802 34.2222C18.6906 33.9573 18.5214 33.7033 18.2886 33.3826Z" fill="#FDD000"/>
<path d="M21.3212 36.2584C21.1341 36.2693 20.9411 36.3072 20.7202 36.3789C20.0009 36.614 19.7204 36.4476 19.4627 36.2604C19.206 36.0731 18.9613 35.858 18.9622 35.0999C18.9613 34.8688 18.9384 34.6726 18.8906 34.4903C19.2965 34.1786 20.4705 33.2741 21.5351 32.4543C21.6375 32.5579 21.745 32.6546 21.8594 32.7442L20.1362 35.0661C20.0855 35.1358 20.0994 35.2344 20.17 35.2862C20.2407 35.338 20.3402 35.3211 20.3909 35.2513L22.0634 32.8936C22.1837 32.9753 22.3091 33.048 22.4394 33.1137C21.9887 34.3788 21.4933 35.7763 21.3212 36.2584Z" fill="#FDD000"/>
<path d="M23.7614 35.5968C23.7614 35.9036 23.65 36.2024 23.4281 36.3658C23.1864 36.5411 22.8929 36.5949 22.5616 36.4903C22.1855 36.3677 21.891 36.2851 21.6055 36.2612C21.7885 35.7322 22.2422 34.4164 22.6571 33.2112C22.8033 33.2719 22.9525 33.3227 23.1077 33.3636L22.7576 35.3786C22.7506 35.4175 22.7595 35.4583 22.7834 35.4862C22.8073 35.5191 22.8401 35.542 22.8799 35.548C22.9197 35.5549 22.9565 35.546 22.9874 35.5221C23.0023 35.5131 23.0132 35.5011 23.0232 35.4882C23.0361 35.4703 23.0461 35.4494 23.0501 35.4255L23.3465 33.4154C23.4918 33.4423 23.64 33.4602 23.7913 33.4672L23.7614 35.5968Z" fill="#FDD000"/>
<path d="M23.9711 23.5771C23.8835 23.5771 23.8139 23.6498 23.8139 23.7345L23.8447 26.6261C23.6984 26.632 23.5542 26.647 23.4119 26.6699C23.0329 25.381 22.614 23.9586 22.4688 23.4675C22.613 23.349 22.7473 23.2026 22.8836 23.0163C23.3274 22.4027 23.6517 22.3718 23.9701 22.3718C24.2884 22.3718 24.6128 22.4017 25.0565 23.0163C25.1928 23.2026 25.3271 23.348 25.4714 23.4675C25.3271 23.9586 24.9083 25.381 24.5282 26.6699C24.3859 26.647 24.2417 26.632 24.0944 26.6261L24.1253 23.7345C24.1283 23.6498 24.0586 23.5771 23.9711 23.5771Z" fill="#FDD000"/>
<path d="M25.3811 36.4902C25.0498 36.5948 24.7563 36.541 24.5145 36.3657C24.2927 36.2024 24.1822 35.9035 24.1812 35.5968L24.1504 33.4691C24.3016 33.4622 24.4498 33.4442 24.5951 33.4173L24.8926 35.4274C24.8966 35.4503 24.9065 35.4713 24.9195 35.4902C24.9284 35.5031 24.9394 35.5151 24.9543 35.524C24.9861 35.547 25.0229 35.5569 25.0627 35.5499C25.1025 35.544 25.1353 35.521 25.1592 35.4882C25.1831 35.4603 25.1931 35.4194 25.1851 35.3806L24.8349 33.3655C24.9901 33.3247 25.1403 33.2739 25.2856 33.2131C25.7004 34.4184 26.1551 35.7332 26.3372 36.2631C26.0506 36.2851 25.7562 36.3677 25.3811 36.4902Z" fill="#FDD000"/>
<path d="M28.9791 35.0987C28.9801 35.8568 28.7354 36.0719 28.4777 36.2592C28.22 36.4464 27.9404 36.6128 27.2201 36.3777C26.9993 36.306 26.8063 36.2681 26.6192 36.2572C26.4481 35.7751 25.9516 34.3776 25.502 33.1116C25.6323 33.0468 25.7576 32.9731 25.878 32.8914L27.5504 35.2491C27.6012 35.3179 27.6997 35.3348 27.7703 35.284C27.841 35.2332 27.8559 35.1336 27.8052 35.0639L26.082 32.742C26.1964 32.6524 26.3058 32.5547 26.4073 32.4521C27.4709 33.2709 28.6458 34.1764 29.0508 34.4881C29.003 34.6714 28.9801 34.8677 28.9791 35.0987Z" fill="#FDD000"/>
<path d="M29.6546 33.3826C29.4218 33.7033 29.2526 33.9583 29.1412 34.2222C28.6945 33.8846 27.5851 33.0459 26.5684 32.2769C26.6718 32.1564 26.7663 32.0289 26.8519 31.8954L28.6587 32.8516C28.6935 32.8705 28.7353 32.8735 28.7701 32.8606C28.8089 32.8466 28.8397 32.8228 28.8586 32.7869C28.8775 32.752 28.8785 32.7142 28.8666 32.6773C28.8626 32.6604 28.8546 32.6464 28.8457 32.6335C28.8318 32.6146 28.8158 32.5986 28.794 32.5887L26.9763 31.6852C27.0479 31.5547 27.1106 31.4183 27.1643 31.2778L29.175 31.9641C29.4675 32.0597 29.7162 32.257 29.8038 32.52C29.8963 32.8038 29.8575 33.0997 29.6546 33.3826Z" fill="#FDD000"/>
<path d="M30.5248 30.6972C30.5228 31.0448 30.3805 31.3068 30.1387 31.4841C29.9149 31.6454 29.5965 31.6584 29.305 31.5637L27.2754 30.9352C27.3132 30.7918 27.343 30.6464 27.362 30.495L29.3627 30.8336C29.3856 30.8376 29.4085 30.8346 29.4304 30.8277C29.4453 30.8227 29.4602 30.8167 29.4731 30.8047C29.505 30.7818 29.5259 30.75 29.5308 30.7101C29.5378 30.6703 29.5259 30.6324 29.503 30.5996C29.4821 30.5687 29.4463 30.5458 29.4085 30.5408L27.3838 30.2519C27.3878 30.1852 27.3898 30.1175 27.3898 30.0507C27.3898 29.9591 27.3858 29.8674 27.3789 29.7768C28.6513 29.7529 30.0422 29.728 30.6023 29.717C30.5377 29.9949 30.5248 30.3017 30.5248 30.6972Z" fill="#FDD000"/>
<path d="M30.9864 28.911C30.8511 29.0983 30.7546 29.2706 30.686 29.446C30.1746 29.4589 28.6951 29.5007 27.353 29.5376C27.3311 29.3921 27.3003 29.2497 27.2615 29.1113L30.0174 28.2477C30.099 28.2218 30.1457 28.1321 30.1189 28.0494C30.091 27.9658 30.0015 27.922 29.9199 27.9479L27.1839 28.8712C27.1342 28.7338 27.0745 28.6013 27.0078 28.4728C28.1151 27.7138 29.3369 26.8751 29.7587 26.5852C29.9159 26.6858 30.096 26.7695 30.3158 26.8412C31.0361 27.0743 31.1655 27.3741 31.264 27.6769C31.3615 27.9797 31.4331 28.2985 30.9864 28.911Z" fill="#FDD000"/>
<path d="M30.443 26.4946C30.439 26.4936 30.435 26.4926 30.431 26.4916C29.856 26.3043 29.6222 26.0443 29.1904 25.4517C28.9695 25.1459 28.6671 24.9467 28.3358 24.8819C28.3159 24.7196 28.283 24.5433 28.2402 24.354C28.5178 24.4835 28.8113 24.5014 29.061 24.4656C29.2829 24.8072 30.0579 25.88 31.21 26.2824C31.0339 26.376 30.7763 26.4746 30.443 26.4946Z" fill="#FDD000"/>
<path d="M32.5455 26.0723C30.9109 26.2775 29.7309 24.8522 29.3887 24.382C29.5061 24.3362 29.5956 24.2824 29.6424 24.2336C30.0184 24.3203 30.3368 24.2436 30.5816 24.124C30.9218 24.4946 31.9077 25.4249 33.3752 25.6261C33.1892 25.8343 32.8808 26.0305 32.5455 26.0723Z" fill="#FDD000"/>
<path d="M33.3368 25.2555C32.0832 25.0384 31.1898 24.2833 30.8535 23.9556C30.951 23.8829 31.0246 23.8102 31.0734 23.7594C31.5102 23.8122 31.8415 23.7126 32.0852 23.5671C32.5001 23.844 33.8293 24.5423 35.3764 24.5702C34.9247 25.1917 34.28 25.4199 33.3368 25.2555Z" fill="#FDD000"/>
<path d="M35.6528 24.2185C34.0401 24.2783 32.7248 23.595 32.3418 23.3729C32.5458 23.1796 32.6403 22.9834 32.6542 22.9555C32.9616 22.9087 33.2093 22.8081 33.4083 22.6836C33.6561 22.7812 35.6349 23.5083 37.8665 23.0392C37.5292 23.7813 36.786 24.1757 35.6528 24.2185Z" fill="#FDD000"/>
<path d="M38.7366 22.4217C36.5995 23.2385 34.353 22.6668 33.6914 22.4636C33.9919 22.1797 34.1143 21.8729 34.1391 21.8022C34.3043 21.7344 34.4485 21.6478 34.5729 21.5492C36.2503 21.7215 38.5575 21.5661 40.3573 20.5859C40.2657 21.4715 39.635 22.0791 38.7366 22.4217Z" fill="#FDD000"/>
<path d="M40.6808 19.9883C38.9766 21.1348 36.6087 21.4117 34.8457 21.2772C35.0865 20.9764 35.2168 20.6168 35.2825 20.2722C37.2305 20.1058 40.0411 19.2771 41.7802 17.9324C41.8349 18.3697 41.7752 19.2512 40.6808 19.9883Z" fill="#FDD000"/>
<path d="M41.8787 17.4065C40.3714 18.7303 37.6076 19.6945 35.584 19.9425C36.0267 19.5072 36.1033 18.9833 36.1173 18.797C39.2054 17.8368 41.4977 16.2829 42.5552 15.3376C42.7095 15.766 42.8149 16.5847 41.8787 17.4065Z" fill="#FDD000"/>
<path d="M42.6657 14.7748C41.5524 15.8535 37.9956 18.5579 32.9216 19.1744L32.6172 18.525C36.4456 18.2511 40.6013 16.1414 43.0338 13.6611C43.1154 13.9141 43.0686 14.3843 42.6657 14.7748Z" fill="#FDD000"/>
<path d="M22.6914 13.8066H22.6924V13.8057L22.6914 13.8066Z" fill="#FDD000"/>
<path d="M22.6914 13.8066H22.6924V13.8057L22.6914 13.8066Z" fill="#FDD000"/>
<path d="M5.02882 31.6244L5.42279 31.48L5.13527 30.6931L5.56805 30.5347L5.83468 31.2658L6.22866 31.1224L5.96202 30.3912L6.37191 30.2409L6.64851 31.0009L7.04148 30.8574L6.60175 29.6482L4.57812 30.3863L5.02882 31.6244Z" fill="#AD7207"/>
<path d="M6.06391 27.6501L3.97461 28.1701L4.09002 28.6353L4.87102 28.44L4.87202 28.446L4.22731 29.1861L4.37654 29.7877L5.03615 28.965C5.18738 29.204 5.4799 29.3315 5.76842 29.2598C6.13057 29.1702 6.34944 28.8036 6.2609 28.442L6.06391 27.6501ZM5.84205 28.4938C5.87687 28.6323 5.82214 28.7628 5.65599 28.8046C5.48885 28.8464 5.38039 28.7548 5.34557 28.6173L5.27692 28.3394L5.7734 28.2159L5.84205 28.4938Z" fill="#AD7207"/>
<path d="M5.88425 26.0913C5.8156 25.4757 5.26044 25.0315 4.6446 25.1012C4.02875 25.1699 3.586 25.7257 3.65565 26.3423C3.7243 26.9579 4.27945 27.4021 4.8953 27.3324C5.51014 27.2647 5.95389 26.7079 5.88425 26.0913ZM4.10139 26.2935C4.06159 25.9399 4.3282 25.6192 4.69831 25.5783C5.06642 25.5365 5.39874 25.7895 5.43853 26.1431C5.47833 26.4957 5.21069 26.8164 4.84159 26.8573C4.47148 26.8981 4.14019 26.6461 4.10139 26.2935Z" fill="#AD7207"/>
<path d="M7.55288 36.1685L9.34072 34.9662L9.07408 34.5698L7.97968 35.3049L8.52289 33.747L8.27416 33.3755L6.48633 34.5778L6.75297 34.9752L7.84636 34.2401L7.30416 35.797L7.55288 36.1685Z" fill="#AD7207"/>
<path d="M10.8355 39.6627L12.2951 38.0769L11.9429 37.7522L11.0494 38.7234L11.2166 37.0829L10.8873 36.7781L9.42773 38.3648L9.77993 38.6886L10.6714 37.7203L10.5062 39.3589L10.8355 39.6627Z" fill="#AD7207"/>
<path d="M5.90135 32.5438L6.25154 33.2471L5.93718 33.5788L6.17196 34.0519L7.72601 32.3397L7.51509 31.9133L5.21289 32.1225L5.44868 32.5956L5.90135 32.5438ZM7.0425 32.4154L6.55103 32.9323L6.33413 32.4951L7.0425 32.4154Z" fill="#AD7207"/>
<path d="M18.2563 41.3084C17.6684 41.1132 17.0336 41.4319 16.8386 42.0196C16.6436 42.6083 16.962 43.2438 17.5499 43.439C18.1369 43.6342 18.7727 43.3155 18.9667 42.7268C19.1627 42.1391 18.8443 41.5036 18.2563 41.3084ZM17.6912 43.0127C17.3549 42.9011 17.1759 42.5246 17.2933 42.171C17.4097 41.8184 17.7788 41.6232 18.116 41.7337C18.4523 41.8463 18.6314 42.2228 18.514 42.5764C18.3966 42.929 18.0285 43.1252 17.6912 43.0127Z" fill="#AD7207"/>
<path d="M21.2291 44.2658L21.616 42.1462L21.1455 42.0595L20.9087 43.3574L20.1735 41.8812L19.7327 41.8015L19.3457 43.9212L19.8173 44.0078L20.0531 42.7119L20.7893 44.1861L21.2291 44.2658Z" fill="#AD7207"/>
<path d="M12.1652 40.1429L12.808 40.5941L12.6896 41.0354L13.1223 41.3392L13.6715 39.092L13.2825 38.8181L11.3594 40.1011L11.7912 40.4049L12.1652 40.1429ZM13.1054 39.4845L12.9204 40.1748L12.5214 39.8939L13.1054 39.4845Z" fill="#AD7207"/>
<path d="M22.679 43.9628L23.463 43.9967L23.5993 44.433L24.1276 44.4569L23.3854 42.2665L22.9108 42.2446L21.9766 44.3613L22.5049 44.3842L22.679 43.9628ZM23.1187 42.901L23.3326 43.5823L22.8461 43.5604L23.1187 42.901Z" fill="#AD7207"/>
<path d="M4.51258 23.4545L3.56941 24.1697L3.56641 24.8371L4.69265 23.9376L5.72037 24.7654L5.72238 24.1398L4.84288 23.4565L5.72535 23.4605L5.72733 22.9814L3.57436 22.9724L3.57239 23.4505L4.51258 23.4545Z" fill="#AD7207"/>
<path d="M30.9967 40.8182C30.4256 41.0582 30.156 41.7157 30.3967 42.2874C30.6365 42.8592 31.2932 43.1281 31.8642 42.8891C32.4353 42.648 32.7049 41.9906 32.4651 41.4188C32.2244 40.8461 31.5667 40.5781 30.9967 40.8182ZM31.6901 42.4737C31.3628 42.6121 30.9807 42.4448 30.8375 42.1021C30.6932 41.7585 30.8414 41.369 31.1698 41.2316C31.4971 41.0941 31.8791 41.2605 32.0234 41.6041C32.1666 41.9468 32.0174 42.3372 31.6901 42.4737Z" fill="#AD7207"/>
<path d="M39.0141 37.8191L38.7146 37.5273L38.1296 38.1259L37.8003 37.8042L38.3435 37.2484L38.045 36.9545L37.5008 37.5113L37.1884 37.2055L37.7526 36.6278L37.4541 36.335L36.5547 37.2553L38.0938 38.7624L39.0141 37.8191Z" fill="#AD7207"/>
<path d="M28.1719 41.8013L28.7579 43.8752L29.2175 43.7447L29.0544 43.1689L29.314 43.0952C29.7269 42.9777 29.9667 42.5474 29.8513 42.134C29.7339 41.7196 29.3041 41.4806 28.8912 41.5971L28.1719 41.8013ZM29.1429 42.7088L28.9409 42.7665L28.746 42.0752L28.9479 42.0185C29.138 41.9647 29.3359 42.0753 29.3906 42.2665C29.4444 42.4568 29.3339 42.655 29.1429 42.7088Z" fill="#AD7207"/>
<path d="M35.9269 38.3399C36.0881 38.2064 36.2861 38.1785 36.4702 38.2373L36.5498 37.803C36.2463 37.7134 35.918 37.7652 35.6404 37.9943C35.1629 38.3887 35.0942 39.0969 35.4892 39.575C35.8832 40.0521 36.5905 40.1209 37.0671 39.7264C37.3447 39.4983 37.4581 39.1856 37.4283 38.8698L36.9855 38.8658C37.0084 39.0571 36.9437 39.2473 36.7826 39.3798C36.508 39.6069 36.0951 39.5571 35.8583 39.2702C35.6215 38.9834 35.6533 38.565 35.9269 38.3399Z" fill="#AD7207"/>
<path d="M26.0258 44.3343L25.995 43.916L25.2797 43.9678L25.1543 42.2356L24.6777 42.2705L24.8329 44.421L26.0258 44.3343Z" fill="#AD7207"/>
<path d="M34.5857 41.4606L34.3778 41.0961L33.7559 41.4517L32.8963 39.9426L32.4805 40.1797L33.547 42.0533L34.5857 41.4606Z" fill="#AD7207"/>
<path d="M16.2236 40.5611L15.3379 42.5256L15.7731 42.7223L16.6589 40.7578L16.2236 40.5611Z" fill="#AD7207"/>
<path d="M40.5613 35.1554L40.9861 34.494L41.4309 34.5946L41.7164 34.1493L39.452 33.6912L39.1953 34.0916L40.5533 35.9632L40.8389 35.518L40.5613 35.1554ZM39.8659 34.241L40.5613 34.3984L40.2977 34.8097L39.8659 34.241Z" fill="#AD7207"/>
<path d="M43.5229 29.8852L43.125 29.7517L42.8593 30.5466L42.4225 30.4002L42.6693 29.6611L42.2733 29.5286L42.0256 30.2657L41.6107 30.1273L41.8684 29.3613L41.4714 29.2278L41.0625 30.448L43.104 31.1343L43.5229 29.8852Z" fill="#AD7207"/>
<path d="M44.1437 27.2278L42.0355 26.7905L41.938 27.2587L43.2284 27.5266L41.737 28.2279L41.6465 28.6661L43.7547 29.1034L43.8522 28.6343L42.5638 28.3673L44.0531 27.6661L44.1437 27.2278Z" fill="#AD7207"/>
<path d="M42.5863 25.2366C42.6012 25.0284 42.7186 24.865 42.8878 24.7724L42.6291 24.4138C42.3545 24.5722 42.1654 24.8461 42.1396 25.2047C42.0958 25.8233 42.5594 26.3601 43.1773 26.405C43.7951 26.4498 44.3324 25.9846 44.3761 25.3661C44.402 25.0075 44.2538 24.7087 44.006 24.5124L43.6976 24.8302C43.8518 24.9467 43.9443 25.124 43.9284 25.3332C43.9035 25.6878 43.5812 25.9538 43.2111 25.9259C42.842 25.901 42.5614 25.5922 42.5863 25.2366Z" fill="#AD7207"/>
<path d="M34.354 39.0342L33.957 39.3018L35.1595 41.0898L35.5564 40.8222L34.354 39.0342Z" fill="#AD7207"/>
<path d="M14.4677 39.616L14.2637 39.9825L14.6826 40.2156L13.8379 41.7326L14.2557 41.9647L15.1004 40.4487L15.5173 40.6808L15.7222 40.3152L14.4677 39.616Z" fill="#AD7207"/>
<path d="M41.3041 32.2908L41.6821 32.4721L41.9199 31.976C42.0841 32.1463 42.1438 32.3735 42.0353 32.6016C41.8821 32.9223 41.4851 33.0508 41.1499 32.8904C40.8156 32.729 40.6683 32.3396 40.8216 32.0188C40.9121 31.8296 41.0802 31.721 41.2712 31.6971L41.1618 31.2688C40.8484 31.3146 40.5718 31.5009 40.4176 31.8256C40.149 32.3844 40.3848 33.0548 40.9439 33.3237C41.5021 33.5916 42.1716 33.3556 42.4402 32.7968C42.7138 32.225 42.4721 31.6662 41.8751 31.3804C41.8383 31.3624 41.8015 31.3475 41.7657 31.3335L41.3041 32.2908Z" fill="#AD7207"/>
<path d="M42.1908 22.7853L43.0285 23.2196L42.2286 23.7206L42.2495 24.2485L43.4872 23.4407L44.3697 23.4058L44.3508 22.9267L43.4683 22.9626L42.1699 22.2563L42.1908 22.7853Z" fill="#AD7207"/>
<path d="M36.5134 9.50361L36.8825 9.34122C36.8825 9.34122 36.5432 8.84718 36.7631 8.29037L37.2576 8.70174L37.5173 8.38798L36.982 7.94474L37.1551 7.73555L36.7502 7.39989L36.5771 7.60906L36.0408 7.16479L35.7811 7.47856L36.2766 7.88896C35.7712 8.20771 35.224 7.96566 35.224 7.96566L35.1285 8.37703C35.5683 8.54836 35.9145 8.5583 36.2119 8.46069C36.1731 8.75752 36.2388 9.08025 36.4617 9.45677C36.4477 9.44481 36.4338 9.43287 36.4199 9.41992C35.9164 9.00257 35.2917 9.05137 34.9484 9.46674C34.6042 9.8821 34.6719 10.5057 35.1753 10.923C35.6777 11.3404 36.3015 11.2916 36.6457 10.8762C36.9691 10.4867 36.9303 9.91698 36.5134 9.50361ZM35.4568 10.5823C35.1782 10.3503 35.1663 10.0295 35.3533 9.80142C35.5424 9.57431 35.8598 9.5265 36.1393 9.75859C36.4189 9.99067 36.4308 10.3114 36.2418 10.5385C36.0538 10.7666 35.7374 10.8144 35.4568 10.5823Z" fill="#AD7207"/>
<path d="M37.9359 8.60205L37.5569 9.05927L37.2107 8.7724L36.94 9.09912L37.2863 9.38699L36.8535 9.90892L37.2445 10.2346L38.328 8.92779L37.9359 8.60205Z" fill="#AD7207"/>
<path d="M25.1607 3.19824H24.6523L24.6543 4.81188L25.1637 4.81088L25.1617 4.13158H25.5866L25.5855 3.70725L25.1607 3.70823V3.19824Z" fill="#AD7207"/>
<path d="M25.1659 5.97031L25.1639 4.95532L22.7891 4.9593L22.7901 5.38363L24.6555 5.38065L24.6565 5.56292L22.7901 5.56592L22.7911 6.34286C22.7911 6.48431 22.9055 6.59687 23.0457 6.59687L25.2007 6.59386L25.1997 6.16954L23.2994 6.17251V5.97332L25.1659 5.97031Z" fill="#AD7207"/>
<path d="M23.3558 4.19145C23.5239 4.4564 23.7965 4.66957 24.2442 4.81898L24.4333 4.44147C24.4333 4.44147 23.8572 4.27911 23.6702 3.71134L24.3129 3.71034L24.3119 3.30295L23.6164 3.30392V3.03101L23.0901 3.03301L23.0911 3.30392L22.3957 3.30492L22.3967 3.71231L23.0394 3.71134C22.8544 4.2801 22.2793 4.44445 22.2793 4.44445L22.4693 4.82096C22.917 4.67055 23.1896 4.4564 23.3558 4.19145Z" fill="#AD7207"/>
<path d="M11.3802 7.80422L10.9941 8.13492L11.2578 8.4447L11.6448 8.114L11.8209 8.32119L11.4339 8.65189L11.6975 8.96168L12.0846 8.63098L12.3054 8.88897L12.6924 8.55827L11.5921 7.26636L11.2051 7.59706L11.3802 7.80422Z" fill="#AD7207"/>
<path d="M11.7489 9.23051C11.2515 9.65484 11.1928 10.2794 11.543 10.6898C11.8932 11.1001 12.518 11.141 13.0144 10.7167C13.5119 10.2923 13.5696 9.6678 13.2204 9.25742C12.8702 8.84604 12.2454 8.80519 11.7489 9.23051ZM12.7279 10.38C12.4523 10.6151 12.1339 10.5722 11.9419 10.3481C11.7499 10.123 11.7579 9.80227 12.0335 9.5662C12.3091 9.33112 12.6274 9.37394 12.8194 9.59806C13.0114 9.82317 13.0045 10.1449 12.7279 10.38Z" fill="#AD7207"/>
<path d="M10.8545 8.20264C10.7868 8.12196 10.6664 8.11397 10.5858 8.1817L9.47852 9.12799L9.75411 9.45172L10.56 8.76342C10.6585 8.95367 10.8206 9.46765 10.2525 10.1978L10.5988 10.4239C11.4474 9.38198 11.1659 8.5692 10.8545 8.20264Z" fill="#AD7207"/>
<path d="M77.8459 8.90865H74.459V11.7961H77.8459V13.5244H74.459V16.4119H77.8459V18.5722H81.3797V7.12769H77.8459V8.90865Z" fill="#00479D"/>
<path d="M73.5888 17.9609C69.1847 17.9609 66.1543 20.8906 66.1543 24.4947C66.1543 28.0987 69.1847 31.0284 73.5888 31.0284C77.9929 31.0284 81.0233 28.0987 81.0233 24.4947C81.0233 20.8906 77.9929 17.9609 73.5888 17.9609ZM73.5888 27.9617C71.1666 27.9617 69.73 26.4126 69.73 24.5052C69.73 22.5978 71.1561 21.0486 73.5888 21.0486C76.0215 21.0486 77.4371 22.5978 77.4371 24.5052C77.4371 26.4126 76.0111 27.9617 73.5888 27.9617Z" fill="#00479D"/>
<path d="M127.235 7.12769V11.6381H123.869V14.5255H127.235V18.5722H130.779V7.12769H127.235Z" fill="#00479D"/>
<path d="M124.172 18.0452L125.147 16.0956C125.147 16.0956 120.921 14.9154 119.789 10.7422H124.287V7.85473H119.6V6H116.056V7.85473H111.368V10.7422H115.856C114.734 14.9048 110.498 16.0956 110.498 16.0956L111.777 18.6459C114.839 17.6975 116.706 16.2432 117.817 14.4201C118.698 15.8743 120.061 17.0862 122.127 18.0031C118.195 18.3614 115.552 21.1329 115.552 24.5052C115.552 28.1198 118.583 31.0389 122.987 31.0389C127.391 31.0389 130.421 28.1093 130.421 24.5052C130.421 21.2278 127.926 18.5194 124.172 18.0452ZM122.987 27.9617C120.565 27.9617 119.128 26.4126 119.128 24.5052C119.128 22.5978 120.554 21.0486 122.987 21.0486C125.419 21.0486 126.835 22.5978 126.835 24.5052C126.835 26.4126 125.409 27.9617 122.987 27.9617Z" fill="#00479D"/>
<path d="M73.5044 8.64509C73.5044 7.9601 72.9277 7.41211 72.2251 7.41211H62.3789V10.2785H69.3834C69.1423 11.6485 67.9049 15.105 61.6973 16.3907L62.5047 19.1623C71.5435 17.5078 73.5149 11.5853 73.5149 8.64509H73.5044Z" fill="#00479D"/>
<path d="M105.056 7.12769H101.512V18.1507H105.056V13.3874H107.908V10.4367H105.056V7.12769Z" fill="#00479D"/>
<path d="M105.055 25.9594V19.0146H88.8125V21.9021H101.511V23.1456H88.8125V28.4358C88.8125 29.3738 89.5989 30.1325 90.5846 30.1325H105.265V27.245H92.3567V25.9699H105.066L105.055 25.9594Z" fill="#00479D"/>
<path d="M92.7977 13.8615C93.9092 15.6847 95.7757 17.1389 98.8376 18.0874L100.117 15.5266C100.117 15.5266 96.2685 14.4517 94.9368 10.7422H99.257V7.85473H94.5698V6H91.0256V7.85473H86.3384V10.7422H90.6586C89.3268 14.4517 85.4785 15.5266 85.4785 15.5266L86.7578 18.0874C89.8197 17.1389 91.6862 15.6847 92.7977 13.8615Z" fill="#00479D"/>
<path d="M77.4781 41.9051V41.041H75.7584V40.0925H77.3522V39.2284H75.7584V38.3326H77.4152V37.4685H74.7832V41.9051H77.4781Z" fill="#00479D"/>
<path d="M70.873 37.4685V41.9051H71.8587V40.2506L73.0122 41.9051H74.281L72.9702 40.1768C73.526 39.9977 73.9245 39.4708 73.9245 38.8596C73.9245 38.0903 73.3058 37.4685 72.5403 37.4685H70.873ZM72.4459 38.3326C72.7395 38.3326 72.9702 38.5013 72.9702 38.8596C72.9702 39.2179 72.7395 39.3865 72.4459 39.3865H71.8587V38.3326H72.4459Z" fill="#00479D"/>
<path d="M68.0523 37.3738C66.7835 37.3738 65.7559 38.4065 65.7559 39.6817C65.7559 40.9568 66.7835 41.9895 68.0523 41.9895C69.3211 41.9895 70.3487 40.9568 70.3487 39.6817C70.3487 38.4065 69.3211 37.3738 68.0523 37.3738ZM68.0523 41.0727C67.3287 41.0727 66.731 40.451 66.731 39.6817C66.731 38.9124 67.3183 38.2906 68.0523 38.2906C68.7863 38.2906 69.3735 38.9124 69.3735 39.6817C69.3735 40.451 68.7863 41.0727 68.0523 41.0727Z" fill="#00479D"/>
<path d="M86.4335 41.9051V37.4685H85.4478V40.1874L83.424 37.4685H82.5117V41.9051H83.4869V39.1968L85.5107 41.9051H86.4335Z" fill="#00479D"/>
<path d="M79.1258 41.0199H80.7302L81.0552 41.9051H82.1353L80.4156 37.4685H79.4404L77.7207 41.9051H78.8008L79.1258 41.0199ZM79.9332 38.7963L80.4366 40.1768H79.4299L79.9332 38.7963Z" fill="#00479D"/>
<path d="M145.448 37.4685L143.729 41.9051H144.809L145.123 41.0199H146.727L147.053 41.9051H148.133L146.413 37.4685H145.438H145.448ZM146.434 40.1768H145.438L145.941 38.7963L146.444 40.1768H146.434Z" fill="#00479D"/>
<path d="M63.2701 39.9661L64.7486 41.9051H66.1118L64.2558 39.5972L65.944 37.4685H64.6647L63.2701 39.2916V37.4685H62.2949V41.9051H63.2701V39.9661Z" fill="#00479D"/>
<path d="M126.919 37.3738C125.651 37.3738 124.623 38.4065 124.623 39.6817C124.623 40.9568 125.651 41.9895 126.919 41.9895C128.188 41.9895 129.226 40.9568 129.226 39.6817C129.226 38.4065 128.199 37.3738 126.919 37.3738ZM126.919 41.0727C126.196 41.0727 125.598 40.451 125.598 39.6817C125.598 38.9124 126.185 38.2906 126.919 38.2906C127.653 38.2906 128.241 38.9124 128.241 39.6817C128.241 40.451 127.653 41.0727 126.919 41.0727Z" fill="#00479D"/>
<path d="M132.194 41.9051V41.041H130.726V37.4685H129.74V41.9051H132.194Z" fill="#00479D"/>
<path d="M133.913 37.4685H132.928V41.9051H133.913V37.4685Z" fill="#00479D"/>
<path d="M141.642 41.9051V41.041H139.922V40.0925H141.516V39.2284H139.922V38.3326H141.579V37.4685H138.947V41.9051H141.642Z" fill="#00479D"/>
<path d="M155.621 41.9051V41.041H153.901V40.0925H155.495V39.2284H153.901V38.3326H155.558V37.4685H152.926V41.9051H155.621Z" fill="#00479D"/>
<path d="M121.162 37.4685V41.9051H122.148V40.6721H122.704C123.584 40.6721 124.297 39.9555 124.297 39.0703C124.297 38.1851 123.584 37.4685 122.704 37.4685H121.173H121.162ZM122.567 39.808H122.137V38.3326H122.567C122.976 38.3326 123.301 38.6593 123.301 39.0703C123.301 39.4813 122.976 39.808 122.567 39.808Z" fill="#00479D"/>
<path d="M136.734 38.3011C137.164 38.3011 137.51 38.5224 137.73 38.8491L138.422 38.2695C138.055 37.732 137.468 37.3843 136.734 37.3843C135.465 37.3843 134.438 38.417 134.438 39.6922C134.438 40.9673 135.465 42 136.734 42C137.468 42 138.055 41.6523 138.422 41.1148L137.73 40.5352C137.51 40.8724 137.164 41.0832 136.734 41.0832C136.01 41.0832 135.413 40.4614 135.413 39.6922C135.413 38.9229 136 38.3011 136.734 38.3011Z" fill="#00479D"/>
<path d="M163.107 38.3011C163.537 38.3011 163.883 38.5224 164.103 38.8491L164.795 38.2695C164.428 37.732 163.841 37.3843 163.107 37.3843C161.838 37.3843 160.811 38.417 160.811 39.6922C160.811 40.9673 161.838 42 163.107 42C163.841 42 164.428 41.6523 164.795 41.1148L164.103 40.5352C163.893 40.8724 163.537 41.0832 163.107 41.0832C162.373 41.0832 161.786 40.4614 161.786 39.6922C161.786 38.9229 162.373 38.3011 163.107 38.3011Z" fill="#00479D"/>
<path d="M113.686 37.4685L111.967 41.9051H113.047L113.372 41.0199H114.976L115.291 41.9051H116.371L114.651 37.4685H113.676H113.686ZM114.672 40.1768H113.666L114.169 38.7963L114.672 40.1768Z" fill="#00479D"/>
<path d="M104.847 42C106.116 42 107.144 40.9673 107.144 39.6922C107.144 38.417 106.116 37.3843 104.847 37.3843C103.578 37.3843 102.551 38.417 102.551 39.6922C102.551 40.9673 103.578 42 104.847 42ZM104.847 38.3011C105.571 38.3011 106.158 38.9229 106.158 39.6922C106.158 40.4614 105.571 41.0832 104.847 41.0832C104.124 41.0832 103.526 40.4614 103.526 39.6922C103.526 38.9229 104.113 38.3011 104.847 38.3011Z" fill="#00479D"/>
<path d="M119.202 41.9051V41.041H117.723V37.4685H116.748V41.9051H119.202Z" fill="#00479D"/>
<path d="M102.036 37.4685H101.051V41.9051H102.036V37.4685Z" fill="#00479D"/>
<path d="M97.4863 37.4685V38.3326H98.472V41.9051H99.4472V38.3326H100.433V37.4685H97.4863Z" fill="#00479D"/>
<path d="M107.668 37.4685V41.9051H108.654V39.1968L110.677 41.9051H111.59V37.4685H110.615V40.1874L108.591 37.4685H107.668Z" fill="#00479D"/>
<path d="M96.1324 37.4685H95.1572L93.4375 41.9051H94.5175L94.8426 41.0199H96.447L96.7615 41.9051H97.8416L96.1219 37.4685H96.1324ZM95.1467 40.1768L95.65 38.7963L96.1533 40.1768H95.1572H95.1467Z" fill="#00479D"/>
<path d="M93.0702 41.9051V37.4685H92.095V40.1874L90.0712 37.4685H89.1484V41.9051H90.1341V39.1968L92.1579 41.9051H93.0702Z" fill="#00479D"/>
<path d="M160.286 41.9051V37.4685H159.3V40.1874L157.276 37.4685H156.354V41.9051H157.339V39.1968L159.363 41.9051H160.286Z" fill="#00479D"/>
<path d="M150.241 39.4393V40.3034H151.373C151.205 40.7566 150.838 41.0727 150.314 41.0727C149.59 41.0727 148.993 40.451 148.993 39.6817C148.993 38.9124 149.59 38.2906 150.314 38.2906C150.744 38.2906 151.1 38.5119 151.31 38.8386L152.002 38.259C151.635 37.7215 151.048 37.3738 150.314 37.3738C149.045 37.3738 148.018 38.4065 148.018 39.6817C148.018 40.9568 149.045 41.9895 150.314 41.9895C151.583 41.9895 152.432 41.0411 152.432 39.6817C152.432 39.5974 152.432 39.513 152.422 39.4393H150.251H150.241Z" fill="#00479D"/>
<path d="M167.7 37.4685L166.735 39.1546L165.781 37.4685H164.701L166.253 40.082V41.9051H167.228V40.082L168.78 37.4685H167.7Z" fill="#00479D"/>
</svg>
