<svg width="17" height="16" viewBox="0 0 17 16" fill="none" xmlns="http://www.w3.org/2000/svg">
<g clip-path="url(#clip0_434_20197)">
<path d="M9.41667 2C9.58659 2.00019 9.75002 2.06525 9.87358 2.1819C9.99714 2.29854 10.0715 2.45797 10.0814 2.6276C10.0914 2.79722 10.0362 2.96425 9.92716 3.09455C9.8181 3.22486 9.6634 3.3086 9.49467 3.32867L9.41667 3.33333H4.08333V12.6667H13.4167V7.33333C13.4169 7.16341 13.4819 6.99998 13.5986 6.87642C13.7152 6.75286 13.8746 6.67851 14.0443 6.66855C14.2139 6.65859 14.3809 6.71378 14.5112 6.82284C14.6415 6.9319 14.7253 7.0866 14.7453 7.25533L14.75 7.33333V12.6667C14.7501 13.0031 14.6231 13.327 14.3943 13.5737C14.1656 13.8204 13.8521 13.9714 13.5167 13.9967L13.4167 14H4.08333C3.74695 14.0001 3.42296 13.8731 3.1763 13.6443C2.92965 13.4156 2.77856 13.1021 2.75333 12.7667L2.75 12.6667V3.33333C2.74989 2.99695 2.87694 2.67296 3.10566 2.4263C3.33439 2.17965 3.6479 2.02856 3.98333 2.00333L4.08333 2H9.41667ZM13.5787 2.22867C13.6986 2.1091 13.8596 2.03968 14.0289 2.03451C14.1982 2.02934 14.3631 2.08881 14.4902 2.20083C14.6172 2.31286 14.6969 2.46903 14.7129 2.63765C14.729 2.80626 14.6803 2.97467 14.5767 3.10867L14.5213 3.172L7.92133 9.77133C7.80136 9.8909 7.64038 9.96032 7.47108 9.96549C7.30178 9.97066 7.13686 9.91119 7.00981 9.79917C6.88277 9.68715 6.80313 9.53097 6.78707 9.36235C6.77101 9.19374 6.81973 9.02533 6.92333 8.89133L6.97867 8.82867L13.5787 2.22867Z" fill="#707070"/>
</g>
<defs>
<clipPath id="clip0_434_20197">
<rect width="16" height="16" fill="white" transform="translate(0.75)"/>
</clipPath>
</defs>
</svg>
