<svg width="100" height="100" viewBox="0 0 100 100" fill="none" xmlns="http://www.w3.org/2000/svg">
<path d="M50 0C22.3842 0 0 22.3842 0 50C0 77.6158 22.3842 100 50 100C77.6158 100 100 77.6158 100 50C100 22.3842 77.6158 0 50 0ZM50 97.6415C23.6921 97.6415 2.35849 76.3079 2.35849 50C2.35849 23.6921 23.6921 2.35849 50 2.35849C76.3079 2.35849 97.6415 23.6921 97.6415 50C97.6415 76.3079 76.3079 97.6415 50 97.6415Z" fill="#F3C921"/>
<path d="M49.9999 2.35852C23.692 2.35852 2.33691 23.6921 2.33691 50C2.33691 76.3079 23.6705 97.6415 49.9784 97.6415C76.2863 97.6415 97.6199 76.3079 97.6199 50C97.6199 23.6921 76.3078 2.35852 49.9999 2.35852Z" fill="#014493"/>
<path d="M50.0005 83.3834C31.5614 83.3834 16.5957 68.4391 16.5957 49.9786C16.5957 31.518 31.54 16.5738 50.0005 16.5738C68.4611 16.5738 83.4053 31.518 83.4053 49.9786C83.4053 68.4391 68.4611 83.3834 50.0005 83.3834Z" fill="white"/>
<path d="M89.816 31.368C90.7379 30.4031 90.9738 29.374 90.9738 28.5163C90.9738 27.4014 90.5235 26.5652 90.5235 26.5866C88.7654 28.6021 80.382 36.5995 68.1393 37.6716V36.5352C68.1393 36.5352 68.0964 36.4494 68.0535 36.4494H54.8889C54.8031 35.8276 54.7173 35.2487 54.653 34.7127V34.5626C54.46 33.2333 54.31 32.0969 54.0527 31.4108C54.6316 31.0035 55.1247 30.4246 55.4463 29.7384C55.7679 29.0952 55.9395 28.4091 55.9395 27.7873V27.6587L55.8323 27.723C55.6607 27.8302 55.2319 28.0017 55.2319 28.0017C54.6101 28.2376 53.4952 28.4734 51.7156 28.3448C50.7508 28.2805 49.8932 28.259 49.1642 28.2805C48.3923 28.3234 47.792 28.4091 47.3417 28.5378C46.8486 28.6878 46.4626 28.9023 46.1624 29.1595C45.9052 29.374 45.7551 29.6098 45.6479 29.7599C44.876 29.717 43.8897 29.8028 43.1822 29.9957C42.689 30.1244 42.346 30.3388 42.1101 30.6818C41.8528 31.0035 41.7456 31.4323 41.7456 31.9683C41.7456 32.2899 41.81 32.8045 42.0029 33.3619C42.2602 34.0695 42.6462 34.6698 43.1607 35.0987L43.2679 35.1844V35.0343C43.2679 35.0343 43.418 34.1767 44.6401 34.1553C44.7474 34.1553 44.9618 34.1553 45.0475 34.1553C45.3263 34.1553 45.5192 34.241 45.6264 34.3482C45.7122 34.4554 45.7336 34.6484 45.6908 34.9057C45.6908 34.9271 45.5835 35.5704 45.3691 36.235C45.3691 36.235 45.3477 36.3208 45.3048 36.4494H31.9901C31.9901 36.4494 31.9043 36.4709 31.9043 36.5352V37.6716C19.6616 36.5995 11.2782 28.6021 9.52008 26.5866C9.52008 26.5866 9.06982 27.4014 9.06982 28.5163C9.06982 29.374 9.32711 30.3817 10.2276 31.368C9.86313 32.2685 9.37 34.7342 11.8142 36.7925C11.7714 37.0283 11.7285 37.3714 11.7285 37.7359C11.7285 38.958 12.1787 40.7805 14.43 42.3028C14.43 42.3028 14.5801 42.41 14.6873 42.4743C14.6444 42.946 14.7088 46.5052 19.7902 47.7487C20.2834 49.2067 21.677 51.0506 25.1076 51.2865C26.0724 52.8517 27.4446 53.645 29.3314 53.6235C29.7817 54.3311 30.6607 54.8885 31.7113 55.1458C32.3974 55.3173 33.105 55.3173 33.7911 55.1887C34.0055 55.3602 34.4129 55.5961 34.9275 55.8105C34.3271 56.2607 34.0269 56.7968 33.8125 57.44C33.4909 58.4477 33.4909 59.434 34.5415 60.8276C34.906 61.3208 35.099 61.7496 35.2276 62.2427C35.3348 62.7359 35.3563 63.2719 35.3563 64.0652C35.3563 64.5583 35.4635 65.03 35.6564 65.4589C35.8494 65.8662 36.1496 66.2307 36.5141 66.5095C36.7285 66.6595 36.9643 66.7882 37.2216 66.874C37.0715 67.0884 36.9429 67.3242 36.8571 67.5815C36.7285 68.0103 36.6856 68.482 36.7714 68.9323C36.8571 69.3825 37.0501 69.8328 37.3503 70.2402C37.822 70.8834 38.1221 71.3336 38.3151 71.7839C38.5081 72.2556 38.5938 72.7059 38.5938 73.3276C38.551 75.0858 39.1084 75.8791 39.9875 76.5009C40.8666 77.1227 41.7671 77.4228 43.4395 76.8439C44.0184 76.651 44.4901 76.5867 45.0046 76.6295C45.4978 76.6724 46.0338 76.8225 46.7842 77.0798C47.2559 77.2299 47.7276 77.2728 48.1993 77.2299C48.6496 77.1656 49.0998 76.994 49.4643 76.7367C49.6787 76.5867 49.8717 76.3937 50.0218 76.1793C50.1933 76.3937 50.3648 76.5867 50.5793 76.7367C50.9438 76.994 51.3726 77.1656 51.8443 77.2299C52.316 77.2942 52.7877 77.2299 53.2594 77.0798C54.0098 76.8439 54.5458 76.6939 55.039 76.6295C55.5321 76.5867 56.0038 76.6295 56.5827 76.8439C58.2551 77.4228 59.1556 77.1227 60.0347 76.5009C60.8923 75.8791 61.4712 75.0858 61.4283 73.3276C61.4283 72.7059 61.5141 72.2556 61.707 71.7839C61.9 71.3336 62.2002 70.8619 62.6719 70.2402C62.9721 69.8328 63.165 69.404 63.2508 68.9323C63.3365 68.482 63.3151 68.0103 63.165 67.5815C63.0793 67.3242 62.9721 67.0884 62.8005 66.874C63.0578 66.7882 63.2937 66.6595 63.5081 66.5095C63.8726 66.2522 64.1727 65.8877 64.3657 65.4589C64.5587 65.03 64.6659 64.5583 64.6659 64.0652C64.6659 63.2719 64.6873 62.7144 64.7945 62.2427C64.9017 61.7496 65.1161 61.3208 65.4806 60.8276C66.5527 59.434 66.5527 58.4692 66.2096 57.44C65.9952 56.7968 65.695 56.2607 65.0947 55.8105C65.6307 55.5961 66.0167 55.3602 66.2311 55.1887C66.9172 55.3173 67.6247 55.2959 68.3108 55.1458C69.3614 54.8885 70.2405 54.3311 70.6908 53.6235C72.5775 53.6235 73.9712 52.8517 74.9146 51.2865C78.3451 51.0506 79.7388 49.2067 80.2319 47.7487C85.3134 46.5052 85.3777 42.946 85.3348 42.4743C85.442 42.41 85.5921 42.3028 85.5921 42.3028C87.8648 40.7805 88.2937 38.958 88.2937 37.7359C88.2937 37.3714 88.2508 37.0069 88.2079 36.7925C90.6522 34.7342 90.159 32.2685 89.7945 31.368H89.816ZM43.6539 42.3242C42.6676 42.2384 40.5878 41.8096 38.9798 40.0944C38.6153 39.7084 38.165 39.3011 37.7791 39.0009C38.5295 39.0652 42.9034 39.4511 44.4686 39.6012C44.2328 40.4374 43.954 41.3594 43.6539 42.3242ZM61.0209 40.1158C59.4129 41.8311 57.3331 42.2384 56.3468 42.3457C56.0467 41.3808 55.7679 40.4589 55.5321 39.6227C57.1187 39.4726 61.4712 39.0866 62.2216 39.0223C61.8143 39.3225 61.3854 39.7299 61.0209 40.1158Z" fill="#A87122"/>
<path d="M54.4389 61.8139C52.981 60.8276 50.987 61.235 50.0007 62.693C49.0144 64.1724 47.0419 64.5583 45.5624 63.5721C44.083 62.5858 43.6971 60.6132 44.6834 59.1338C43.9973 60.1415 43.6113 61.3637 43.6113 62.693C43.6113 66.2307 46.4844 69.0824 50.0007 69.0824C52.2305 69.0824 54.1817 67.946 55.318 66.2307C56.3043 64.7513 55.8969 62.7788 54.4389 61.7925V61.8139Z" fill="#014493"/>
<path d="M50.0002 56.3036C47.7703 56.3036 45.8192 57.44 44.6828 59.1552C43.6966 60.6346 44.1039 62.6072 45.5619 63.5935C47.0199 64.5797 49.0139 64.1724 50.0002 62.7144C50.9864 61.235 52.959 60.849 54.4384 61.8353C55.9178 62.8216 56.3038 64.7942 55.3175 66.2736C56.0036 65.2659 56.3895 64.0437 56.3895 62.7144C56.3895 59.1767 53.5165 56.325 50.0002 56.325V56.3036Z" fill="#D71723"/>
<path d="M70.4766 44.9614H64.9878L65.0092 44.9399L67.7322 39.0223L70.4766 44.9614Z" fill="#F3C921"/>
<path d="M72.5565 41.8739C71.7418 42.1526 70.8627 42.3027 70.0051 42.3456L69.126 40.4802C71.1629 40.2015 73.0711 39.7727 74.8721 39.2581C74.7863 39.8585 74.4004 41.2307 72.5565 41.8739Z" fill="#F3C921"/>
<path d="M73.0924 42.3457C72.7923 43.5463 72.149 44.3825 71.1413 44.7899L70.2837 42.946C71.1199 42.8817 71.9775 42.7316 72.7708 42.4529C72.878 42.41 72.9852 42.3671 73.0924 42.3242V42.3457Z" fill="#F3C921"/>
<path d="M58.7273 54.9313C58.7273 54.9313 58.7059 54.7598 58.6415 54.7169C58.5772 54.6526 58.5129 54.6312 58.4271 54.6312C58.3842 54.6312 58.3628 54.6312 58.3199 54.6312C58.277 54.6312 58.2342 54.674 58.1913 54.6955L55.211 57.7401C54.9966 57.5042 54.7608 57.2898 54.5249 57.0969L57.205 53.5162C57.5909 53.0017 58.1484 52.6157 58.7273 52.6157C59.3491 52.6157 59.928 52.8945 60.3568 53.4734C60.8499 54.138 61.2359 54.6526 61.7076 55.0385C60.7427 55.7032 58.3414 57.397 56.1544 58.9193C55.9829 58.6406 55.7899 58.3619 55.5755 58.1046L58.663 55.1029C58.663 55.1029 58.7487 54.9528 58.7487 54.8884L58.7273 54.9313Z" fill="#F3C921"/>
<path d="M55.082 52.187C55.082 52.187 54.9962 52.0369 54.9319 52.0154C54.8461 51.9726 54.7818 51.9726 54.6961 52.0154C54.6103 52.0154 54.546 52.1012 54.5245 52.1655L52.6377 56.0249C52.3376 55.8962 52.0159 55.8105 51.6943 55.7247C52.4662 53.1732 53.3238 50.3645 53.6669 49.2496C54.1815 49.5712 54.7818 49.7856 55.5751 50.0429C56.2612 50.2787 56.69 50.729 56.9045 51.3293C57.076 51.8868 56.9045 52.53 56.5185 53.0446L53.9456 56.6895C53.6883 56.518 53.4096 56.3679 53.1309 56.2178L55.1034 52.4443C55.1034 52.4443 55.1463 52.3585 55.1463 52.2942C55.1463 52.2727 55.1463 52.2298 55.1463 52.2084L55.082 52.187Z" fill="#F3C921"/>
<path d="M44.9193 52.4228L46.8918 56.1964C46.6131 56.325 46.3344 56.4751 46.0771 56.6681L43.5042 53.0231C43.1182 52.5086 42.9467 51.8653 43.1182 51.3079C43.3112 50.7075 43.74 50.2573 44.4476 50.0214C45.2409 49.7641 45.8412 49.5497 46.3558 49.2281C46.6989 50.343 47.5565 53.1518 48.3284 55.7032C48.0068 55.789 47.6851 55.8748 47.385 56.0034L45.4982 52.1441C45.4982 52.1441 45.391 52.0154 45.3266 51.994C45.2409 51.9725 45.1551 51.9725 45.0908 51.994C45.005 52.0369 44.9622 52.1012 44.9407 52.1655C44.9407 52.2084 44.9407 52.2298 44.9407 52.2727C44.9407 52.3156 44.9407 52.3585 44.9836 52.4014L44.9193 52.4228Z" fill="#F3C921"/>
<path d="M41.3381 55.1458L44.4255 58.1475C44.2111 58.4048 44.0182 58.6835 43.8466 58.9623C41.6597 57.4185 39.2583 55.7461 38.2935 55.0815C38.7437 54.6955 39.1511 54.181 39.6442 53.5163C40.073 52.9374 40.6519 52.6587 41.2737 52.6587C41.8526 52.6587 42.4101 53.0232 42.796 53.5592L45.4761 57.1398C45.2403 57.3328 45.0044 57.5472 44.79 57.783L41.8098 54.7384C41.8098 54.7384 41.724 54.6741 41.6811 54.6741C41.6382 54.6741 41.6168 54.6741 41.5739 54.6741C41.4881 54.6741 41.4238 54.6955 41.3595 54.7599C41.2952 54.8242 41.2737 54.8885 41.2737 54.9743C41.2737 55.06 41.2952 55.1458 41.3595 55.1887L41.3381 55.1458Z" fill="#F3C921"/>
<path d="M64.3437 41.4451C64.9226 41.0592 65.5658 40.8233 66.2305 40.759L65.6945 41.8739C65.1585 41.7453 64.7082 41.5952 64.3223 41.4451H64.3437Z" fill="#F3C921"/>
<path d="M65.4383 42.4314L64.7736 43.8465C63.9588 43.4391 63.2942 43.0317 62.9297 42.7959C62.9511 42.753 62.994 42.7101 63.0154 42.6672C63.2513 42.367 63.4871 42.1098 63.7659 41.8739C64.1733 42.0669 64.7522 42.2598 65.4168 42.4314H65.4383Z" fill="#F3C921"/>
<path d="M62.436 42.217C61.2138 43.868 59.1769 44.94 57.2473 45.133C57.0329 44.4897 56.8185 43.8465 56.6255 43.2247C57.7619 43.0961 59.9274 42.6244 61.707 40.7162C62.8219 39.5369 64.2584 38.5506 66.3167 38.5506C66.6384 38.5506 66.96 38.5506 67.2816 38.5506L66.574 40.0729C65.1804 40.0729 63.6152 40.6733 62.4574 42.2385L62.436 42.217Z" fill="#F3C921"/>
<path d="M58.2957 51.8225C58.1675 51.8225 58.0607 51.8654 57.9326 51.9083C57.8899 51.9083 57.8471 51.9297 57.8044 51.9511C57.8044 51.9083 57.8044 51.8654 57.8044 51.8225C57.8044 51.5652 57.7617 51.3079 57.6763 51.0506C57.6763 51.0506 57.6763 51.0292 57.6763 51.0077C57.7831 50.8577 57.9112 50.6861 58.018 50.4503C58.1462 50.9434 58.2316 51.3937 58.2957 51.8225Z" fill="#F3C921"/>
<path d="M57.4405 50.536C57.1404 50.0214 56.6472 49.6355 56.0469 49.3782C56.1541 49.2925 56.8616 48.7136 57.1189 47.4914C57.3762 48.3062 57.6335 49.078 57.8265 49.807C57.7193 50.1072 57.5692 50.3431 57.4405 50.536Z" fill="#F3C921"/>
<path d="M54.9746 46.6767C55.2962 46.3551 55.8751 45.6261 56.0681 44.3825C56.2611 44.94 56.4326 45.4975 56.6256 46.0764V46.1192C56.6899 46.2908 56.7542 46.4837 56.8185 46.6553C56.7756 47.856 56.1539 48.6493 55.8966 48.8208C55.6393 48.6493 55.0175 47.8774 54.9746 46.6981V46.6767Z" fill="#F3C921"/>
<path d="M55.5753 49.2067C54.9964 49.0137 54.5461 48.8422 54.1816 48.6278C54.396 48.3919 54.589 48.0917 54.7391 47.6629C54.9535 48.4562 55.3394 48.9494 55.5753 49.1852V49.2067Z" fill="#F3C921"/>
<path d="M55.9186 43.8465C55.9186 43.8465 55.7899 43.9751 55.7471 43.9966C55.5112 43.8465 54.9109 43.1604 54.7822 42.0883C54.868 42.024 55.0181 41.8739 55.1896 41.6166C55.404 42.3456 55.6399 43.0746 55.8972 43.8465H55.9186Z" fill="#F3C921"/>
<path d="M55.6395 44.5755C55.3608 45.5403 54.8677 46.1407 54.6318 46.2908C54.396 46.1407 53.8171 45.4546 53.667 44.3397C53.86 44.1681 54.2888 43.7179 54.5675 42.9246C54.9106 44.0609 55.5967 44.5541 55.6395 44.5755Z" fill="#F3C921"/>
<path d="M53.4528 43.825C53.2169 43.6749 52.6809 43.0317 52.5522 42.024C52.7667 41.831 53.2169 41.3164 53.4528 40.4803C53.6886 41.3164 54.1389 41.831 54.3533 42.024C54.2246 43.0317 53.6886 43.6749 53.4528 43.825Z" fill="#F3C921"/>
<path d="M52.2946 41.5523C52.0587 41.4022 51.5441 40.759 51.394 39.7727C51.6085 39.5583 52.0587 39.0652 52.2946 38.229C52.5304 39.0652 52.9807 39.5583 53.1951 39.7727C53.045 40.759 52.5304 41.4022 52.2946 41.5523Z" fill="#F3C921"/>
<path d="M52.0588 42.024C51.9302 43.0317 51.3942 43.6749 51.1583 43.825C50.9225 43.6749 50.3865 43.0317 50.2578 42.024C50.4722 41.831 50.9225 41.3164 51.1583 40.4803C51.3942 41.3164 51.8444 41.831 52.0588 42.024Z" fill="#F3C921"/>
<path d="M50.0001 41.5523C49.7643 41.4022 49.2497 40.759 49.0996 39.7727C49.314 39.5583 49.7643 39.0652 50.0001 38.229C50.236 39.0652 50.6862 39.5583 50.9006 39.7727C50.7506 40.759 50.236 41.4022 50.0001 41.5523Z" fill="#F3C921"/>
<path d="M49.7429 42.024C49.6143 43.0317 49.0783 43.6749 48.8424 43.825C48.6066 43.6749 48.0705 43.0317 47.9419 42.024C48.1563 41.831 48.6066 41.3164 48.8424 40.4803C49.0783 41.3164 49.5285 41.831 49.7429 42.024Z" fill="#F3C921"/>
<path d="M47.6847 41.5523C47.4488 41.4022 46.9343 40.759 46.7842 39.7727C46.9986 39.5583 47.4488 39.0652 47.6847 38.229C47.9205 39.0652 48.3708 39.5583 48.5852 39.7727C48.4351 40.759 47.9205 41.4022 47.6847 41.5523Z" fill="#F3C921"/>
<path d="M47.449 42.024C47.3203 43.0317 46.7843 43.6749 46.5485 43.825C46.3126 43.6749 45.7766 43.0317 45.6479 42.024C45.8624 41.831 46.3126 41.3164 46.5485 40.4803C46.7843 41.3164 47.2346 41.831 47.449 42.024Z" fill="#F3C921"/>
<path d="M46.3344 44.3397C46.1843 45.4546 45.6054 46.1407 45.3695 46.2908C45.1337 46.1407 44.6405 45.5403 44.3618 44.5755C44.3618 44.5755 45.0908 44.0395 45.4339 42.9246C45.6911 43.7179 46.1414 44.1896 46.3344 44.3397Z" fill="#F3C921"/>
<path d="M42.1939 51.9726C42.1939 51.9726 42.1085 51.9511 42.0657 51.9297C41.9376 51.8868 41.8308 51.8654 41.7026 51.8439C41.7667 51.4365 41.8522 50.9863 41.9803 50.4717C42.0871 50.7076 42.2153 50.8791 42.3221 51.0292C42.3221 51.0292 42.3221 51.0506 42.3221 51.0721C42.2366 51.3079 42.1939 51.5652 42.1939 51.8439C42.1939 51.8868 42.1939 51.9297 42.1939 51.9726Z" fill="#F3C921"/>
<path d="M42.1752 49.807C42.3682 49.0995 42.6255 48.3062 42.8828 47.4914C43.1401 48.7136 43.8476 49.2925 43.9548 49.3782C43.3545 49.6355 42.8828 50.0214 42.5612 50.536C42.4111 50.3431 42.2825 50.1072 42.1538 49.807H42.1752Z" fill="#F3C921"/>
<path d="M43.1611 46.6338C43.2255 46.4623 43.2898 46.2693 43.3327 46.0978V46.0549C43.5256 45.4974 43.7186 44.94 43.9116 44.3611C44.126 45.6047 44.7049 46.3336 45.005 46.6553C44.9622 47.8345 44.3404 48.6064 44.0831 48.7779C43.8258 48.6064 43.1826 47.8131 43.1611 46.6124V46.6338Z" fill="#F3C921"/>
<path d="M45.262 47.6844C45.4121 48.0917 45.605 48.4133 45.8194 48.6492C45.4335 48.8636 44.9832 49.0351 44.4258 49.2281C44.6616 48.9922 45.0476 48.4991 45.262 47.7058V47.6844Z" fill="#F3C921"/>
<path d="M44.254 43.9966C44.254 43.9966 44.1468 43.9108 44.0825 43.8465C44.3398 43.0961 44.5757 42.3456 44.7901 41.6166C44.9616 41.8739 45.1331 42.024 45.1974 42.0883C45.0688 43.1604 44.4899 43.8465 44.2326 43.9966H44.254Z" fill="#F3C921"/>
<path d="M38.2724 40.7162C40.052 42.6244 42.2175 43.0961 43.3539 43.2247C43.1395 43.8465 42.9465 44.4897 42.7321 45.133C40.8024 44.94 38.787 43.868 37.5434 42.217C36.3856 40.6518 34.8204 40.0729 33.4268 40.0729L32.7192 38.5506C33.0409 38.5506 33.3625 38.5506 33.6626 38.5506C35.721 38.5506 37.1575 39.5369 38.2724 40.7162Z" fill="#F3C921"/>
<path d="M35.6568 41.4451C35.2923 41.5952 34.8206 41.7453 34.2846 41.8739L33.7485 40.759C34.4132 40.8233 35.0564 41.0592 35.6353 41.4237L35.6568 41.4451Z" fill="#F3C921"/>
<path d="M36.2144 41.8739C36.4717 42.1098 36.729 42.367 36.9648 42.6672C36.9862 42.7101 37.0291 42.753 37.0506 42.7959C36.6861 43.0317 36.0428 43.4391 35.2067 43.8465L34.542 42.4314C35.2281 42.2384 35.7856 42.0454 36.1929 41.8739H36.2144Z" fill="#F3C921"/>
<path d="M35.7852 45.0686L35.4636 44.4039C36.3641 43.9536 37.0931 43.4819 37.4361 43.2461C37.7149 43.5463 37.9721 43.8036 38.2723 44.0608C37.5648 44.9185 35.3349 47.277 32.4404 47.2341C30.7895 47.2126 29.9318 46.3979 29.5459 45.819C30.1891 46.1406 31.1325 46.4837 32.2689 46.4837C34.0914 46.4837 35.3778 45.6475 35.7637 45.3473C35.8924 45.2401 35.8495 45.1758 35.8066 45.09L35.7852 45.0686Z" fill="#F3C921"/>
<path d="M38.7651 44.4468C39.0867 44.6612 39.4083 44.8756 39.7299 45.0471C39.3225 45.819 37.7574 48.4348 35.163 48.8636C33.5978 49.1209 32.8045 48.3276 32.4829 47.8773C35.7205 47.8773 38.0361 45.3473 38.7436 44.4682L38.7651 44.4468Z" fill="#F3C921"/>
<path d="M40.2878 45.283C40.6523 45.433 41.0382 45.5617 41.4241 45.6475C41.124 46.5265 40.2878 48.6706 38.7869 49.5497C37.3718 50.3644 36.3212 49.7855 35.8066 49.3567C38.4653 48.6277 39.9233 46.0334 40.2878 45.283Z" fill="#F3C921"/>
<path d="M39.1088 50.0643C40.8884 49.0566 41.746 46.6553 42.0247 45.7762C42.1748 45.7976 42.3249 45.8191 42.4964 45.8405C42.0247 47.277 41.553 48.6493 41.2314 49.8714C40.3309 50.6218 39.3017 50.4074 38.8086 50.2359C38.9158 50.193 39.0016 50.1287 39.1088 50.0858V50.0643Z" fill="#F3C921"/>
<path d="M46.2914 48.3276C45.9697 48.0704 45.5838 47.5772 45.498 46.8697C45.5624 46.8268 46.2056 46.3336 46.5486 45.2187C46.9131 46.2479 47.5349 46.7196 47.5564 46.741L47.6207 46.7839C47.4277 46.9769 47.2562 47.2127 47.0847 47.47C46.8274 47.8345 46.5701 48.1132 46.2914 48.3276Z" fill="#F3C921"/>
<path d="M46.7417 44.3611C46.9347 44.211 47.4278 43.6964 47.7065 42.753C47.9638 43.6964 48.4784 44.1895 48.6714 44.3611C48.4784 45.3688 47.9424 46.012 47.7065 46.1621C47.4707 46.012 46.9347 45.3688 46.7417 44.3611Z" fill="#F3C921"/>
<path d="M48.9071 45.0257C49.0357 45.3473 49.1858 45.6046 49.3359 45.819C49.0786 45.8619 48.8213 45.9477 48.564 46.0763C48.4997 46.1192 48.4139 46.1621 48.3496 46.2049C48.5426 45.9262 48.7784 45.5403 48.9285 45.0257H48.9071Z" fill="#F3C921"/>
<path d="M49.0996 44.2967C49.314 44.1038 49.7642 43.5892 50.0001 42.753C50.2359 43.5892 50.6862 44.1038 50.9006 44.2967C50.7076 45.0472 50.3217 45.5617 50.0858 45.7761H49.8929C49.657 45.5617 49.2925 45.0472 49.0781 44.2967H49.0996Z" fill="#F3C921"/>
<path d="M51.0939 45.0257C51.244 45.5403 51.4584 45.9262 51.6728 46.2049C51.6085 46.1621 51.5227 46.1192 51.4584 46.0763C51.2011 45.9477 50.9224 45.8619 50.6865 45.819C50.8366 45.6046 50.9867 45.3473 51.1153 45.0257H51.0939Z" fill="#F3C921"/>
<path d="M51.3511 44.3611C51.544 44.211 52.0372 43.6964 52.3159 42.753C52.5732 43.6964 53.0878 44.1895 53.2807 44.3611C53.0878 45.3688 52.5518 46.012 52.3159 46.1621C52.0801 46.012 51.544 45.3688 51.3511 44.3611Z" fill="#F3C921"/>
<path d="M52.4237 46.741C52.4237 46.741 53.0884 46.2479 53.4314 45.2187C53.7745 46.3122 54.4177 46.8268 54.482 46.8697C54.3748 47.5772 54.0103 48.0704 53.6887 48.3276C53.41 48.1132 53.1527 47.8345 52.8954 47.47C52.7239 47.2127 52.5309 46.9769 52.3594 46.7839L52.4237 46.741Z" fill="#F3C921"/>
<path d="M57.4829 45.8191C57.633 45.8191 57.8045 45.7762 57.9546 45.7547C58.2333 46.6338 59.1124 49.0352 60.8706 50.0429C60.9778 50.1072 61.0635 50.1501 61.1707 50.193C60.6776 50.3645 59.6484 50.5789 58.7479 49.8285C58.4263 48.6064 57.9546 47.2341 57.4829 45.7976V45.8191Z" fill="#F3C921"/>
<path d="M58.5552 45.6475C58.9626 45.5617 59.327 45.433 59.6915 45.283C60.056 46.0119 61.514 48.6277 64.1727 49.3567C63.6581 49.7855 62.6075 50.3644 61.1924 49.5497C59.6915 48.6706 58.8339 46.5265 58.5552 45.6475Z" fill="#F3C921"/>
<path d="M60.25 45.0257C60.593 44.8542 60.9146 44.6612 61.2148 44.4254C61.9223 45.3044 64.2379 47.8559 67.4755 47.8344C67.1539 48.2847 66.3606 49.0995 64.7954 48.8207C62.2011 48.3919 60.6359 45.7761 60.2285 45.0043L60.25 45.0257Z" fill="#F3C921"/>
<path d="M61.7075 44.0608C62.0077 43.825 62.2864 43.5463 62.5437 43.2461C62.8868 43.4819 63.5943 43.9322 64.5163 44.4039L64.1947 45.0686C64.1947 45.0686 64.1303 45.2186 64.2375 45.3259C64.602 45.626 65.9099 46.4622 67.7324 46.4622C68.8688 46.4622 69.8122 46.1192 70.4554 45.7976C70.048 46.3979 69.2118 47.1912 67.5609 47.2126C64.6664 47.2555 62.4365 44.897 61.729 44.0394L61.7075 44.0608Z" fill="#F3C921"/>
<path d="M67.3251 37.2856V37.693C67.3251 37.693 57.784 38.4648 55.3183 38.6792C55.2111 38.229 55.1253 37.8216 55.061 37.4357C55.061 37.3928 55.061 37.3285 55.0396 37.2856H67.3251Z" fill="#F3C921"/>
<path d="M55.0393 41.0592C54.8892 41.3164 54.7177 41.488 54.6105 41.5523C54.3746 41.4022 53.86 40.759 53.71 39.7727C53.8815 39.6012 54.1817 39.2581 54.3961 38.6792C54.5676 39.3868 54.782 40.2015 55.0179 41.0377L55.0393 41.0592Z" fill="#F3C921"/>
<path d="M45.0267 33.2332C45.0267 33.2332 44.7051 33.2332 44.5764 33.2332C44.362 33.2332 43.4186 33.2332 43.1613 33.8336C42.9684 33.5549 42.8183 33.2547 42.7111 32.9331C42.6039 32.59 42.5396 32.247 42.5396 31.9254C42.5396 31.5823 42.6039 31.3464 42.7325 31.1749C42.8612 31.0034 43.0541 30.8962 43.3329 30.8104C43.9761 30.6389 44.898 30.5531 45.5841 30.6175H45.7986C46.1202 30.6389 47.0421 31.1749 47.621 32.054C47.621 32.054 49.5936 31.6895 50.9229 30.3816C50.9229 30.3816 48.4358 30.6389 46.3775 30.3387C46.3346 30.3387 46.2703 30.2958 46.3131 30.2101C46.3131 30.2101 46.3131 30.2101 46.3346 30.1672C46.5061 29.9099 46.742 29.6097 47.5138 29.3739C47.8783 29.2452 48.4358 29.1809 49.1219 29.138C49.8294 29.1166 50.6442 29.138 51.5661 29.2024C52.9598 29.3096 53.989 29.2024 54.7394 29.0094C54.525 29.5669 54.139 30.2315 53.4315 30.7032L53.1742 30.8748L52.8955 31.0677L53.0241 31.3679L53.1313 31.6466C53.3672 32.2255 53.5173 33.3404 53.7102 34.6483V34.7984C53.8389 35.6132 53.9675 36.5995 54.139 37.5857C54.139 37.5857 54.139 37.6286 54.139 37.6501C54.0962 38.572 53.6459 39.1724 53.41 39.3224C53.1313 39.1295 52.4881 38.3147 52.4881 37.0712H52.0378C52.0378 38.3147 51.3732 39.1295 51.1159 39.3224C50.8371 39.1295 50.1939 38.3147 50.1939 37.0712H49.7437C49.7437 38.3147 49.079 39.1295 48.8217 39.3224C48.543 39.1295 47.8998 38.3147 47.8998 37.0712H47.4495C47.4495 38.3147 46.7848 39.1295 46.5275 39.3224C46.3131 39.1724 45.8843 38.6149 45.7986 37.7358C45.9486 37.1569 46.1416 36.4922 46.1416 36.4494C46.356 35.6989 46.4847 35.0343 46.4847 35.0128C46.5704 34.4768 46.4847 34.0694 46.2274 33.7478C45.9701 33.4477 45.5413 33.2547 45.0052 33.2332H45.0267Z" fill="#F3C921"/>
<path d="M46.2912 39.7727C46.1412 40.759 45.6266 41.4022 45.3907 41.5523C45.2835 41.488 45.112 41.3165 44.9619 41.0592C45.2192 40.2015 45.4336 39.4082 45.5837 38.7007C45.7981 39.2796 46.0983 39.6226 46.2698 39.7942L46.2912 39.7727Z" fill="#F3C921"/>
<path d="M32.6763 37.2856H45.0047C44.9404 37.5214 44.8761 37.7787 44.8332 37.9717C44.7903 38.1861 44.726 38.422 44.6831 38.6792C42.1102 38.4648 32.6763 37.693 32.6763 37.693V37.2856Z" fill="#F3C921"/>
<path d="M32.2688 39.0223L34.9918 44.9399V44.9614H29.5244L32.2688 39.0223Z" fill="#F3C921"/>
<path d="M27.2303 42.4742C28.0236 42.7529 28.8812 42.903 29.7174 42.9673L28.8598 44.8113C27.8521 44.3824 27.2089 43.5677 26.9087 42.367C27.0159 42.4099 27.1231 42.4528 27.2303 42.4956V42.4742Z" fill="#F3C921"/>
<path d="M25.1289 39.2795C26.9299 39.8156 28.8596 40.2229 30.875 40.5017L29.996 42.367C29.1383 42.3241 28.2593 42.1741 27.4445 41.8953C25.6006 41.2521 25.2147 39.8799 25.1289 39.2795Z" fill="#F3C921"/>
<path d="M9.90608 28.2805C15.0304 33.4906 23.7569 37.9288 31.8186 38.5077L31.1754 39.8799C20.4978 38.5935 13.015 32.9117 10.678 30.6389C9.82032 29.8242 9.73455 28.8379 9.90608 28.3019V28.2805Z" fill="#F3C921"/>
<path d="M10.9144 31.7968C13.1442 33.7907 17.9684 37.0498 24.465 39.0652C24.4864 39.4511 24.658 40.5661 25.5799 41.4666C21.3132 40.952 15.5027 38.9151 12.3295 36.1492C10.3569 34.4125 10.5928 32.6973 10.9144 31.7968Z" fill="#F3C921"/>
<path d="M12.5439 37.2427C16.2103 40.0729 22.1066 41.8096 26.2018 42.1527C26.3518 42.8816 26.6091 43.6321 27.1237 44.2539C23.4144 44.5326 18.4402 43.9537 14.8596 41.5523C12.5654 40.0086 12.4367 38.1432 12.5439 37.2427Z" fill="#F3C921"/>
<path d="M18.9335 46.6767C17.0467 45.9477 15.7174 44.6827 15.5244 42.8173C19.3194 44.8756 24.1651 45.1973 27.6814 44.8328C27.9387 45.0472 28.2388 45.2187 28.5819 45.3688C28.6248 45.5189 28.882 46.1621 29.5253 46.7624C28.1316 47.1912 23.4146 48.3919 18.9121 46.6767H18.9335Z" fill="#F3C921"/>
<path d="M25.429 50.4503C23.0491 50.3645 21.4839 49.5283 20.7764 47.9631C25.4719 48.9494 29.6314 47.4271 30.146 47.2127C30.5748 47.47 31.0894 47.6844 31.7326 47.7916C31.7541 47.8559 31.9685 48.2633 32.3973 48.6707C31.5825 49.1424 28.8167 50.5789 25.429 50.4503Z" fill="#F3C921"/>
<path d="M26.0078 51.2007C29.2668 51.1363 32.0541 49.6784 32.9332 49.0995C33.4478 49.3996 34.1339 49.614 35.0558 49.5068C35.163 49.614 35.3131 49.7641 35.5275 49.9142C34.82 50.6003 32.9332 52.1869 30.296 52.6372C28.3234 52.9802 26.9512 52.5085 26.0078 51.2007Z" fill="#F3C921"/>
<path d="M31.9686 54.3525C31.261 54.2667 30.6178 53.8593 30.2104 53.4091C33.2979 52.9802 35.3777 51.0291 36.0852 50.2573C36.5998 50.5146 37.2645 50.6646 38.0578 50.4931C38.165 50.6003 38.3365 50.7075 38.5938 50.8147C37.8648 51.801 35.3991 54.8027 31.9472 54.3739L31.9686 54.3525Z" fill="#F3C921"/>
<path d="M34.7773 54.8028C37.2002 53.9666 38.8297 51.7153 39.3014 50.9863C39.8159 51.0506 40.4377 51.0292 41.0166 50.7505C40.9309 51.1578 40.8665 51.5223 40.8237 51.8654C40.1376 51.994 39.4943 52.4228 39.0226 53.0661C38.1221 54.3096 37.629 54.8671 36.4068 55.253C36.4068 55.253 36.4068 55.253 36.3854 55.253C35.6779 55.2102 35.1418 54.9957 34.7773 54.8028Z" fill="#F3C921"/>
<path d="M35.2497 60.3131C34.3063 59.0266 34.4564 58.362 34.6708 57.7187C34.8852 57.0755 35.1425 56.4537 36.6648 55.9606C37.1365 55.8105 37.501 55.639 37.844 55.4246C38.7231 56.0249 41.296 57.8045 43.6331 59.3911C43.483 59.6698 43.3758 59.9486 43.2686 60.2273L37.501 58.2976C37.3295 58.2333 37.1365 58.3405 37.0936 58.512C37.0293 58.6836 37.1365 58.8765 37.308 58.9194L43.0971 60.7419C43.0113 61.0421 42.947 61.3422 42.9041 61.6424C40.0739 61.5566 36.965 61.4709 35.8929 61.4494C35.7428 61.0849 35.5499 60.7204 35.2712 60.3345L35.2497 60.3131Z" fill="#F3C921"/>
<path d="M37.0283 65.7161C36.5137 65.3516 36.2135 64.7942 36.2135 64.0652C36.2135 63.229 36.1921 62.5858 36.042 62.0069C37.2212 62.0069 40.1372 62.0712 42.8173 62.1355C42.8173 62.3285 42.7959 62.5214 42.7959 62.7144C42.7959 62.8645 42.7959 62.9931 42.7959 63.1432L38.5291 63.7436C38.5291 63.7436 38.379 63.8079 38.3362 63.8722C38.2933 63.9365 38.2718 64.0223 38.2718 64.1081C38.2718 64.1938 38.3362 64.2582 38.4005 64.301C38.4219 64.3225 38.4648 64.3439 38.4862 64.3439C38.5291 64.3439 38.572 64.3439 38.6363 64.3439L42.8387 63.6364C42.8816 63.958 42.9459 64.2582 43.0317 64.5583L38.765 65.8877C38.1432 66.0806 37.4785 66.0592 37.0068 65.7161H37.0283Z" fill="#F3C921"/>
<path d="M38.036 69.7041C37.6072 69.1038 37.5214 68.482 37.7144 67.8817C37.9073 67.3242 38.4219 66.9168 39.0437 66.7239L43.2675 65.2873C43.3748 65.5875 43.5034 65.8662 43.6535 66.145L39.837 68.0532C39.837 68.0532 39.7513 68.1175 39.7298 68.139C39.7298 68.1604 39.6869 68.2033 39.6869 68.2247C39.6655 68.3105 39.6655 68.3748 39.6869 68.4606C39.7298 68.5463 39.7941 68.5892 39.8799 68.6106C39.9442 68.6321 40.0514 68.6106 40.1157 68.6106L43.9108 66.5952C44.0823 66.8739 44.2967 67.1527 44.5111 67.3885C42.367 68.9966 40.03 70.7762 39.108 71.4837C38.8722 70.9263 38.5077 70.3902 38.036 69.7256V69.7041Z" fill="#F3C921"/>
<path d="M44.4262 75.7504C44.0402 75.7719 43.6328 75.8576 43.1611 76.0077C41.6388 76.5008 41.0599 76.1578 40.5239 75.7504C39.9879 75.3645 39.4733 74.9142 39.4733 73.3062C39.4733 72.813 39.4304 72.4056 39.3232 72.0197C40.1809 71.355 42.6466 69.4683 44.8764 67.753C45.0908 67.9674 45.3267 68.1818 45.5625 68.3533L41.939 73.2204C41.8318 73.3705 41.8533 73.5849 42.0033 73.6921C42.1534 73.7993 42.3678 73.7564 42.475 73.6278L45.9913 68.6749C46.2486 68.8465 46.5059 68.9966 46.7846 69.1466C45.8413 71.8053 44.7907 74.7427 44.4262 75.7504Z" fill="#F3C921"/>
<path d="M49.5503 74.3568C49.5503 75 49.3145 75.6218 48.8428 75.9648C48.3282 76.3293 47.7279 76.4365 47.0203 76.2221C46.227 75.9648 45.6052 75.7933 45.0049 75.7504C45.3908 74.6355 46.3342 71.8696 47.2133 69.3396C47.5135 69.4683 47.8351 69.5755 48.1567 69.6612L47.4277 73.8851C47.4277 73.8851 47.4277 74.0566 47.492 74.1209C47.5349 74.1853 47.6207 74.2281 47.7064 74.2496C47.7922 74.2496 47.878 74.2496 47.9423 74.1853C47.9637 74.1853 48.0066 74.1424 48.0066 74.1209C48.028 74.0781 48.0495 74.0352 48.0709 73.9923L48.6927 69.7684C48.9929 69.8328 49.3145 69.8542 49.6361 69.8757L49.5718 74.3353L49.5503 74.3568Z" fill="#F3C921"/>
<path d="M50.001 49.0995C49.808 49.0995 49.6794 49.2495 49.6794 49.4211L49.7437 55.4888C49.4435 55.4888 49.1219 55.5317 48.8432 55.5746C48.0499 52.873 47.1708 49.8713 46.8706 48.8422C47.1708 48.5849 47.4495 48.2847 47.7497 47.8988C48.6931 46.6123 49.3577 46.548 50.0438 46.548C50.73 46.548 51.3946 46.6123 52.338 47.8988C52.6167 48.2847 52.9169 48.6063 53.2171 48.8422C52.9169 49.8713 52.0378 52.873 51.2445 55.5746C50.9444 55.5317 50.6442 55.4888 50.344 55.4888L50.4083 49.4211C50.4083 49.2495 50.2583 49.0995 50.0653 49.0995H50.001Z" fill="#F3C921"/>
<path d="M52.9596 76.2436C52.252 76.458 51.6517 76.3508 51.1371 75.9863C50.6654 75.6432 50.4296 75.0214 50.4296 74.3782L50.3652 69.9185C50.6868 69.9185 50.987 69.8756 51.3086 69.8113L51.9304 74.0352C51.9304 74.0352 51.9519 74.1209 51.9947 74.1638C51.9947 74.1853 52.0376 74.2067 52.0591 74.2281C52.1234 74.271 52.2091 74.2925 52.2949 74.2925C52.3807 74.2925 52.445 74.2281 52.5093 74.1638C52.5522 74.0995 52.5736 74.0137 52.5736 73.928L51.8447 69.7041C52.1663 69.6184 52.4879 69.5112 52.788 69.3825C53.6671 71.9125 54.6105 74.6784 54.9965 75.7933C54.3961 75.8362 53.7743 76.0292 52.981 76.265L52.9596 76.2436Z" fill="#F3C921"/>
<path d="M60.5281 73.3062C60.5281 74.8928 60.0135 75.343 59.4775 75.7504C58.9415 76.1364 58.3412 76.5008 56.8403 76.0077C56.3686 75.8576 55.9612 75.7719 55.5753 75.7504C55.2108 74.7427 54.1816 71.8053 53.2168 69.1466C53.4955 69.018 53.7528 68.8465 54.0101 68.6749L57.5264 73.6278C57.6336 73.7779 57.848 73.7993 57.9981 73.6921C58.1482 73.5849 58.1696 73.3705 58.0624 73.2204L54.4389 68.3533C54.6748 68.1604 54.9106 67.9674 55.125 67.753C57.3549 69.4683 59.842 71.3765 60.6782 72.0197C60.571 72.4056 60.5281 72.813 60.5281 73.3062Z" fill="#F3C921"/>
<path d="M61.9434 69.7041C61.4502 70.3688 61.1072 70.9048 60.8713 71.4623C59.9279 70.7547 57.5909 68.9966 55.4683 67.3671C55.6827 67.1098 55.8756 66.8525 56.0686 66.5738L59.8636 68.5892C59.8636 68.5892 60.0352 68.6321 60.0995 68.5892C60.1852 68.5678 60.2496 68.5034 60.2924 68.4391C60.3353 68.3748 60.3353 68.289 60.2924 68.2033C60.2924 68.1604 60.271 68.1389 60.2496 68.1175C60.2281 68.0746 60.1852 68.0532 60.1424 68.0317L56.3259 66.1235C56.476 65.8448 56.6046 65.566 56.7118 65.2659L60.9357 66.7024C61.5575 66.8954 62.072 67.3242 62.265 67.8602C62.458 68.4606 62.3722 69.0823 61.9434 69.6827V69.7041Z" fill="#F3C921"/>
<path d="M63.7869 64.0652C63.7869 64.7942 63.4867 65.3516 62.9721 65.7161C62.5004 66.0592 61.8358 66.0806 61.214 65.8877L56.9473 64.5583C57.033 64.2582 57.0974 63.958 57.1402 63.6364L61.3426 64.3439C61.3426 64.3439 61.4498 64.3439 61.4927 64.3439C61.5142 64.3439 61.557 64.3225 61.5785 64.301C61.6428 64.2582 61.6857 64.1938 61.7071 64.1081C61.7071 64.0223 61.7071 63.9365 61.6428 63.8722C61.5999 63.8079 61.5142 63.765 61.4498 63.7436L57.1831 63.1432C57.1831 62.9931 57.1831 62.8645 57.1831 62.7144C57.1831 62.5214 57.1831 62.3285 57.1617 62.1355C59.8418 62.0926 62.7577 62.0283 63.937 62.0069C63.8083 62.5858 63.7654 63.229 63.7654 64.0652H63.7869Z" fill="#F3C921"/>
<path d="M64.7521 60.3131C64.4733 60.699 64.2589 61.0635 64.1303 61.428C63.0582 61.4494 59.9493 61.5352 57.1191 61.6209C57.0762 61.3208 57.0119 61.0206 56.9262 60.7204L62.7152 58.898C62.8867 58.8336 62.9939 58.6621 62.9296 58.4906C62.8653 58.3191 62.6723 58.2119 62.5008 58.2762L56.7546 60.2059C56.6474 59.9271 56.5188 59.627 56.3901 59.3697C58.7272 57.783 61.2786 56.0034 62.1792 55.4031C62.5008 55.6175 62.8867 55.789 63.3584 55.9391C64.8807 56.4323 65.138 57.054 65.3524 57.6973C65.5668 58.3405 65.7169 59.0052 64.7735 60.2916L64.7521 60.3131Z" fill="#F3C921"/>
<path d="M63.6156 55.2316C63.6156 55.2316 63.6156 55.2316 63.5942 55.2316C62.3935 54.8456 61.9003 54.2882 60.9784 53.0446C60.5067 52.4014 59.8849 51.9726 59.1773 51.8439C59.1345 51.5009 59.0701 51.1364 58.9844 50.729C59.5633 51.0077 60.1851 51.0292 60.7211 50.9649C61.1928 51.6938 62.8223 53.9451 65.2451 54.7813C64.8806 54.9743 64.3446 55.1887 63.637 55.2316H63.6156Z" fill="#F3C921"/>
<path d="M68.0319 54.3524C64.6014 54.7813 62.1142 51.7795 61.3853 50.7933C61.6425 50.7075 61.8141 50.5789 61.9213 50.4717C62.7146 50.6646 63.3793 50.4717 63.8938 50.2358C64.6014 51.0077 66.6811 52.9588 69.7686 53.3876C69.3827 53.8379 68.718 54.2452 68.0319 54.331V54.3524Z" fill="#F3C921"/>
<path d="M69.7047 52.6372C67.0675 52.1869 65.1807 50.6003 64.4731 49.9142C64.6876 49.7641 64.8376 49.614 64.9448 49.5068C65.8668 49.614 66.5529 49.3996 67.0675 49.0995C67.9466 49.6784 70.7339 51.1578 73.9929 51.2007C73.0495 52.5085 71.6773 52.9802 69.7047 52.6372Z" fill="#F3C921"/>
<path d="M74.5718 50.4503C71.1841 50.5789 68.4183 49.1424 67.6035 48.6707C68.0323 48.2633 68.2253 47.8559 68.2682 47.7916C68.9114 47.6844 69.426 47.4914 69.8548 47.2127C70.3694 47.4271 74.5503 48.9494 79.2244 47.9631C78.5169 49.5283 76.9517 50.3645 74.5718 50.4503Z" fill="#F3C921"/>
<path d="M81.0473 46.6767C76.5447 48.3919 71.8277 47.1912 70.4341 46.7624C71.0773 46.1621 71.3132 45.5189 71.3775 45.3688C71.7205 45.2187 72.0207 45.0472 72.278 44.8328C75.8157 45.1973 80.6614 44.8756 84.4349 42.8173C84.242 44.6827 82.9126 45.9477 81.0259 46.6767H81.0473Z" fill="#F3C921"/>
<path d="M85.1416 41.5737C81.561 43.9751 76.5653 44.554 72.8774 44.2753C73.392 43.6535 73.6493 42.8816 73.7994 42.1741C77.8946 41.831 83.8123 40.0729 87.4786 37.2641C87.5858 38.1861 87.4786 40.03 85.163 41.5737H85.1416Z" fill="#F3C921"/>
<path d="M87.6723 36.1492C84.4991 38.9365 78.6886 40.952 74.4219 41.4666C75.3438 40.5446 75.5154 39.4511 75.5368 39.0652C82.0334 37.0498 86.8576 33.7907 89.0874 31.7968C89.409 32.6973 89.6234 34.4125 87.6723 36.1492Z" fill="#F3C921"/>
<path d="M89.3233 30.6175C86.9862 32.8902 79.5034 38.572 68.8258 39.8585L68.1826 38.4863C76.2444 37.9074 84.9708 33.4691 90.0951 28.259C90.2667 28.795 90.1595 29.7813 89.3233 30.5961V30.6175Z" fill="#F3C921"/>
<path d="M10.1416 66.0164L10.9778 65.7162L10.3775 64.0652L11.278 63.7222L11.8355 65.2659L12.6717 64.9658L12.1142 63.422L12.9718 63.1004L13.5507 64.7085L14.3869 64.4083L13.465 61.8568L9.19824 63.422L10.1416 66.0164Z" fill="white"/>
<path d="M12.329 57.6759L7.93359 58.7694L8.16944 59.7556L9.82039 59.3483L8.46961 60.9134L8.79123 62.1784L10.1849 60.4417C10.5065 60.9349 11.1068 61.2136 11.7286 61.0635C12.5005 60.8706 12.9507 60.0987 12.7578 59.3483L12.3504 57.6759H12.329ZM11.8573 59.434C11.9216 59.7128 11.8144 59.9915 11.4713 60.0772C11.1283 60.163 10.8924 59.97 10.8281 59.6913L10.678 59.1124L11.7286 58.8551L11.8787 59.434H11.8573Z" fill="white"/>
<path d="M11.9432 54.3954C11.7931 53.1089 10.6353 52.1655 9.32739 52.3156C8.04095 52.4657 7.09755 53.6235 7.24764 54.9314C7.39772 56.2179 8.55552 57.1613 9.86342 57.0112C11.1499 56.8611 12.0933 55.7033 11.9432 54.3954ZM8.19103 54.8242C8.10527 54.0738 8.66273 53.4091 9.45604 53.3233C10.2279 53.2376 10.9355 53.7736 11.0212 54.5026C11.107 55.253 10.5495 55.9177 9.75621 56.0035C8.98434 56.0892 8.27679 55.5532 8.19103 54.8242Z" fill="white"/>
<path d="M15.4598 75.5575L19.2334 73.0275L18.6545 72.2128L16.3603 73.7565L17.4967 70.4761L16.9821 69.7042L13.2085 72.2128L13.7874 73.049L16.0816 71.5052L14.9452 74.7857L15.4598 75.5575Z" fill="white"/>
<path d="M22.3631 82.9117L25.4292 79.5669L24.7002 78.8808L22.8134 80.9392L23.1779 77.4872L22.4703 76.844L19.4043 80.1673L20.1547 80.8534L22.0201 78.8165L21.677 82.2685L22.3631 82.9117Z" fill="white"/>
<path d="M11.9863 67.946L12.7152 69.4254L12.0506 70.1329L12.5437 71.1192L15.8027 67.5172L15.3525 66.6166L10.5068 67.0455L11 68.0317L11.9434 67.9245L11.9863 67.946ZM14.3876 67.6672L13.3585 68.7607L12.9082 67.8388L14.3876 67.6672Z" fill="white"/>
<path d="M37.9726 86.3637C36.729 85.9563 35.3997 86.621 34.9923 87.8645C34.5849 89.1081 35.2496 90.4374 36.4931 90.8448C37.7367 91.2522 39.066 90.5875 39.4734 89.344C39.8808 88.1004 39.2161 86.7711 37.9726 86.3637ZM36.7933 89.9443C36.0858 89.7085 35.6998 88.9151 35.9571 88.1647C36.193 87.4143 36.9863 87.0069 37.6938 87.2428C38.4014 87.4786 38.7873 88.2719 38.53 89.0224C38.2727 89.7728 37.5009 90.1802 36.7933 89.9443Z" fill="white"/>
<path d="M44.2332 92.5815L45.0479 88.1218L44.0616 87.9289L43.547 90.6733L42.0033 87.5644L41.0814 87.3929L40.2666 91.8525L41.2529 92.0241L41.746 89.3011L43.3112 92.41L44.2332 92.5815Z" fill="white"/>
<path d="M25.1503 83.9194L26.5011 84.8628L26.2438 85.7847L27.1443 86.428L28.3021 81.711L27.4874 81.1321L23.4351 83.8336L24.3356 84.4769L25.1289 83.9194H25.1503ZM27.1443 82.5257L26.7584 83.9837L25.9222 83.3834L27.1443 82.5257Z" fill="white"/>
<path d="M47.2777 91.9383L48.9287 92.0026L49.2074 92.9246L50.3223 92.9675L48.7571 88.3577L47.7494 88.3148L45.7769 92.7531L46.8918 92.796L47.2563 91.9169L47.2777 91.9383ZM48.1997 89.7085L48.6499 91.145L47.6208 91.1021L48.1997 89.7085Z" fill="white"/>
<path d="M9.07066 48.8423L7.07666 50.3431V51.7582L9.43515 49.8714L11.6007 51.6081L11.6221 50.3002L9.75676 48.8637H11.6221V47.856L7.0981 47.8345V48.8423H9.07066Z" fill="white"/>
<path d="M64.7734 85.3345C63.5727 85.8491 63.0152 87.2213 63.5084 88.422C64.0015 89.6227 65.3952 90.1801 66.5958 89.687C67.7965 89.1724 68.354 87.8002 67.8609 86.5995C67.3677 85.3988 65.9741 84.8414 64.7734 85.3345ZM66.2314 88.8079C65.5452 89.0867 64.7305 88.7436 64.4303 88.0361C64.1301 87.3071 64.4303 86.4923 65.1379 86.2136C65.824 85.9349 66.6387 86.2779 66.9389 87.0069C67.2391 87.7359 66.9389 88.5506 66.2314 88.8294V88.8079Z" fill="white"/>
<path d="M81.6472 79.0309L81.0039 78.4091L79.7818 79.6741L79.0743 78.988L80.2321 77.8302L79.5889 77.2084L78.4525 78.3877L77.7878 77.7444L78.9885 76.5223L78.3453 75.9005L76.4585 77.8517L79.6961 81.0035L81.6472 79.0309Z" fill="white"/>
<path d="M58.8344 87.3928L60.0566 91.7453L61.0214 91.4666L60.6783 90.2659L61.2144 90.1158C62.072 89.8585 62.5866 88.958 62.3507 88.1004C62.0934 87.2213 61.1929 86.7282 60.3353 86.964L58.813 87.3928H58.8344ZM60.8713 89.3011L60.4425 89.4297L60.0351 87.9717L60.4639 87.8431C60.8713 87.7359 61.2787 87.9717 61.3859 88.3577C61.4931 88.765 61.2572 89.1724 60.8713 89.2796V89.3011Z" fill="white"/>
<path d="M75.1509 80.1244C75.494 79.8457 75.9013 79.7814 76.2873 79.91L76.4588 78.9881C75.8156 78.7951 75.1295 78.9023 74.5506 79.3954C73.5428 80.2316 73.3928 81.7111 74.2289 82.7188C75.0651 83.7265 76.5446 83.8551 77.5523 83.0404C78.1312 82.5687 78.367 81.904 78.3027 81.2394H77.3808C77.4236 81.6253 77.295 82.0327 76.9519 82.3114C76.373 82.7831 75.5154 82.6759 75.0008 82.0756C74.5077 81.4752 74.572 80.5961 75.1509 80.1244Z" fill="white"/>
<path d="M54.3102 92.7102L54.2458 91.8311L52.745 91.9383L52.4877 88.3148L51.48 88.3791L51.8016 92.9032L54.3102 92.7102Z" fill="white"/>
<path d="M72.3201 86.6853L71.8913 85.9134L70.5834 86.6638L68.761 83.4906L67.9033 83.9837L70.1332 87.9289L72.3201 86.6853Z" fill="white"/>
<path d="M33.7623 84.786L31.9014 88.9095L32.8199 89.324L34.6809 85.2005L33.7623 84.786Z" fill="white"/>
<path d="M84.8848 73.4348L85.7853 72.0412L86.7287 72.2556L87.3291 71.3122L82.5692 70.3474L82.0332 71.1835L84.8848 75.1072L85.4852 74.1638L84.9063 73.3919L84.8848 73.4348ZM83.4269 71.5051L84.8848 71.8268L84.3274 72.6844L83.4269 71.4837V71.5051Z" fill="white"/>
<path d="M91.1243 62.3714L90.2881 62.0713L89.7306 63.7436L88.8087 63.4435L89.3232 61.8997L88.487 61.621L87.9725 63.1647L87.0934 62.8646L87.6509 61.2565L86.8147 60.9778L85.957 63.5507L90.2452 64.9872L91.1243 62.3714Z" fill="white"/>
<path d="M92.4322 56.7753L87.994 55.8534L87.7795 56.8396L90.5025 57.3971L87.3722 58.8765L87.1792 59.7985L91.6174 60.7204L91.8104 59.7342L89.1089 59.1767L92.2392 57.6973L92.4322 56.7753Z" fill="white"/>
<path d="M89.1514 52.5943C89.1728 52.1655 89.4301 51.8225 89.7946 51.6295L89.2586 50.8791C88.6797 51.2221 88.2937 51.7796 88.2294 52.53C88.1437 53.8379 89.1085 54.9528 90.4164 55.06C91.7243 55.1672 92.8392 54.1809 92.9464 52.8731C93.0107 52.1226 92.6891 51.5008 92.1745 51.072L91.5313 51.7367C91.8529 51.9725 92.0459 52.3585 92.0244 52.7873C91.9816 53.5377 91.2955 54.0952 90.5236 54.0309C89.7517 53.9665 89.1514 53.3233 89.2157 52.5943H89.1514Z" fill="white"/>
<path d="M71.853 81.5734L71.0171 82.1362L73.5436 85.889L74.3795 85.3262L71.853 81.5734Z" fill="white"/>
<path d="M30.0178 82.8045L29.589 83.5764L30.4681 84.0695L28.6885 87.2428L29.5676 87.7359L31.3471 84.5627L32.2262 85.0344L32.655 84.2625L30.0178 82.8045Z" fill="white"/>
<path d="M86.45 67.41L87.2433 67.7959L87.7364 66.7453C88.0795 67.1098 88.2081 67.5815 87.9722 68.0532C87.6506 68.7179 86.8144 68.9966 86.1069 68.6535C85.3994 68.3105 85.0992 67.4957 85.4208 66.8311C85.6138 66.4237 85.9568 66.2093 86.3642 66.145L86.1283 65.2444C85.4637 65.3516 84.8848 65.7376 84.5632 66.4237C84.0057 67.6029 84.4988 68.9966 85.6781 69.5755C86.8573 70.133 88.251 69.6398 88.8299 68.4606C89.4088 67.2599 88.8942 66.0806 87.6506 65.4803C87.5649 65.4374 87.5006 65.416 87.4148 65.3731L86.45 67.3885V67.41Z" fill="white"/>
<path d="M88.3149 47.4486L90.073 48.3491L88.4006 49.3997L88.4435 50.5146L91.0378 48.8208L92.9032 48.7565L92.8603 47.7487L91.0164 47.8131L88.272 46.3336L88.3149 47.4486Z" fill="white"/>
<path d="M76.3725 19.5325L77.1444 19.1895C77.1444 19.1895 76.4368 18.1603 76.8871 16.9811L77.9377 17.8387L78.4737 17.1741L77.3588 16.2521L77.7233 15.8018L76.8656 15.0943L76.5012 15.5231L75.3648 14.5797L74.8288 15.2444L75.8794 16.102C74.8073 16.7667 73.671 16.2735 73.671 16.2735L73.478 17.1312C74.4 17.4957 75.1289 17.5171 75.7507 17.3027C75.665 17.9245 75.815 18.6106 76.2867 19.4039C76.2653 19.3825 76.2224 19.361 76.201 19.3181C75.1504 18.4391 73.821 18.5463 73.1135 19.4253C72.3845 20.3044 72.5346 21.6123 73.5852 22.4914C74.6358 23.3704 75.9651 23.2632 76.6727 22.3842C77.3588 21.5694 77.273 20.3687 76.3939 19.5111L76.3725 19.5325ZM74.1641 21.8053C73.5852 21.3121 73.5423 20.6475 73.9497 20.1758C74.3571 19.7041 75.0217 19.5969 75.6006 20.09C76.1795 20.5831 76.2224 21.2478 75.815 21.7195C75.4077 22.1912 74.743 22.2984 74.1641 21.8053Z" fill="white"/>
<path d="M79.3747 17.6457L78.5814 18.6106L77.831 18.0102L77.2735 18.6963L78.0025 19.2967L77.0806 20.3901L77.9168 21.0763L80.1895 18.3318L79.3747 17.6457Z" fill="white"/>
<path d="M52.4876 6.30356H51.4155L51.437 9.69121H52.509V8.25467H53.3881V7.35416H52.4876V6.30356Z" fill="white"/>
<path d="M52.5084 12.114V9.99139H47.5127V10.8919H51.4364V11.2778H47.5127V12.9073C47.5127 13.2075 47.7485 13.4434 48.0487 13.4434H52.5727V12.5429H48.5847V12.1355H52.5084V12.114Z" fill="white"/>
<path d="M48.6922 8.38334C49.0352 8.9408 49.6141 9.39106 50.5575 9.71267L50.9649 8.91936C50.9649 8.91936 49.7428 8.57631 49.3568 7.37562H50.7076V6.51799H49.2496V5.93909H48.1347V6.51799H46.6767V7.37562H48.0275C47.6416 8.57631 46.4194 8.91936 46.4194 8.91936L46.8268 9.71267C47.7702 9.39106 48.3491 8.9408 48.6922 8.38334Z" fill="white"/>
<path d="M23.5213 15.9734L22.7065 16.6595L23.264 17.3242L24.0788 16.6166L24.4432 17.0669L23.6285 17.753L24.186 18.3962L25.0007 17.7101L25.451 18.2461L26.2657 17.56L23.9501 14.837L23.1354 15.5446L23.5213 15.9734Z" fill="white"/>
<path d="M24.2937 18.9751C23.2431 19.8756 23.1144 21.1835 23.8649 22.0411C24.5939 22.8988 25.9232 22.9845 26.9523 22.1054C28.0029 21.2049 28.1102 19.897 27.3812 19.0394C26.6522 18.1818 25.3228 18.096 24.2937 18.9751ZM26.352 21.3765C25.7731 21.8696 25.1084 21.7838 24.7011 21.3121C24.2937 20.8404 24.3151 20.1758 24.894 19.6612C25.4729 19.1681 26.1376 19.2538 26.545 19.7255C26.9523 20.1972 26.9309 20.8833 26.352 21.3765Z" fill="white"/>
<path d="M22.4062 16.8095C22.2561 16.638 22.0203 16.6166 21.8488 16.7667L19.5117 18.7607L20.0906 19.4468L21.7844 18.0102C21.9989 18.4176 22.3419 19.4896 21.1412 21.0334L21.8702 21.5051C23.6498 19.3181 23.0709 17.6028 22.4062 16.831V16.8095Z" fill="white"/>
</svg>
