<svg width="17" height="16" viewBox="0 0 17 16" fill="none" xmlns="http://www.w3.org/2000/svg">
<g clip-path="url(#clip0_434_20222)">
<path d="M11.4167 2C11.58 2.00002 11.7376 2.05997 11.8596 2.16848C11.9816 2.27698 12.0596 2.4265 12.0787 2.58867L12.0833 2.66667V3.33333H13.4167C13.7531 3.33323 14.077 3.46027 14.3237 3.689C14.5704 3.91772 14.7214 4.23123 14.7467 4.56667L14.75 4.66667V12.6667C14.7501 13.0031 14.6231 13.327 14.3943 13.5737C14.1656 13.8204 13.8521 13.9714 13.5167 13.9967L13.4167 14H4.08333C3.74695 14.0001 3.42296 13.8731 3.1763 13.6443C2.92965 13.4156 2.77856 13.1021 2.75333 12.7667L2.75 12.6667V4.66667C2.74989 4.33028 2.87694 4.00629 3.10566 3.75963C3.33439 3.51298 3.6479 3.3619 3.98333 3.33667L4.08333 3.33333H5.41667V2.66667C5.41686 2.49675 5.48192 2.33331 5.59857 2.20975C5.71521 2.0862 5.87464 2.01184 6.04426 2.00189C6.21389 1.99193 6.38092 2.04712 6.51122 2.15618C6.64152 2.26524 6.72526 2.41994 6.74533 2.58867L6.75 2.66667V3.33333H10.75V2.66667C10.75 2.48986 10.8202 2.32029 10.9453 2.19526C11.0703 2.07024 11.2399 2 11.4167 2ZM13.4167 8H4.08333V12.6667H13.4167V8ZM13.4167 4.66667H4.08333V6.66667H13.4167V4.66667Z" fill="#707070"/>
</g>
<defs>
<clipPath id="clip0_434_20222">
<rect width="16" height="16" fill="white" transform="translate(0.75)"/>
</clipPath>
</defs>
</svg>
