<svg width="22" height="24" viewBox="0 0 22 24" fill="none" xmlns="http://www.w3.org/2000/svg">
<path d="M15.5 5.25C16.7375 5.25 17.75 6.2625 17.75 7.5V16.5C17.75 17.7375 16.7375 18.75 15.5 18.75H6.5C5.2625 18.75 4.25 17.7375 4.25 16.5V7.5C4.25 6.2625 5.2625 5.25 6.5 5.25H15.5ZM6.5 6.375C5.87975 6.375 5.375 6.87975 5.375 7.5V16.5C5.375 17.1203 5.87975 17.625 6.5 17.625H15.5C16.1203 17.625 16.625 17.1203 16.625 16.5V7.5C16.625 6.87975 16.1203 6.375 15.5 6.375H6.5ZM11 8.25C11.3094 8.25 11.5625 8.50313 11.5625 8.8125V11.4375H14.1875C14.4969 11.4375 14.75 11.6906 14.75 12C14.75 12.3094 14.4969 12.5625 14.1875 12.5625H11.5625V15.1875C11.5625 15.4969 11.3094 15.75 11 15.75C10.6906 15.75 10.4375 15.4969 10.4375 15.1875V12.5625H7.8125C7.50313 12.5625 7.25 12.3094 7.25 12C7.25 11.6906 7.50313 11.4375 7.8125 11.4375H10.4375V8.8125C10.4375 8.50313 10.6906 8.25 11 8.25Z" fill="#707070"/>
</svg>
