<svg width="29" height="28" viewBox="0 0 29 28" fill="none" xmlns="http://www.w3.org/2000/svg">
<path d="M10.6455 11.27C11.299 11.7741 13.8563 13.3796 14.3789 13.5103C14.4162 13.5288 14.4725 13.5288 14.5098 13.5288C14.547 13.5288 14.6024 13.5286 14.6396 13.5103C15.1623 13.3796 17.9071 11.774 18.5791 11.27H24.9629C25.2801 11.2701 25.5224 11.5317 25.541 12.2036V22.7876C25.5408 23.6461 24.5521 24.6351 23.3203 24.6353H20.8184V15.9927C20.8184 15.6193 20.5013 15.3022 20.1279 15.3022H8.90918C8.53594 15.3024 8.21875 15.6194 8.21875 15.9927V24.6353H5.71777C4.48591 24.6353 3.49631 23.6462 3.49609 22.7876V12.2036C3.49609 11.5132 3.73852 11.2702 4.05566 11.27H10.6455ZM13.7812 24.6353H9.6377V16.7202H13.7812V24.6353ZM19.3818 24.6353H15.2373V16.7202H19.3818V24.6353ZM14.5654 2.19775C15.2001 3.01909 16.1895 3.56104 17.3281 3.56104C17.7947 3.56102 18.5039 3.46762 18.8213 3.41162L18.541 6.69678C18.6341 10.8715 14.578 11.9016 14.5654 11.9048C14.5654 11.9048 10.496 10.8778 10.5146 6.58447L10.2344 3.29932C10.6264 3.46732 11.3361 3.56104 11.8027 3.56104C12.9227 3.56102 13.9121 3.01908 14.5654 2.19775ZM9.04004 6.67822C9.04007 8.07811 9.339 9.16076 9.97363 9.96338V9.98193H3.58984C2.95518 9.98193 2.45117 9.47793 2.45117 8.84326V7.72314C2.45127 6.65933 3.30926 5.80047 4.37305 5.80029H8.96582L9.04004 6.67822ZM24.627 5.78174C25.6908 5.78187 26.5498 6.64078 26.5498 7.68604V8.80615C26.5497 9.44059 26.0455 9.9446 25.4111 9.94482H19.2139C19.867 9.14224 19.9599 8.05942 19.96 6.65967L20.0352 5.78174H24.627ZM14.5098 5.07275C13.3711 5.07275 12.4375 6.00635 12.4375 7.14502C12.4377 8.28352 13.3712 9.21631 14.5098 9.21631C15.6481 9.21609 16.5809 8.28338 16.5811 7.14502C16.5811 6.00649 15.6482 5.07298 14.5098 5.07275ZM14.5098 6.43506C14.9016 6.43527 15.2188 6.75315 15.2188 7.14502C15.2186 7.53672 14.9015 7.85379 14.5098 7.854C14.1179 7.854 13.8 7.53685 13.7998 7.14502C13.7998 6.75302 14.1178 6.43506 14.5098 6.43506Z" fill="white"/>
</svg>
