<svg width="28" height="28" viewBox="0 0 28 28" fill="none" xmlns="http://www.w3.org/2000/svg">
<path d="M13.3203 9.00431C13.4902 9.01938 13.6504 9.09423 13.7803 9.21915C13.9252 9.36414 14 9.55949 14 9.74943C13.9999 9.93918 13.925 10.1338 13.7803 10.2787L10.0596 13.9994L13.7803 17.7192C13.9451 17.8841 14.015 18.099 13.9951 18.3139C13.9801 18.4837 13.9101 18.6488 13.7803 18.7787C13.6353 18.9237 13.44 18.9994 13.25 18.9994C13.06 18.9994 12.8647 18.9237 12.7197 18.7787L8.46973 14.5287C8.32502 14.3838 8.25008 14.1892 8.25 13.9994C8.25 13.8095 8.32483 13.6141 8.46973 13.4692L12.7197 9.21915C12.8847 9.05415 13.1053 8.98431 13.3203 9.00431ZM19.0703 9.00431C19.2402 9.01938 19.4004 9.09423 19.5303 9.21915C19.6752 9.36414 19.75 9.55949 19.75 9.74943C19.7499 9.93918 19.675 10.1338 19.5303 10.2787L15.8096 13.9994L19.5303 17.7192C19.6951 17.8841 19.765 18.099 19.7451 18.3139C19.7301 18.4837 19.6601 18.6488 19.5303 18.7787C19.3853 18.9237 19.19 18.9994 19 18.9994C18.81 18.9994 18.6147 18.9237 18.4697 18.7787L14.2197 14.5287C14.075 14.3838 14.0001 14.1892 14 13.9994C14 13.8095 14.0748 13.6141 14.2197 13.4692L18.4697 9.21915C18.6347 9.05415 18.8553 8.98431 19.0703 9.00431Z" fill="#595959"/>
</svg>
