<svg width="22" height="28" viewBox="0 0 22 28" fill="none" xmlns="http://www.w3.org/2000/svg">
<rect x="10.5" y="14" width="1" height="14" fill="#CFCFCF"/>
<path fill-rule="evenodd" clip-rule="evenodd" d="M8.207 8.25C8.3435 8.25 8.47261 8.31514 8.56128 8.42957L9.10611 9.12986C9.56072 9.71486 10.223 10.05 10.9214 10.05H16.7167C17.4241 10.05 18 10.6847 18 11.4643V18.8357C18 19.6157 17.4241 20.25 16.7167 20.25H5.28294C4.57556 20.25 4 19.6157 4 18.8357V9.66429C4 8.88429 4.57556 8.25 5.28294 8.25H8.207" fill="white"/>
<path fill-rule="evenodd" clip-rule="evenodd" d="M8.30675 7.625H5.48713C4.1825 7.625 3.125 8.6825 3.125 9.9875V18.0125C3.125 19.3175 4.1825 20.375 5.48713 20.375H16.5125C17.8171 20.375 18.875 19.3175 18.875 18.0125V11.5625C18.875 10.2579 17.8171 9.2 16.5125 9.2H10.9243C10.5796 9.2 10.2519 9.04925 10.0276 8.7875L9.50263 8.17513C9.20338 7.82563 8.7665 7.625 8.30675 7.625M8.30675 8.75C8.43837 8.75 8.56288 8.807 8.64838 8.90712L9.17375 9.51987C9.61213 10.0317 10.2508 10.325 10.9243 10.325H16.5125C17.1946 10.325 17.75 10.8804 17.75 11.5625V18.0125C17.75 18.695 17.1946 19.25 16.5125 19.25H5.48713C4.805 19.25 4.25 18.695 4.25 18.0125V9.9875C4.25 9.305 4.805 8.75 5.48713 8.75H8.30675" fill="#111111"/>
</svg>
