<svg width="22" height="22" viewBox="0 0 22 22" fill="none" xmlns="http://www.w3.org/2000/svg">
<path d="M11.9482 1.375C12.3835 1.37502 12.7998 1.54873 13.1055 1.85742L17.8623 6.6582C18.1643 6.96345 18.334 7.37666 18.334 7.80566V17.875C18.334 19.3874 17.0963 20.6248 15.584 20.625H6.41699C4.90449 20.625 3.66699 19.3875 3.66699 17.875V4.125C3.66699 2.6125 4.90449 1.375 6.41699 1.375H11.9482ZM6.41699 2.75C5.65891 2.75 5.04199 3.36692 5.04199 4.125V17.875C5.04199 18.6331 5.65891 19.25 6.41699 19.25H15.584C16.3419 19.2498 16.959 18.633 16.959 17.875V8.70801H12.6299C11.7298 8.70786 11 7.9782 11 7.07812V2.75H6.41699ZM13.9795 15.583C14.3589 15.583 14.6668 15.8912 14.667 16.2705C14.667 16.65 14.359 16.958 13.9795 16.958H8.02148C7.64198 16.958 7.33398 16.65 7.33398 16.2705C7.33416 15.8912 7.64209 15.583 8.02148 15.583H13.9795ZM13.9795 12.375C14.359 12.375 14.667 12.683 14.667 13.0625C14.667 13.442 14.359 13.75 13.9795 13.75H8.02148C7.64198 13.75 7.33398 13.442 7.33398 13.0625C7.33398 12.683 7.64198 12.375 8.02148 12.375H13.9795ZM12.375 7.07812C12.375 7.21874 12.4893 7.33286 12.6299 7.33301H16.5947L12.375 3.07422V7.07812Z" fill="white"/>
</svg>
