<svg width="22" height="22" viewBox="0 0 22 22" fill="none" xmlns="http://www.w3.org/2000/svg">
<path d="M11 1.8335C16.0626 1.83367 20.166 5.93785 20.166 11.0005C20.1658 16.063 16.0625 20.1663 11 20.1665C5.93736 20.1665 1.83318 16.0631 1.83301 11.0005C1.83301 5.93774 5.93725 1.8335 11 1.8335ZM11 3.2085C6.70358 3.2085 3.20801 6.70407 3.20801 11.0005C3.20818 15.2968 6.70369 18.7915 11 18.7915C15.2962 18.7913 18.7908 15.2966 18.791 11.0005C18.791 6.70418 15.2963 3.20867 11 3.2085ZM15.3477 7.3335C15.4067 7.3335 15.4664 7.3405 15.5264 7.35693C15.893 7.45456 16.1103 7.83258 16.0127 8.19971L15.3242 10.7681H16.3672C16.7467 10.7681 17.0547 11.0761 17.0547 11.4556C17.0546 11.8354 16.7466 12.1431 16.3672 12.1431H14.9561L14.1719 15.0679C14.0894 15.3749 13.8121 15.5756 13.5088 15.5757C13.502 15.5757 13.4946 15.5757 13.4883 15.5757C13.2116 15.5711 12.954 15.4003 12.8535 15.1255L11.0967 10.3003L9.34082 15.1255C9.24047 15.4003 8.98271 15.571 8.70605 15.5757H8.68457C8.38116 15.5757 8.10352 15.3749 8.02148 15.0679L7.2373 12.1431H5.82617C5.44628 12.1431 5.13877 11.8354 5.13867 11.4556C5.13867 11.0761 5.44621 10.7681 5.82617 10.7681H6.86914L6.18066 8.19971C6.08258 7.83258 6.30033 7.45456 6.66699 7.35693C6.72654 7.34046 6.78707 7.3335 6.8457 7.3335C7.14895 7.33368 7.42631 7.53634 7.50879 7.84326L8.78906 12.6196L10.1572 8.86182C10.259 8.58271 10.5222 8.40967 10.8027 8.40967C10.8077 8.40973 10.8129 8.41162 10.8174 8.41162V8.40967H11.3691V8.4126C11.376 8.41256 11.3833 8.40967 11.3906 8.40967C11.6716 8.40968 11.9354 8.5827 12.0371 8.86182L13.4043 12.6196L14.6846 7.84326C14.7671 7.53629 15.0443 7.33358 15.3477 7.3335Z" fill="#D2E6FF"/>
</svg>
