<svg width="20" height="20" viewBox="0 0 20 20" fill="none" xmlns="http://www.w3.org/2000/svg">
<path d="M9.99951 1.66669C14.6019 1.66669 18.3333 5.39734 18.3335 9.99969C18.3335 14.6022 14.602 18.3337 9.99951 18.3337C5.39716 18.3335 1.6665 14.6021 1.6665 9.99969C1.66668 5.39745 5.39727 1.66686 9.99951 1.66669ZM8.6665 13.4323C7.17457 13.4323 5.86943 14.1256 5.15771 15.155C6.42556 16.3466 8.12631 17.0836 9.99951 17.0837C11.8736 17.0837 13.5754 16.3464 14.8433 15.154C14.132 14.1267 12.8261 13.4324 11.3335 13.4323H8.6665ZM9.99951 2.91669C6.09435 2.91686 2.91668 6.09412 2.9165 9.99969C2.9165 11.5734 3.43895 13.0253 4.31104 14.2028C5.27895 12.9832 6.87275 12.1823 8.6665 12.1823H11.3335C13.1275 12.1824 14.7211 12.9833 15.689 14.2028C16.561 13.0253 17.0835 11.5739 17.0835 9.99969C17.0833 6.09401 13.9052 2.91669 9.99951 2.91669ZM9.99951 4.18231C11.8403 4.18231 13.3335 5.67546 13.3335 7.5163C13.3333 9.35736 11.8402 10.8493 9.99951 10.8493C8.15898 10.8491 6.66672 9.35724 6.6665 7.5163C6.6665 5.67559 8.15885 4.18251 9.99951 4.18231ZM9.99951 5.43231C8.85093 5.43251 7.9165 6.36767 7.9165 7.5163C7.91672 8.66474 8.85106 9.5991 9.99951 9.5993C11.1485 9.5993 12.0833 8.66486 12.0835 7.5163C12.0835 6.36755 11.1487 5.43231 9.99951 5.43231Z" fill="#00479D"/>
</svg>
