<svg width="20" height="20" viewBox="0 0 20 20" fill="none" xmlns="http://www.w3.org/2000/svg">
<path d="M10 2.5C11.375 2.50001 12.5 3.625 12.5 5V5.625C12.5 5.97 12.22 6.24999 11.875 6.25C11.53 6.25 11.25 5.97 11.25 5.625V5C11.25 4.30959 10.69 3.75001 10 3.75H4.16699C3.47658 3.75 2.91699 4.30958 2.91699 5V15C2.91699 15.6904 3.47658 16.25 4.16699 16.25H10C10.69 16.25 11.25 15.6904 11.25 15V14.375C11.25 14.03 11.53 13.75 11.875 13.75C12.22 13.75 12.5 14.03 12.5 14.375V15C12.5 16.375 11.375 17.5 10 17.5H4.16699C2.79199 17.5 1.66699 16.375 1.66699 15V5C1.66699 3.625 2.79199 2.5 4.16699 2.5H10ZM14.583 6.25C14.743 6.25 14.9033 6.31053 15.0254 6.43262L18.1504 9.55762C18.3941 9.80137 18.3941 10.1982 18.1504 10.4424L15.0254 13.5674C14.9033 13.6889 14.7429 13.75 14.583 13.75C14.4233 13.7499 14.2636 13.6888 14.1416 13.5674C13.8979 13.3232 13.8979 12.9268 14.1416 12.6826L16.1992 10.625H8.125C7.78014 10.625 7.50023 10.3452 7.5 10C7.5 9.655 7.78 9.375 8.125 9.375H16.1992L14.1416 7.31641C13.8979 7.07266 13.8979 6.67678 14.1416 6.43262C14.2636 6.3107 14.4228 6.25008 14.583 6.25Z" fill="#414141"/>
</svg>
