<svg width="25" height="24" viewBox="0 0 25 24" fill="none" xmlns="http://www.w3.org/2000/svg">
<path d="M11 2C15.6962 2 19.5 5.80375 19.5 10.5C19.5 12.3062 18.9353 13.9789 17.9756 15.3555L22.0596 19.4404C22.3795 19.7604 22.5251 20.1904 22.4951 20.6104C22.47 20.9552 22.3245 21.2947 22.0596 21.5596C21.7696 21.8545 21.385 22 21 22C20.615 22 20.2345 21.8546 19.9395 21.5596L15.8555 17.4756C14.4789 18.4353 12.8062 19 11 19C6.30375 19 2.5 15.1962 2.5 10.5C2.5 5.80375 6.30375 2 11 2ZM11 4.65625C7.77531 4.65625 5.15625 7.27531 5.15625 10.5C5.15625 13.7247 7.77531 16.3438 11 16.3438C14.2247 16.3438 16.8438 13.7247 16.8438 10.5C16.8438 7.27531 14.2247 4.65625 11 4.65625Z" fill="white"/>
</svg>
