<svg width="20" height="20" viewBox="0 0 20 20" fill="none" xmlns="http://www.w3.org/2000/svg">
<path d="M16.667 6.66699C18.0418 6.66717 19.167 7.7921 19.167 9.16699V16.667C19.1668 18.0417 18.0417 19.1668 16.667 19.167H9.16699C7.7921 19.167 6.66717 18.0418 6.66699 16.667V9.16699C6.66699 7.79199 7.79199 6.66699 9.16699 6.66699H16.667ZM9.16699 7.91699C8.47783 7.91699 7.91699 8.47783 7.91699 9.16699V16.667C7.91717 17.356 8.47793 17.917 9.16699 17.917H16.667C17.3559 17.9168 17.9168 17.3559 17.917 16.667V9.16699C17.917 8.47793 17.356 7.91717 16.667 7.91699H9.16699ZM12.917 10C13.2606 10.0002 13.542 10.2814 13.542 10.625V12.292H15.208C15.5518 12.292 15.833 12.5737 15.833 12.917C15.8328 13.2606 15.5516 13.542 15.208 13.542H13.542V15.208C13.542 15.5516 13.2606 15.8328 12.917 15.833C12.5732 15.833 12.292 15.5518 12.292 15.208V13.542H10.625C10.2814 13.542 10.0002 13.2606 10 12.917C10 12.5737 10.2813 12.292 10.625 12.292H12.292V10.625C12.292 10.2813 12.5732 10 12.917 10ZM11.667 1.66699C13.0418 1.66717 14.167 2.7921 14.167 4.16699V4.79199C14.1668 5.13673 13.8867 5.41682 13.542 5.41699C13.1971 5.41699 12.9172 5.13684 12.917 4.79199V4.16699C12.917 3.4771 12.3573 2.91717 11.667 2.91699H4.16699C3.47658 2.91699 2.91699 3.47699 2.91699 4.16699V11.667C2.91717 12.3568 3.47668 12.917 4.16699 12.917H4.79199C5.13684 12.9172 5.41699 13.1971 5.41699 13.542C5.41682 13.8867 5.13673 14.1668 4.79199 14.167H4.16699C2.7921 14.167 1.66717 13.0418 1.66699 11.667V4.16699C1.66699 2.79199 2.79199 1.66699 4.16699 1.66699H11.667Z" fill="white"/>
</svg>
