<svg width="22" height="22" viewBox="0 0 22 22" fill="none" xmlns="http://www.w3.org/2000/svg">
<g clip-path="url(#clip0_256_22305)">
<path d="M18.5625 19.7082H17.875V5.49984C17.875 4.48692 17.0546 3.6665 16.0417 3.6665H15.5833V2.2915C15.5833 1.53067 14.9692 0.916504 14.2083 0.916504H7.79167C7.03083 0.916504 6.41667 1.53067 6.41667 2.2915V3.6665H5.95833C4.94542 3.6665 4.125 4.48692 4.125 5.49984V19.7082H3.4375C3.05708 19.7082 2.75 20.0153 2.75 20.3957C2.75 20.7761 3.05708 21.0832 3.4375 21.0832H18.5625C18.9429 21.0832 19.25 20.7761 19.25 20.3957C19.25 20.0153 18.9429 19.7082 18.5625 19.7082ZM7.79167 2.2915H14.2083V3.6665H7.79167V2.2915ZM11.9167 19.7082H10.0833V17.8748H11.9167V19.7082ZM16.5 19.7082H13.2917V17.8748C13.2917 17.114 12.6775 16.4998 11.9167 16.4998H10.0833C9.3225 16.4998 8.70833 17.114 8.70833 17.8748V19.7082H5.5V5.49984C5.5 5.24775 5.70625 5.0415 5.95833 5.0415H16.0417C16.2938 5.0415 16.5 5.24775 16.5 5.49984V19.7082Z" fill="white"/>
<path d="M9.39551 7.33301H8.02051C7.64009 7.33301 7.33301 7.64009 7.33301 8.02051C7.33301 8.40092 7.64009 8.70801 8.02051 8.70801H9.39551C9.77592 8.70801 10.083 8.40092 10.083 8.02051C10.083 7.64009 9.77592 7.33301 9.39551 7.33301Z" fill="white"/>
<path d="M9.39551 10.083H8.02051C7.64009 10.083 7.33301 10.3901 7.33301 10.7705C7.33301 11.1509 7.64009 11.458 8.02051 11.458H9.39551C9.77592 11.458 10.083 11.1509 10.083 10.7705C10.083 10.3901 9.77592 10.083 9.39551 10.083Z" fill="white"/>
<path d="M9.39551 12.833H8.02051C7.64009 12.833 7.33301 13.1401 7.33301 13.5205C7.33301 13.9009 7.64009 14.208 8.02051 14.208H9.39551C9.77592 14.208 10.083 13.9009 10.083 13.5205C10.083 13.1401 9.77592 12.833 9.39551 12.833Z" fill="white"/>
<path d="M13.9795 7.33301H12.6045C12.2241 7.33301 11.917 7.64009 11.917 8.02051C11.917 8.40092 12.2241 8.70801 12.6045 8.70801H13.9795C14.3599 8.70801 14.667 8.40092 14.667 8.02051C14.667 7.64009 14.3599 7.33301 13.9795 7.33301Z" fill="white"/>
<path d="M13.9795 10.083H12.6045C12.2241 10.083 11.917 10.3901 11.917 10.7705C11.917 11.1509 12.2241 11.458 12.6045 11.458H13.9795C14.3599 11.458 14.667 11.1509 14.667 10.7705C14.667 10.3901 14.3599 10.083 13.9795 10.083Z" fill="white"/>
<path d="M13.9795 12.833H12.6045C12.2241 12.833 11.917 13.1401 11.917 13.5205C11.917 13.9009 12.2241 14.208 12.6045 14.208H13.9795C14.3599 14.208 14.667 13.9009 14.667 13.5205C14.667 13.1401 14.3599 12.833 13.9795 12.833Z" fill="white"/>
</g>
<defs>
<clipPath id="clip0_256_22305">
<rect width="16.5" height="20.1667" fill="white" transform="translate(2.75 0.916504)"/>
</clipPath>
</defs>
</svg>
