<svg width="28" height="28" viewBox="0 0 28 28" fill="none" xmlns="http://www.w3.org/2000/svg">
<path d="M14.6797 18.9957C14.5098 18.9806 14.3496 18.9058 14.2197 18.7808C14.0748 18.6359 14 18.4405 14 18.2506C14 18.0606 14.0748 17.8653 14.2197 17.7203L17.9404 14.0006L14.2197 10.2808C14.0547 10.1158 13.9849 9.90015 14.0049 9.68515C14.0199 9.51528 14.0898 9.35021 14.2197 9.2203C14.3647 9.0753 14.56 9.00058 14.75 9.00058C14.94 9.00058 15.1353 9.0753 15.2803 9.2203L19.5303 13.4703C19.6752 13.6153 19.75 13.8106 19.75 14.0006C19.75 14.1905 19.6752 14.3859 19.5303 14.5308L15.2803 18.7808C15.1153 18.9458 14.8947 19.0157 14.6797 18.9957ZM8.92969 18.9957C8.75981 18.9806 8.59964 18.9058 8.46973 18.7808C8.32475 18.6359 8.25003 18.4405 8.25 18.2506C8.25 18.0606 8.32476 17.8653 8.46973 17.7203L12.1904 14.0006L8.46973 10.2808C8.30473 10.1158 8.23488 9.90015 8.25488 9.68515C8.26994 9.51528 8.33984 9.35021 8.46973 9.2203C8.61473 9.0753 8.81 9.00058 9 9.00058C9.19 9.00058 9.38527 9.0753 9.53027 9.2203L13.7803 13.4703C13.9252 13.6153 14 13.8106 14 14.0006C14 14.1905 13.9252 14.3859 13.7803 14.5308L9.53027 18.7808C9.36528 18.9458 9.14467 19.0157 8.92969 18.9957Z" fill="#595959"/>
</svg>
