<svg width="24" height="24" viewBox="0 0 24 24" fill="none" xmlns="http://www.w3.org/2000/svg">
<path d="M18 1.5C19.6565 1.5 21 2.8435 21 4.5V19.5C21 21.1565 19.6565 22.5 18 22.5H7.5C5.8435 22.5 4.5 21.1565 4.5 19.5V18H3.75C3.336 18 3 17.664 3 17.25C3 16.836 3.336 16.5 3.75 16.5H4.5V12.75H3.75C3.336 12.75 3 12.414 3 12C3 11.586 3.336 11.25 3.75 11.25H4.5V7.5H3.75C3.336 7.5 3 7.164 3 6.75C3 6.336 3.336 6 3.75 6H4.5V4.5C4.5 2.8435 5.8435 1.5 7.5 1.5H18ZM7.5 3C6.673 3 6 3.673 6 4.5V6H6.75C7.164 6 7.5 6.336 7.5 6.75C7.5 7.164 7.164 7.5 6.75 7.5H6V11.25H6.75C7.164 11.25 7.5 11.586 7.5 12C7.5 12.414 7.164 12.75 6.75 12.75H6V16.5H6.75C7.164 16.5 7.5 16.836 7.5 17.25C7.5 17.664 7.164 18 6.75 18H6V19.5C6 20.327 6.673 21 7.5 21H18C18.827 21 19.5 20.327 19.5 19.5V4.5C19.5 3.673 18.827 3 18 3H7.5ZM15.75 16.5C16.164 16.5 16.5 16.836 16.5 17.25C16.5 17.664 16.164 18 15.75 18H11.25C10.836 18 10.5 17.664 10.5 17.25C10.5 16.836 10.836 16.5 11.25 16.5H15.75ZM15.75 11.25C16.164 11.25 16.5 11.586 16.5 12C16.5 12.414 16.164 12.75 15.75 12.75H11.25C10.836 12.75 10.5 12.414 10.5 12C10.5 11.586 10.836 11.25 11.25 11.25H15.75ZM15.75 6C16.164 6 16.5 6.336 16.5 6.75C16.5 7.164 16.164 7.5 15.75 7.5H11.25C10.836 7.5 10.5 7.164 10.5 6.75C10.5 6.336 10.836 6 11.25 6H15.75Z" fill="white"/>
</svg>
