<svg width="22" height="22" viewBox="0 0 22 22" fill="none" xmlns="http://www.w3.org/2000/svg">
<g clip-path="url(#clip0_196_23460)">
<path d="M17.1878 8.25H16.7295C16.3491 8.25 16.042 8.55708 16.042 8.9375C16.042 9.31792 16.3491 9.625 16.7295 9.625H17.1878C17.5682 9.625 17.8753 9.31792 17.8753 8.9375C17.8753 8.55708 17.5682 8.25 17.1878 8.25Z" fill="white"/>
<path d="M17.875 5.04134H16.9583V3.66634C16.9583 2.65342 16.1379 1.83301 15.125 1.83301H6.875C5.86208 1.83301 5.04167 2.65342 5.04167 3.66634V5.04134H4.125C2.60792 5.04134 1.375 6.27426 1.375 7.79134V14.208C1.375 15.7251 2.60792 16.958 4.125 16.958H5.04167V18.333C5.04167 19.3459 5.86208 20.1663 6.875 20.1663H15.125C16.1379 20.1663 16.9583 19.3459 16.9583 18.333V16.958H17.875C19.3921 16.958 20.625 15.7251 20.625 14.208V7.79134C20.625 6.27426 19.3921 5.04134 17.875 5.04134ZM6.41667 3.66634C6.41667 3.41426 6.62292 3.20801 6.875 3.20801H15.125C15.3771 3.20801 15.5833 3.41426 15.5833 3.66634V5.04134H6.41667V3.66634ZM15.5833 18.333C15.5833 18.5851 15.3771 18.7913 15.125 18.7913H6.875C6.62292 18.7913 6.41667 18.5851 6.41667 18.333V12.3747H15.5833V18.333ZM19.25 14.208C19.25 14.9643 18.6313 15.583 17.875 15.583H16.9583V11.6872C16.9583 11.3068 16.6513 10.9997 16.2708 10.9997H5.72917C5.34875 10.9997 5.04167 11.3068 5.04167 11.6872V15.583H4.125C3.36875 15.583 2.75 14.9643 2.75 14.208V7.79134C2.75 7.03509 3.36875 6.41634 4.125 6.41634H17.875C18.6313 6.41634 19.25 7.03509 19.25 7.79134V14.208Z" fill="white"/>
</g>
<defs>
<clipPath id="clip0_196_23460">
<rect width="19.25" height="18.3333" fill="white" transform="translate(1.375 1.83301)"/>
</clipPath>
</defs>
</svg>
