<svg width="28" height="28" viewBox="0 0 28 28" fill="none" xmlns="http://www.w3.org/2000/svg">
<path d="M11.345 18.7807C11.2 18.6357 11.125 18.4407 11.125 18.2507C11.125 18.0607 11.2 17.8657 11.345 17.7207L15.065 14.0007L11.345 10.2807C11.18 10.1157 11.11 9.9007 11.13 9.6857C11.145 9.5157 11.215 9.3507 11.345 9.2207C11.49 9.0757 11.685 9.0007 11.875 9.0007C12.065 9.0007 12.26 9.0757 12.405 9.2207L16.655 13.4707C16.8 13.6157 16.875 13.8107 16.875 14.0007C16.875 14.1907 16.8 14.3857 16.655 14.5307L12.405 18.7807C12.24 18.9457 12.02 19.0157 11.805 18.9957C11.635 18.9807 11.475 18.9057 11.345 18.7807V18.7807Z" fill="#595959"/>
</svg>
