<svg width="22" height="22" viewBox="0 0 22 22" fill="none" xmlns="http://www.w3.org/2000/svg">
<path d="M14 4.58301C13.81 4.58301 13.615 4.65176 13.47 4.78467L7.22 10.5138C7.075 10.6468 7 10.8255 7 10.9997C7 11.1738 7.075 11.3526 7.22 11.4855L13.47 17.2147C13.615 17.3476 13.81 17.4163 14 17.4163C14.19 17.4163 14.385 17.3476 14.53 17.2147C14.675 17.0818 14.75 16.9076 14.75 16.738C14.75 16.5593 14.68 16.3805 14.53 16.243L8.81 10.9997L14.53 5.75634C14.695 5.60509 14.77 5.39884 14.745 5.20176C14.73 5.05051 14.655 4.89926 14.53 4.78467C14.405 4.67009 14.25 4.60592 14.09 4.58759C14.06 4.58759 14.03 4.58301 13.995 4.58301H14Z" fill="white"/>
</svg>
