<svg width="33" height="32" viewBox="0 0 33 32" fill="none" xmlns="http://www.w3.org/2000/svg">
<path d="M25.75 22.5C26.164 22.5 26.5 22.836 26.5 23.25C26.5 23.664 26.164 24 25.75 24H7.25C6.836 24 6.5 23.664 6.5 23.25C6.5 22.836 6.836 22.5 7.25 22.5H25.75ZM25.75 15.25C26.164 15.25 26.5 15.586 26.5 16C26.5 16.414 26.164 16.75 25.75 16.75H7.25C6.836 16.75 6.5 16.414 6.5 16C6.5 15.586 6.836 15.25 7.25 15.25H25.75ZM25.75 8C26.164 8 26.5 8.336 26.5 8.75C26.5 9.164 26.164 9.5 25.75 9.5H7.25C6.836 9.5 6.5 9.164 6.5 8.75C6.5 8.336 6.836 8 7.25 8H25.75Z" fill="#00479D"/>
</svg>
