<svg width="28" height="28" viewBox="0 0 28 28" fill="none" xmlns="http://www.w3.org/2000/svg">
<path d="M16.655 9.2193C16.8 9.3643 16.875 9.5593 16.875 9.7493C16.875 9.9393 16.8 10.1343 16.655 10.2793L12.935 13.9993L16.655 17.7193C16.82 17.8843 16.89 18.0993 16.87 18.3143C16.855 18.4843 16.785 18.6493 16.655 18.7793C16.51 18.9243 16.315 18.9993 16.125 18.9993C15.935 18.9993 15.74 18.9243 15.595 18.7793L11.345 14.5293C11.2 14.3843 11.125 14.1893 11.125 13.9993C11.125 13.8093 11.2 13.6143 11.345 13.4693L15.595 9.2193C15.76 9.0543 15.98 8.9843 16.195 9.0043C16.365 9.0193 16.525 9.0943 16.655 9.2193V9.2193Z" fill="#595959"/>
</svg>
