<svg width="25" height="24" viewBox="0 0 25 24" fill="none" xmlns="http://www.w3.org/2000/svg">
<g clip-path="url(#clip0_196_3325)">
<path d="M10.7002 0C16.336 0 20.9014 4.5647 20.9014 10.2002C20.9013 12.3676 20.223 14.3746 19.0713 16.0264L23.9736 20.9277C24.3576 21.3117 24.532 21.8281 24.4961 22.332C24.4661 22.746 24.2916 23.1547 23.9736 23.4727C23.6256 23.8265 23.1631 24 22.7012 24C22.2394 23.9999 21.7836 23.8263 21.4297 23.4727L16.5273 18.5703C14.8754 19.722 12.8678 20.4004 10.7002 20.4004C5.06462 20.4002 0.500106 15.8355 0.5 10.2002C0.5 4.56481 5.06456 0.000180221 10.7002 0ZM10.7002 3.1875C6.83052 3.18768 3.6875 6.33068 3.6875 10.2002C3.68761 14.0696 6.83059 17.2127 10.7002 17.2129C14.57 17.2129 17.7138 14.0697 17.7139 10.2002C17.7139 6.33057 14.57 3.1875 10.7002 3.1875Z" fill="#00479D"/>
</g>
<defs>
<clipPath id="clip0_196_3325">
<rect width="24" height="24" fill="white" transform="translate(0.5)"/>
</clipPath>
</defs>
</svg>
