<svg width="22" height="22" viewBox="0 0 22 22" fill="none" xmlns="http://www.w3.org/2000/svg">
<path d="M15.584 1.375C17.1023 1.37518 18.334 2.60665 18.334 4.125V17.875C18.334 19.3933 17.1023 20.6248 15.584 20.625H6.41699C4.89853 20.625 3.66699 19.3935 3.66699 17.875V4.125C3.66699 2.60654 4.89853 1.375 6.41699 1.375H15.584ZM6.41699 2.75C5.65891 2.75 5.04199 3.36692 5.04199 4.125V17.875C5.04199 18.6331 5.65891 19.25 6.41699 19.25H15.584C16.3419 19.2498 16.959 18.633 16.959 17.875V4.125C16.959 3.36702 16.3419 2.75018 15.584 2.75H6.41699ZM11.2295 11.917C11.609 11.917 11.917 12.225 11.917 12.6045C11.9168 12.9838 11.6089 13.292 11.2295 13.292H8.02148C7.64209 13.292 7.33416 12.9838 7.33398 12.6045C7.33398 12.225 7.64198 11.917 8.02148 11.917H11.2295ZM13.9795 8.70801C14.3589 8.70801 14.6668 9.01616 14.667 9.39551C14.667 9.77501 14.359 10.083 13.9795 10.083H8.02148C7.64198 10.083 7.33398 9.77501 7.33398 9.39551C7.33416 9.01616 7.64209 8.70801 8.02148 8.70801H13.9795ZM13.9795 5.5C14.359 5.5 14.667 5.808 14.667 6.1875C14.667 6.567 14.359 6.875 13.9795 6.875H8.02148C7.64198 6.875 7.33398 6.567 7.33398 6.1875C7.33398 5.808 7.64198 5.5 8.02148 5.5H13.9795Z" fill="white"/>
</svg>
