<svg width="20" height="20" viewBox="0 0 20 20" fill="none" xmlns="http://www.w3.org/2000/svg">
<path d="M10 1.66675C14.6024 1.66675 18.3338 5.39741 18.334 9.99976C18.334 14.6023 14.6025 18.3337 10 18.3337C5.39765 18.3336 1.66699 14.6021 1.66699 9.99976C1.66717 5.39751 5.39776 1.66692 10 1.66675ZM8.66699 13.4324C7.17505 13.4324 5.86992 14.1256 5.1582 15.155C6.42605 16.3466 8.1268 17.0837 10 17.0837C11.8741 17.0837 13.5758 16.3465 14.8438 15.1541C14.1325 14.1268 12.8266 13.4325 11.334 13.4324H8.66699ZM10 2.91675C6.09484 2.91692 2.91717 6.09418 2.91699 9.99976C2.91699 11.5735 3.43944 13.0254 4.31152 14.2029C5.27944 12.9833 6.87324 12.1824 8.66699 12.1824H11.334C13.128 12.1825 14.7216 12.9834 15.6895 14.2029C16.5615 13.0254 17.084 11.5739 17.084 9.99976C17.0838 6.09407 13.9057 2.91675 10 2.91675ZM10 4.18237C11.8408 4.18237 13.334 5.67552 13.334 7.51636C13.3338 9.35742 11.8407 10.8494 10 10.8494C8.15947 10.8492 6.66721 9.3573 6.66699 7.51636C6.66699 5.67565 8.15934 4.18257 10 4.18237ZM10 5.43237C8.85142 5.43257 7.91699 6.36773 7.91699 7.51636C7.91721 8.6648 8.85155 9.59917 10 9.59937C11.149 9.59937 12.0838 8.66492 12.084 7.51636C12.084 6.36761 11.1492 5.43237 10 5.43237Z" fill="#414141"/>
</svg>
