<svg width="24" height="24" viewBox="0 0 24 24" fill="none" xmlns="http://www.w3.org/2000/svg">
<path d="M9 19C9.19 19 9.385 18.925 9.53 18.78L15.78 12.53C15.925 12.385 16 12.19 16 12C16 11.81 15.925 11.615 15.78 11.47L9.53 5.22C9.385 5.075 9.19 5 9 5C8.81 5 8.615 5.075 8.47 5.22C8.325 5.365 8.25 5.555 8.25 5.74C8.25 5.935 8.32 6.13 8.47 6.28L14.19 12L8.47 17.72C8.305 17.885 8.23 18.11 8.255 18.325C8.27 18.49 8.345 18.655 8.47 18.78C8.595 18.905 8.75 18.975 8.91 18.995C8.94 18.995 8.97 19 9.005 19L9 19Z" fill="#111111"/>
</svg>
