<svg width="141" height="40" viewBox="0 0 141 40" fill="none" xmlns="http://www.w3.org/2000/svg">
<path d="M20 0C8.95369 0 0 8.95369 0 20C0 31.0463 8.95369 40 20 40C31.0463 40 40 31.0463 40 20C40 8.95369 31.0463 0 20 0ZM20 39.0566C9.47684 39.0566 0.943396 30.5232 0.943396 20C0.943396 9.47684 9.47684 0.943396 20 0.943396C30.5232 0.943396 39.0566 9.47684 39.0566 20C39.0566 30.5232 30.5232 39.0566 20 39.0566Z" fill="#F3C921"/>
<path d="M19.9997 0.943359C9.47659 0.943359 0.93457 9.47681 0.93457 20C0.93457 30.5231 9.46802 39.0566 19.9912 39.0566C30.5143 39.0566 39.0478 30.5231 39.0478 20C39.0478 9.47681 30.5229 0.943359 19.9997 0.943359Z" fill="#014493"/>
<path d="M20.0006 33.3532C12.6249 33.3532 6.63867 27.3755 6.63867 19.9913C6.63867 12.6071 12.6164 6.62939 20.0006 6.62939C27.3848 6.62939 33.3625 12.6071 33.3625 19.9913C33.3625 27.3755 27.3848 33.3532 20.0006 33.3532Z" fill="white"/>
<path d="M35.9264 12.5472C36.2952 12.1613 36.3895 11.7496 36.3895 11.4066C36.3895 10.9606 36.2094 10.6261 36.2094 10.6347C35.5061 11.4409 32.1528 14.6398 27.2557 15.0686V14.6141C27.2557 14.6141 27.2386 14.5798 27.2214 14.5798H21.9555C21.9212 14.3311 21.8869 14.0995 21.8612 13.8851V13.8251C21.784 13.2933 21.724 12.8388 21.6211 12.5644C21.8526 12.4014 22.0499 12.1698 22.1785 11.8954C22.3072 11.6381 22.3758 11.3637 22.3758 11.115V11.0635L22.3329 11.0892C22.2643 11.1321 22.0928 11.2007 22.0928 11.2007C21.8441 11.2951 21.3981 11.3894 20.6862 11.3379C20.3003 11.3122 19.9573 11.3036 19.6657 11.3122C19.3569 11.3294 19.1168 11.3637 18.9367 11.4151C18.7394 11.4752 18.585 11.5609 18.465 11.6638C18.3621 11.7496 18.302 11.8439 18.2591 11.904C17.9504 11.8868 17.5559 11.9211 17.2729 11.9983C17.0756 12.0498 16.9384 12.1355 16.8441 12.2728C16.7411 12.4014 16.6983 12.5729 16.6983 12.7873C16.6983 12.916 16.724 13.1218 16.8012 13.3448C16.9041 13.6278 17.0585 13.868 17.2643 14.0395L17.3072 14.0738V14.0138C17.3072 14.0138 17.3672 13.6707 17.8561 13.6621C17.8989 13.6621 17.9847 13.6621 18.019 13.6621C18.1305 13.6621 18.2077 13.6964 18.2506 13.7393C18.2849 13.7822 18.2935 13.8594 18.2763 13.9623C18.2763 13.9709 18.2334 14.2282 18.1477 14.494C18.1477 14.494 18.1391 14.5283 18.1219 14.5798H12.796C12.796 14.5798 12.7617 14.5884 12.7617 14.6141V15.0686C7.86464 14.6398 4.51129 11.4409 3.80803 10.6347C3.80803 10.6347 3.62793 10.9606 3.62793 11.4066C3.62793 11.7496 3.73085 12.1527 4.09105 12.5472C3.94525 12.9074 3.748 13.8937 4.7257 14.717C4.70855 14.8114 4.69139 14.9486 4.69139 15.0944C4.69139 15.5832 4.8715 16.3122 5.77201 16.9211C5.77201 16.9211 5.83205 16.964 5.87493 16.9897C5.85778 17.1784 5.8835 18.6021 7.91609 19.0995C8.11335 19.6827 8.67081 20.4203 10.043 20.5146C10.429 21.1407 10.9778 21.458 11.7326 21.4494C11.9127 21.7325 12.2643 21.9554 12.6845 22.0584C12.959 22.127 13.242 22.127 13.5164 22.0755C13.6022 22.1441 13.7652 22.2385 13.971 22.3242C13.7308 22.5043 13.6108 22.7187 13.525 22.976C13.3964 23.3791 13.3964 23.7736 13.8166 24.3311C13.9624 24.5283 14.0396 24.6999 14.0911 24.8971C14.1339 25.0944 14.1425 25.3088 14.1425 25.6261C14.1425 25.8234 14.1854 26.012 14.2626 26.1836C14.3398 26.3465 14.4598 26.4923 14.6056 26.6038C14.6914 26.6638 14.7857 26.7153 14.8887 26.7496C14.8286 26.8354 14.7772 26.9297 14.7429 27.0326C14.6914 27.2042 14.6742 27.3928 14.7085 27.5729C14.7429 27.753 14.82 27.9331 14.9401 28.0961C15.1288 28.3534 15.2489 28.5335 15.326 28.7136C15.4032 28.9023 15.4375 29.0824 15.4375 29.3311C15.4204 30.0343 15.6434 30.3517 15.995 30.6004C16.3466 30.8491 16.7068 30.9692 17.3758 30.7376C17.6073 30.6604 17.796 30.6347 18.0019 30.6518C18.1991 30.669 18.4135 30.729 18.7137 30.8319C18.9024 30.892 19.0911 30.9091 19.2797 30.892C19.4598 30.8662 19.6399 30.7976 19.7857 30.6947C19.8715 30.6347 19.9487 30.5575 20.0087 30.4717C20.0773 30.5575 20.1459 30.6347 20.2317 30.6947C20.3775 30.7976 20.549 30.8662 20.7377 30.892C20.9264 30.9177 21.1151 30.892 21.3037 30.8319C21.6039 30.7376 21.8183 30.6776 22.0156 30.6518C22.2128 30.6347 22.4015 30.6518 22.6331 30.7376C23.302 30.9692 23.6622 30.8491 24.0139 30.6004C24.3569 30.3517 24.5885 30.0343 24.5713 29.3311C24.5713 29.0824 24.6056 28.9023 24.6828 28.7136C24.76 28.5335 24.8801 28.3448 25.0688 28.0961C25.1888 27.9331 25.266 27.7616 25.3003 27.5729C25.3346 27.3928 25.326 27.2042 25.266 27.0326C25.2317 26.9297 25.1888 26.8354 25.1202 26.7496C25.2231 26.7153 25.3175 26.6638 25.4032 26.6038C25.549 26.5009 25.6691 26.3551 25.7463 26.1836C25.8235 26.012 25.8664 25.8234 25.8664 25.6261C25.8664 25.3088 25.8749 25.0858 25.9178 24.8971C25.9607 24.6999 26.0465 24.5283 26.1923 24.3311C26.6211 23.7736 26.6211 23.3877 26.4838 22.976C26.3981 22.7187 26.278 22.5043 26.0379 22.3242C26.2523 22.2385 26.4067 22.1441 26.4924 22.0755C26.7669 22.127 27.0499 22.1184 27.3243 22.0584C27.7446 21.9554 28.0962 21.7325 28.2763 21.4494C29.031 21.4494 29.5885 21.1407 29.9658 20.5146C31.338 20.4203 31.8955 19.6827 32.0928 19.0995C34.1254 18.6021 34.1511 17.1784 34.1339 16.9897C34.1768 16.964 34.2368 16.9211 34.2368 16.9211C35.1459 16.3122 35.3175 15.5832 35.3175 15.0944C35.3175 14.9486 35.3003 14.8028 35.2832 14.717C36.2609 13.8937 36.0636 12.9074 35.9178 12.5472H35.9264ZM17.4615 16.9297C17.067 16.8954 16.2351 16.7239 15.5919 16.0378C15.4461 15.8834 15.266 15.7204 15.1116 15.6004C15.4118 15.6261 17.1614 15.7805 17.7874 15.8405C17.6931 16.175 17.5816 16.5438 17.4615 16.9297ZM24.4084 16.0463C23.7651 16.7325 22.9332 16.8954 22.5387 16.9383C22.4187 16.5524 22.3072 16.1836 22.2128 15.8491C22.8475 15.7891 24.5885 15.6347 24.8886 15.609C24.7257 15.729 24.5542 15.892 24.4084 16.0463Z" fill="#A87122"/>
<path d="M21.7754 24.7256C21.1922 24.3311 20.3946 24.494 20.0001 25.0772C19.6056 25.669 18.8165 25.8234 18.2248 25.4289C17.633 25.0344 17.4786 24.2453 17.8732 23.6536C17.5987 24.0567 17.4443 24.5455 17.4443 25.0772C17.4443 26.4923 18.5936 27.633 20.0001 27.633C20.892 27.633 21.6725 27.1784 22.127 26.4923C22.5215 25.9006 22.3586 25.1115 21.7754 24.717V24.7256Z" fill="#014493"/>
<path d="M20.0001 22.5215C19.1081 22.5215 18.3277 22.976 17.8731 23.6621C17.4786 24.2539 17.6416 25.0429 18.2248 25.4374C18.808 25.8319 19.6056 25.669 20.0001 25.0858C20.3946 24.494 21.1836 24.3397 21.7754 24.7342C22.3671 25.1287 22.5215 25.9177 22.127 26.5095C22.4014 26.1064 22.5558 25.6175 22.5558 25.0858C22.5558 23.6707 21.4066 22.5301 20.0001 22.5301V22.5215Z" fill="#D71723"/>
<path d="M28.1907 17.9848H25.9951L26.0037 17.9762L27.0929 15.6091L28.1907 17.9848Z" fill="#F3C921"/>
<path d="M29.0226 16.7497C28.6967 16.8612 28.3451 16.9212 28.002 16.9384L27.6504 16.1922C28.4651 16.0807 29.2284 15.9092 29.9488 15.7034C29.9145 15.9435 29.7602 16.4924 29.0226 16.7497Z" fill="#F3C921"/>
<path d="M29.2368 16.9383C29.1167 17.4185 28.8594 17.753 28.4563 17.916L28.1133 17.1784C28.4478 17.1527 28.7908 17.0926 29.1081 16.9811C29.151 16.964 29.1939 16.9468 29.2368 16.9297V16.9383Z" fill="#F3C921"/>
<path d="M23.4915 21.9726C23.4915 21.9726 23.4829 21.904 23.4572 21.8869C23.4315 21.8611 23.4057 21.8526 23.3714 21.8526C23.3543 21.8526 23.3457 21.8526 23.3286 21.8526C23.3114 21.8526 23.2943 21.8697 23.2771 21.8783L22.085 23.0961C21.9992 23.0018 21.9049 22.916 21.8105 22.8388L22.8826 21.4066C23.037 21.2008 23.2599 21.0464 23.4915 21.0464C23.7402 21.0464 23.9718 21.1579 24.1433 21.3894C24.3406 21.6553 24.4949 21.8611 24.6836 22.0155C24.2977 22.2814 23.3371 22.9589 22.4623 23.5678C22.3937 23.4563 22.3166 23.3448 22.2308 23.2419L23.4658 22.0412C23.4658 22.0412 23.5001 21.9812 23.5001 21.9555L23.4915 21.9726Z" fill="#F3C921"/>
<path d="M22.0328 20.8749C22.0328 20.8749 21.9985 20.8149 21.9728 20.8063C21.9385 20.7891 21.9127 20.7891 21.8784 20.8063C21.8441 20.8063 21.8184 20.8406 21.8098 20.8663L21.0551 22.4101C20.935 22.3586 20.8064 22.3243 20.6777 22.29C20.9865 21.2694 21.3295 20.1459 21.4668 19.7C21.6726 19.8286 21.9127 19.9144 22.23 20.0173C22.5045 20.1116 22.676 20.2917 22.7618 20.5319C22.8304 20.7548 22.7618 21.0121 22.6074 21.218L21.5782 22.6759C21.4753 22.6073 21.3638 22.5473 21.2523 22.4873L22.0414 20.9778C22.0414 20.9778 22.0585 20.9435 22.0585 20.9178C22.0585 20.9092 22.0585 20.8921 22.0585 20.8835L22.0328 20.8749Z" fill="#F3C921"/>
<path d="M17.9677 20.9693L18.7567 22.4787C18.6452 22.5302 18.5337 22.5902 18.4308 22.6674L17.4017 21.2094C17.2473 21.0036 17.1787 20.7463 17.2473 20.5233C17.3245 20.2832 17.496 20.1031 17.779 20.0087C18.0964 19.9058 18.3365 19.8201 18.5423 19.6914C18.6795 20.1374 19.0226 21.2609 19.3313 22.2815C19.2027 22.3158 19.0741 22.3501 18.954 22.4015L18.1993 20.8578C18.1993 20.8578 18.1564 20.8063 18.1307 20.7978C18.0964 20.7892 18.062 20.7892 18.0363 20.7978C18.002 20.8149 17.9849 20.8406 17.9763 20.8664C17.9763 20.8835 17.9763 20.8921 17.9763 20.9092C17.9763 20.9264 17.9763 20.9436 17.9934 20.9607L17.9677 20.9693Z" fill="#F3C921"/>
<path d="M16.5352 22.0583L17.7702 23.259C17.6844 23.3619 17.6073 23.4734 17.5387 23.5849C16.6639 22.9674 15.7033 22.2985 15.3174 22.0326C15.4975 21.8782 15.6604 21.6724 15.8577 21.4065C16.0292 21.175 16.2608 21.0635 16.5095 21.0635C16.7411 21.0635 16.964 21.2093 17.1184 21.4237L18.1905 22.8559C18.0961 22.9331 18.0018 23.0189 17.916 23.1132L16.7239 21.8954C16.7239 21.8954 16.6896 21.8697 16.6724 21.8697C16.6553 21.8697 16.6467 21.8697 16.6296 21.8697C16.5953 21.8697 16.5695 21.8782 16.5438 21.904C16.5181 21.9297 16.5095 21.9554 16.5095 21.9897C16.5095 22.024 16.5181 22.0583 16.5438 22.0755L16.5352 22.0583Z" fill="#F3C921"/>
<path d="M25.7381 16.5782C25.9696 16.4238 26.2269 16.3294 26.4928 16.3037L26.2784 16.7497C26.064 16.6982 25.8839 16.6382 25.7295 16.5782H25.7381Z" fill="#F3C921"/>
<path d="M26.1753 16.9727L25.9094 17.5388C25.5835 17.3758 25.3177 17.2129 25.1719 17.1185C25.1805 17.1014 25.1976 17.0842 25.2062 17.0671C25.3005 16.947 25.3949 16.8441 25.5064 16.7498C25.6693 16.8269 25.9009 16.9041 26.1667 16.9727H26.1753Z" fill="#F3C921"/>
<path d="M24.9746 16.887C24.4857 17.5473 23.671 17.9762 22.8991 18.0533C22.8133 17.7961 22.7276 17.5388 22.6504 17.2901C23.1049 17.2386 23.9711 17.0499 24.683 16.2866C25.129 15.8149 25.7036 15.4204 26.5269 15.4204C26.6555 15.4204 26.7842 15.4204 26.9128 15.4204L26.6298 16.0293C26.0723 16.0293 25.4463 16.2695 24.9832 16.8955L24.9746 16.887Z" fill="#F3C921"/>
<path d="M23.3181 20.7291C23.2668 20.7291 23.2241 20.7462 23.1728 20.7634C23.1558 20.7634 23.1387 20.7719 23.1216 20.7805C23.1216 20.7634 23.1216 20.7462 23.1216 20.7291C23.1216 20.6261 23.1045 20.5232 23.0703 20.4203C23.0703 20.4203 23.0703 20.4117 23.0703 20.4032C23.113 20.3431 23.1643 20.2745 23.207 20.1802C23.2583 20.3774 23.2925 20.5575 23.3181 20.7291Z" fill="#F3C921"/>
<path d="M22.9764 20.2144C22.8563 20.0086 22.6591 19.8542 22.4189 19.7513C22.4618 19.717 22.7448 19.4854 22.8478 18.9966C22.9507 19.3225 23.0536 19.6312 23.1308 19.9228C23.0879 20.0429 23.0279 20.1372 22.9764 20.2144Z" fill="#F3C921"/>
<path d="M21.9902 18.6708C22.1189 18.5422 22.3504 18.2506 22.4276 17.7532C22.5048 17.9762 22.5734 18.1991 22.6506 18.4307V18.4479C22.6763 18.5165 22.7021 18.5937 22.7278 18.6623C22.7106 19.1425 22.4619 19.4599 22.359 19.5285C22.2561 19.4599 22.0074 19.1511 21.9902 18.6794V18.6708Z" fill="#F3C921"/>
<path d="M22.2303 19.6827C21.9988 19.6055 21.8186 19.5369 21.6729 19.4511C21.7586 19.3568 21.8358 19.2367 21.8958 19.0652C21.9816 19.3825 22.136 19.5798 22.2303 19.6741V19.6827Z" fill="#F3C921"/>
<path d="M22.3676 17.5387C22.3676 17.5387 22.3162 17.5901 22.299 17.5987C22.2047 17.5387 21.9645 17.2642 21.9131 16.8354C21.9474 16.8097 22.0074 16.7496 22.076 16.6467C22.1618 16.9383 22.2561 17.2299 22.3591 17.5387H22.3676Z" fill="#F3C921"/>
<path d="M22.2558 17.8303C22.1443 18.2162 21.9471 18.4564 21.8527 18.5164C21.7584 18.4564 21.5268 18.1819 21.4668 17.736C21.544 17.6673 21.7155 17.4872 21.827 17.1699C21.9642 17.6245 22.2387 17.8217 22.2558 17.8303Z" fill="#F3C921"/>
<path d="M21.3817 17.53C21.2874 17.47 21.0729 17.2127 21.0215 16.8096C21.1072 16.7324 21.2874 16.5266 21.3817 16.1921C21.476 16.5266 21.6561 16.7324 21.7419 16.8096C21.6904 17.2127 21.476 17.47 21.3817 17.53Z" fill="#F3C921"/>
<path d="M20.9178 16.6211C20.8235 16.561 20.6177 16.3038 20.5576 15.9092C20.6434 15.8235 20.8235 15.6262 20.9178 15.2917C21.0122 15.6262 21.1923 15.8235 21.278 15.9092C21.218 16.3038 21.0122 16.561 20.9178 16.6211Z" fill="#F3C921"/>
<path d="M20.8239 16.8096C20.7725 17.2127 20.5581 17.47 20.4637 17.53C20.3694 17.47 20.155 17.2127 20.1035 16.8096C20.1893 16.7324 20.3694 16.5266 20.4637 16.1921C20.5581 16.5266 20.7382 16.7324 20.8239 16.8096Z" fill="#F3C921"/>
<path d="M19.9999 16.6211C19.9055 16.561 19.6997 16.3038 19.6396 15.9092C19.7254 15.8235 19.9055 15.6262 19.9999 15.2917C20.0942 15.6262 20.2743 15.8235 20.3601 15.9092C20.3 16.3038 20.0942 16.561 19.9999 16.6211Z" fill="#F3C921"/>
<path d="M19.8972 16.8096C19.8457 17.2127 19.6313 17.47 19.537 17.53C19.4426 17.47 19.2282 17.2127 19.1768 16.8096C19.2625 16.7324 19.4426 16.5266 19.537 16.1921C19.6313 16.5266 19.8114 16.7324 19.8972 16.8096Z" fill="#F3C921"/>
<path d="M19.0741 16.6211C18.9797 16.561 18.7739 16.3038 18.7139 15.9092C18.7996 15.8235 18.9797 15.6262 19.0741 15.2917C19.1684 15.6262 19.3485 15.8235 19.4343 15.9092C19.3742 16.3038 19.1684 16.561 19.0741 16.6211Z" fill="#F3C921"/>
<path d="M18.9792 16.8096C18.9277 17.2127 18.7133 17.47 18.619 17.53C18.5247 17.47 18.3102 17.2127 18.2588 16.8096C18.3446 16.7324 18.5247 16.5266 18.619 16.1921C18.7133 16.5266 18.8934 16.7324 18.9792 16.8096Z" fill="#F3C921"/>
<path d="M18.5341 17.736C18.4741 18.1819 18.2425 18.4564 18.1482 18.5164C18.0539 18.4564 17.8566 18.2162 17.7451 17.8303C17.7451 17.8303 18.0367 17.6159 18.1739 17.1699C18.2768 17.4872 18.457 17.6759 18.5341 17.736Z" fill="#F3C921"/>
<path d="M16.8781 20.7891C16.8781 20.7891 16.844 20.7805 16.8269 20.7719C16.7756 20.7548 16.7329 20.7462 16.6816 20.7376C16.7073 20.5747 16.7414 20.3946 16.7927 20.1887C16.8354 20.2831 16.8867 20.3517 16.9294 20.4117C16.9294 20.4117 16.9294 20.4203 16.9294 20.4289C16.8952 20.5232 16.8781 20.6261 16.8781 20.7376C16.8781 20.7548 16.8781 20.7719 16.8781 20.7891Z" fill="#F3C921"/>
<path d="M16.8699 19.9228C16.9471 19.6398 17.05 19.3225 17.1529 18.9966C17.2558 19.4854 17.5389 19.717 17.5817 19.7513C17.3416 19.8542 17.1529 20.0086 17.0243 20.2144C16.9642 20.1372 16.9128 20.0429 16.8613 19.9228H16.8699Z" fill="#F3C921"/>
<path d="M17.2646 18.6537C17.2904 18.5851 17.3161 18.5079 17.3333 18.4393V18.4222C17.4104 18.1992 17.4876 17.9762 17.5648 17.7446C17.6506 18.2421 17.8821 18.5337 18.0022 18.6623C17.9851 19.134 17.7363 19.4427 17.6334 19.5114C17.5305 19.4427 17.2732 19.1254 17.2646 18.6451V18.6537Z" fill="#F3C921"/>
<path d="M18.105 19.0737C18.165 19.2367 18.2422 19.3653 18.328 19.4597C18.1736 19.5454 17.9935 19.614 17.7705 19.6912C17.8648 19.5969 18.0192 19.3996 18.105 19.0823V19.0737Z" fill="#F3C921"/>
<path d="M17.7014 17.5987C17.7014 17.5987 17.6585 17.5644 17.6328 17.5387C17.7357 17.2385 17.8301 16.9383 17.9158 16.6467C17.9844 16.7496 18.0531 16.8097 18.0788 16.8354C18.0273 17.2642 17.7958 17.5387 17.6928 17.5987H17.7014Z" fill="#F3C921"/>
<path d="M15.3092 16.2866C16.021 17.0499 16.8872 17.2386 17.3417 17.2901C17.256 17.5388 17.1788 17.7961 17.093 18.0533C16.3212 17.9762 15.515 17.5473 15.0176 16.887C14.5544 16.2609 13.9284 16.0293 13.3709 16.0293L13.0879 15.4204C13.2165 15.4204 13.3452 15.4204 13.4652 15.4204C14.2886 15.4204 14.8632 15.8149 15.3092 16.2866Z" fill="#F3C921"/>
<path d="M14.2633 16.5782C14.1175 16.6382 13.9288 16.6982 13.7144 16.7497L13.5 16.3037C13.7659 16.3294 14.0232 16.4238 14.2547 16.5696L14.2633 16.5782Z" fill="#F3C921"/>
<path d="M14.4863 16.7498C14.5893 16.8441 14.6922 16.947 14.7865 17.0671C14.7951 17.0842 14.8122 17.1014 14.8208 17.1185C14.675 17.2129 14.4177 17.3758 14.0832 17.5388L13.8174 16.9727C14.0918 16.8956 14.3148 16.8184 14.4778 16.7498H14.4863Z" fill="#F3C921"/>
<path d="M14.3141 18.0276L14.1854 17.7617C14.5456 17.5816 14.8372 17.3929 14.9744 17.2986C15.0859 17.4187 15.1889 17.5216 15.3089 17.6245C15.0259 17.9675 14.134 18.9109 12.9762 18.8938C12.3158 18.8852 11.9727 18.5593 11.8184 18.3277C12.0756 18.4564 12.453 18.5936 12.9076 18.5936C13.6365 18.5936 14.1511 18.2591 14.3055 18.1391C14.357 18.0962 14.3398 18.0705 14.3226 18.0361L14.3141 18.0276Z" fill="#F3C921"/>
<path d="M15.506 17.7788C15.6347 17.8646 15.7633 17.9503 15.892 18.0189C15.729 18.3277 15.1029 19.374 14.0652 19.5455C13.4391 19.6484 13.1218 19.3311 12.9932 19.151C14.2882 19.151 15.2144 18.139 15.4975 17.7874L15.506 17.7788Z" fill="#F3C921"/>
<path d="M16.1157 18.1133C16.2615 18.1733 16.4159 18.2248 16.5702 18.2591C16.4502 18.6107 16.1157 19.4683 15.5154 19.82C14.9493 20.1459 14.5291 19.9143 14.3232 19.7428C15.3867 19.4512 15.9699 18.4135 16.1157 18.1133Z" fill="#F3C921"/>
<path d="M15.6435 20.0258C16.3553 19.6227 16.6984 18.6622 16.8099 18.3105C16.8699 18.3191 16.93 18.3277 16.9986 18.3363C16.8099 18.9109 16.6212 19.4598 16.4926 19.9486C16.1324 20.2488 15.7207 20.163 15.5234 20.0944C15.5663 20.0773 15.6006 20.0515 15.6435 20.0344V20.0258Z" fill="#F3C921"/>
<path d="M18.5165 19.3312C18.3879 19.2283 18.2335 19.031 18.1992 18.748C18.2249 18.7309 18.4822 18.5336 18.6195 18.0876C18.7653 18.4993 19.014 18.688 19.0225 18.6966L19.0483 18.7137C18.9711 18.7909 18.9025 18.8852 18.8339 18.9882C18.731 19.134 18.628 19.2455 18.5165 19.3312Z" fill="#F3C921"/>
<path d="M18.6973 17.7445C18.7745 17.6845 18.9717 17.4787 19.0832 17.1013C19.1861 17.4787 19.3919 17.6759 19.4691 17.7445C19.3919 18.1476 19.1775 18.4049 19.0832 18.465C18.9889 18.4049 18.7745 18.1476 18.6973 17.7445Z" fill="#F3C921"/>
<path d="M19.5628 18.0105C19.6143 18.1391 19.6743 18.2421 19.7344 18.3278C19.6314 18.345 19.5285 18.3793 19.4256 18.4307C19.3999 18.4479 19.3656 18.465 19.3398 18.4822C19.417 18.3707 19.5114 18.2163 19.5714 18.0105H19.5628Z" fill="#F3C921"/>
<path d="M19.6404 17.7188C19.7262 17.6416 19.9063 17.4358 20.0006 17.1013C20.095 17.4358 20.2751 17.6416 20.3608 17.7188C20.2836 18.019 20.1293 18.2248 20.0349 18.3106H19.9577C19.8634 18.2248 19.7176 18.019 19.6318 17.7188H19.6404Z" fill="#F3C921"/>
<path d="M20.4374 18.0105C20.4974 18.2163 20.5832 18.3707 20.6689 18.4822C20.6432 18.465 20.6089 18.4479 20.5832 18.4307C20.4802 18.3793 20.3688 18.345 20.2744 18.3278C20.3344 18.2421 20.3945 18.1391 20.4459 18.0105H20.4374Z" fill="#F3C921"/>
<path d="M20.541 17.7445C20.6182 17.6845 20.8155 17.4787 20.9269 17.1013C21.0299 17.4787 21.2357 17.6759 21.3129 17.7445C21.2357 18.1476 21.0213 18.4049 20.9269 18.465C20.8326 18.4049 20.6182 18.1476 20.541 17.7445Z" fill="#F3C921"/>
<path d="M20.9701 18.6966C20.9701 18.6966 21.2359 18.4993 21.3732 18.0876C21.5104 18.525 21.7677 18.7309 21.7934 18.748C21.7505 19.031 21.6047 19.2283 21.4761 19.3312C21.3646 19.2455 21.2617 19.134 21.1587 18.9882C21.0901 18.8852 21.0129 18.7909 20.9443 18.7137L20.9701 18.6966Z" fill="#F3C921"/>
<path d="M22.9932 18.3277C23.0532 18.3277 23.1218 18.3106 23.1818 18.302C23.2933 18.6536 23.645 19.6142 24.3482 20.0173C24.3911 20.043 24.4254 20.0601 24.4683 20.0773C24.271 20.1459 23.8594 20.2317 23.4992 19.9315C23.3705 19.4427 23.1818 18.8938 22.9932 18.3192V18.3277Z" fill="#F3C921"/>
<path d="M23.4219 18.2591C23.5848 18.2248 23.7306 18.1733 23.8764 18.1133C24.0222 18.4049 24.6054 19.4512 25.6689 19.7428C25.463 19.9143 25.0428 20.1459 24.4768 19.82C23.8764 19.4683 23.5334 18.6107 23.4219 18.2591Z" fill="#F3C921"/>
<path d="M24.1004 18.0104C24.2376 17.9418 24.3662 17.8646 24.4863 17.7703C24.7693 18.1219 25.6956 19.1425 26.9906 19.1339C26.862 19.314 26.5446 19.6399 25.9186 19.5284C24.8808 19.3569 24.2547 18.3106 24.0918 18.0018L24.1004 18.0104Z" fill="#F3C921"/>
<path d="M24.6836 17.6245C24.8037 17.5301 24.9152 17.4187 25.0181 17.2986C25.1553 17.3929 25.4383 17.573 25.8071 17.7617L25.6784 18.0276C25.6784 18.0276 25.6527 18.0876 25.6956 18.1305C25.8414 18.2506 26.3646 18.585 27.0935 18.585C27.5481 18.585 27.9254 18.4478 28.1827 18.3192C28.0198 18.5593 27.6853 18.8766 27.0249 18.8852C25.8671 18.9024 24.9752 17.959 24.6922 17.6159L24.6836 17.6245Z" fill="#F3C921"/>
<path d="M26.9299 14.9143V15.0773C26.9299 15.0773 23.1134 15.386 22.1271 15.4718C22.0842 15.2917 22.0499 15.1287 22.0242 14.9743C22.0242 14.9572 22.0242 14.9315 22.0156 14.9143H26.9299Z" fill="#F3C921"/>
<path d="M22.0161 16.4237C21.9561 16.5266 21.8875 16.5952 21.8446 16.6209C21.7502 16.5609 21.5444 16.3036 21.4844 15.9091C21.553 15.8405 21.6731 15.7032 21.7588 15.4717C21.8274 15.7547 21.9132 16.0806 22.0075 16.4151L22.0161 16.4237Z" fill="#F3C921"/>
<path d="M18.0105 13.2933C18.0105 13.2933 17.8818 13.2933 17.8304 13.2933C17.7446 13.2933 17.3673 13.2933 17.2643 13.5334C17.1872 13.4219 17.1271 13.3019 17.0842 13.1732C17.0414 13.036 17.0156 12.8988 17.0156 12.7701C17.0156 12.6329 17.0414 12.5386 17.0928 12.47C17.1443 12.4014 17.2215 12.3585 17.3329 12.3242C17.5902 12.2556 17.959 12.2213 18.2335 12.247H18.3192C18.4479 12.2556 18.8167 12.47 19.0482 12.8216C19.0482 12.8216 19.8372 12.6758 20.369 12.1526C20.369 12.1526 19.3741 12.2556 18.5508 12.1355C18.5336 12.1355 18.5079 12.1183 18.5251 12.084C18.5251 12.084 18.5251 12.084 18.5336 12.0669C18.6022 11.964 18.6966 11.8439 19.0053 11.7496C19.1511 11.6981 19.3741 11.6724 19.6486 11.6552C19.9316 11.6466 20.2575 11.6552 20.6263 11.6809C21.1837 11.7238 21.5954 11.6809 21.8956 11.6038C21.8098 11.8267 21.6554 12.0926 21.3724 12.2813L21.2695 12.3499L21.158 12.4271L21.2094 12.5472L21.2523 12.6586C21.3467 12.8902 21.4067 13.3362 21.4839 13.8593V13.9194C21.5353 14.2453 21.5868 14.6398 21.6554 15.0343C21.6554 15.0343 21.6554 15.0514 21.6554 15.06C21.6383 15.4288 21.4582 15.6689 21.3638 15.729C21.2523 15.6518 20.995 15.3259 20.995 14.8285H20.8149C20.8149 15.3259 20.5491 15.6518 20.4462 15.729C20.3347 15.6518 20.0774 15.3259 20.0774 14.8285H19.8973C19.8973 15.3259 19.6314 15.6518 19.5285 15.729C19.417 15.6518 19.1597 15.3259 19.1597 14.8285H18.9796C18.9796 15.3259 18.7137 15.6518 18.6108 15.729C18.5251 15.6689 18.3535 15.446 18.3192 15.0943C18.3793 14.8628 18.4564 14.5969 18.4564 14.5797C18.5422 14.2796 18.5937 14.0137 18.5937 14.0051C18.628 13.7907 18.5937 13.6278 18.4908 13.4991C18.3878 13.3791 18.2163 13.3019 18.0019 13.2933H18.0105Z" fill="#F3C921"/>
<path d="M18.5171 15.9093C18.4571 16.3038 18.2512 16.5611 18.1569 16.6211C18.114 16.5954 18.0454 16.5268 17.9854 16.4239C18.0883 16.0808 18.174 15.7635 18.2341 15.4805C18.3198 15.712 18.4399 15.8493 18.5085 15.9179L18.5171 15.9093Z" fill="#F3C921"/>
<path d="M13.0703 14.9143H18.0017C17.976 15.0086 17.9502 15.1116 17.9331 15.1887C17.9159 15.2745 17.8902 15.3689 17.8731 15.4718C16.8439 15.386 13.0703 15.0773 13.0703 15.0773V14.9143Z" fill="#F3C921"/>
<path d="M12.9073 15.6091L13.9965 17.9762V17.9848H11.8096L12.9073 15.6091Z" fill="#F3C921"/>
<path d="M10.8923 16.9899C11.2096 17.1014 11.5527 17.1614 11.8872 17.1872L11.5441 17.9247C11.141 17.7532 10.8837 17.4273 10.7637 16.947C10.8066 16.9642 10.8494 16.9813 10.8923 16.9985V16.9899Z" fill="#F3C921"/>
<path d="M10.0518 15.7119C10.7722 15.9263 11.544 16.0893 12.3502 16.2008L11.9986 16.9469C11.6555 16.9298 11.3039 16.8697 10.978 16.7582C10.2404 16.5009 10.0861 15.9521 10.0518 15.7119Z" fill="#F3C921"/>
<path d="M3.96263 11.3123C6.01237 13.3963 9.50294 15.1716 12.7276 15.4032L12.4703 15.9521C8.19933 15.4375 5.2062 13.1647 4.27138 12.2557C3.92832 11.9298 3.89402 11.5352 3.96263 11.3208V11.3123Z" fill="#F3C921"/>
<path d="M4.36536 12.7188C5.2573 13.5163 7.18698 14.82 9.7856 15.6261C9.79418 15.7805 9.86279 16.2265 10.2316 16.5867C8.52488 16.3808 6.2007 15.5661 4.9314 14.4597C4.14238 13.7651 4.23672 13.079 4.36536 12.7188Z" fill="#F3C921"/>
<path d="M5.01719 14.8972C6.48374 16.0293 8.84223 16.724 10.4803 16.8612C10.5403 17.1528 10.6433 17.453 10.8491 17.7017C9.36539 17.8132 7.37568 17.5816 5.94343 16.6211C5.02576 16.0036 4.97431 15.2574 5.01719 14.8972Z" fill="#F3C921"/>
<path d="M7.5736 18.6707C6.81888 18.3791 6.28715 17.8731 6.20996 17.127C7.72797 17.9503 9.66622 18.0789 11.0727 17.9331C11.1757 18.0189 11.2957 18.0875 11.4329 18.1475C11.4501 18.2076 11.553 18.4649 11.8103 18.705C11.2528 18.8765 9.36605 19.3568 7.56502 18.6707H7.5736Z" fill="#F3C921"/>
<path d="M10.1716 20.1803C9.21964 20.146 8.59357 19.8115 8.31055 19.1854C10.1888 19.5799 11.8526 18.971 12.0584 18.8853C12.2299 18.9882 12.4358 19.0739 12.6931 19.1168C12.7016 19.1425 12.7874 19.3055 12.9589 19.4684C12.633 19.6571 11.5267 20.2317 10.1716 20.1803Z" fill="#F3C921"/>
<path d="M10.4033 20.4804C11.7069 20.4546 12.8218 19.8715 13.1735 19.6399C13.3793 19.76 13.6537 19.8457 14.0225 19.8028C14.0654 19.8457 14.1254 19.9058 14.2112 19.9658C13.9282 20.2402 13.1735 20.8749 12.1186 21.055C11.3296 21.1922 10.7807 21.0035 10.4033 20.4804Z" fill="#F3C921"/>
<path d="M12.7872 21.7411C12.5042 21.7068 12.2469 21.5439 12.084 21.3637C13.319 21.1922 14.1509 20.4118 14.4339 20.103C14.6397 20.2059 14.9056 20.266 15.2229 20.1974C15.2658 20.2402 15.3344 20.2831 15.4373 20.326C15.1457 20.7205 14.1595 21.9212 12.7787 21.7497L12.7872 21.7411Z" fill="#F3C921"/>
<path d="M13.9111 21.9212C14.8803 21.5867 15.5321 20.6862 15.7207 20.3946C15.9266 20.4204 16.1753 20.4118 16.4068 20.3003C16.3725 20.4632 16.3468 20.609 16.3297 20.7463C16.0552 20.7977 15.7979 20.9692 15.6092 21.2265C15.249 21.724 15.0518 21.9469 14.5629 22.1013C14.5629 22.1013 14.5629 22.1013 14.5544 22.1013C14.2713 22.0842 14.0569 21.9984 13.9111 21.9212Z" fill="#F3C921"/>
<path d="M14.1005 24.1253C13.7231 23.6107 13.7831 23.3449 13.8689 23.0876C13.9547 22.8303 14.0576 22.5816 14.6665 22.3843C14.8552 22.3243 15.001 22.2557 15.1382 22.1699C15.4898 22.4101 16.519 23.1219 17.4538 23.7565C17.3938 23.868 17.3509 23.9795 17.308 24.091L15.001 23.3192C14.9324 23.2934 14.8552 23.3363 14.838 23.4049C14.8123 23.4735 14.8552 23.5507 14.9238 23.5679L17.2394 24.2969C17.2051 24.4169 17.1794 24.537 17.1622 24.6571C16.0301 24.6228 14.7866 24.5884 14.3578 24.5799C14.2977 24.4341 14.2205 24.2883 14.109 24.1339L14.1005 24.1253Z" fill="#F3C921"/>
<path d="M14.8115 26.2864C14.6057 26.1406 14.4856 25.9177 14.4856 25.6261C14.4856 25.2916 14.477 25.0343 14.417 24.8027C14.8887 24.8027 16.0551 24.8285 17.1271 24.8542C17.1271 24.9314 17.1185 25.0086 17.1185 25.0858C17.1185 25.1458 17.1185 25.1972 17.1185 25.2573L15.4118 25.4974C15.4118 25.4974 15.3518 25.5231 15.3347 25.5489C15.3175 25.5746 15.3089 25.6089 15.3089 25.6432C15.3089 25.6775 15.3347 25.7032 15.3604 25.7204C15.369 25.729 15.3861 25.7376 15.3947 25.7376C15.4118 25.7376 15.429 25.7376 15.4547 25.7376L17.1357 25.4545C17.1528 25.5832 17.1786 25.7032 17.2129 25.8233L15.5062 26.355C15.2575 26.4322 14.9916 26.4237 14.8029 26.2864H14.8115Z" fill="#F3C921"/>
<path d="M15.2146 27.8817C15.0431 27.6416 15.0088 27.3929 15.0859 27.1527C15.1631 26.9297 15.369 26.7668 15.6177 26.6896L17.3072 26.115C17.3501 26.2351 17.4016 26.3466 17.4616 26.458L15.935 27.2213C15.935 27.2213 15.9007 27.2471 15.8921 27.2556C15.8921 27.2642 15.875 27.2814 15.875 27.2899C15.8664 27.3243 15.8664 27.35 15.875 27.3843C15.8921 27.4186 15.9178 27.4357 15.9522 27.4443C15.9779 27.4529 16.0208 27.4443 16.0465 27.4443L17.5645 26.6381C17.6331 26.7496 17.7189 26.8611 17.8046 26.9555C16.947 27.5987 16.0122 28.3105 15.6434 28.5935C15.5491 28.3706 15.4033 28.1562 15.2146 27.8903V27.8817Z" fill="#F3C921"/>
<path d="M17.7707 30.3003C17.6163 30.3089 17.4533 30.3432 17.2647 30.4032C16.6557 30.6005 16.4242 30.4632 16.2098 30.3003C15.9954 30.1459 15.7895 29.9658 15.7895 29.3226C15.7895 29.1253 15.7724 28.9624 15.7295 28.808C16.0725 28.5421 17.0588 27.7874 17.9508 27.1013C18.0365 27.1871 18.1309 27.2728 18.2252 27.3415L16.7758 29.2883C16.7329 29.3483 16.7415 29.4341 16.8015 29.477C16.8616 29.5198 16.9473 29.5027 16.9902 29.4512L18.3967 27.4701C18.4996 27.5387 18.6026 27.5987 18.7141 27.6588C18.3367 28.7222 17.9165 29.8972 17.7707 30.3003Z" fill="#F3C921"/>
<path d="M19.8201 29.7427C19.8201 30 19.7258 30.2487 19.5371 30.3859C19.3313 30.5317 19.0911 30.5746 18.8081 30.4888C18.4908 30.3859 18.2421 30.3173 18.002 30.3002C18.1563 29.8542 18.5337 28.7478 18.8853 27.7358C19.0054 27.7873 19.134 27.8302 19.2627 27.8645L18.9711 29.554C18.9711 29.554 18.9711 29.6226 18.9968 29.6484C19.014 29.6741 19.0483 29.6912 19.0826 29.6998C19.1169 29.6998 19.1512 29.6998 19.1769 29.6741C19.1855 29.6741 19.2026 29.6569 19.2026 29.6484C19.2112 29.6312 19.2198 29.6141 19.2284 29.5969L19.4771 27.9074C19.5971 27.9331 19.7258 27.9417 19.8544 27.9502L19.8287 29.7341L19.8201 29.7427Z" fill="#F3C921"/>
<path d="M20.0002 19.64C19.923 19.64 19.8715 19.7 19.8715 19.7686L19.8973 22.1957C19.7772 22.1957 19.6486 22.2129 19.5371 22.23C19.2197 21.1494 18.8681 19.9487 18.748 19.5371C18.8681 19.4341 18.9796 19.3141 19.0997 19.1597C19.477 18.6451 19.7429 18.6194 20.0173 18.6194C20.2918 18.6194 20.5577 18.6451 20.935 19.1597C21.0465 19.3141 21.1666 19.4427 21.2866 19.5371C21.1666 19.9487 20.8149 21.1494 20.4976 22.23C20.3775 22.2129 20.2575 22.1957 20.1374 22.1957L20.1631 19.7686C20.1631 19.7 20.1031 19.64 20.0259 19.64H20.0002Z" fill="#F3C921"/>
<path d="M21.1842 30.4976C20.9012 30.5834 20.6611 30.5405 20.4552 30.3947C20.2666 30.2575 20.1722 30.0087 20.1722 29.7515L20.1465 27.9676C20.2751 27.9676 20.3952 27.9504 20.5238 27.9247L20.7726 29.6142C20.7726 29.6142 20.7811 29.6485 20.7983 29.6657C20.7983 29.6743 20.8154 29.6828 20.824 29.6914C20.8497 29.7086 20.884 29.7172 20.9184 29.7172C20.9527 29.7172 20.9784 29.6914 21.0041 29.6657C21.0213 29.64 21.0298 29.6057 21.0298 29.5714L20.7383 27.8818C20.8669 27.8475 20.9955 27.8046 21.1156 27.7532C21.4672 28.7652 21.8446 29.8715 21.999 30.3175C21.7588 30.3346 21.5101 30.4118 21.1928 30.5062L21.1842 30.4976Z" fill="#F3C921"/>
<path d="M24.2116 29.3226C24.2116 29.9572 24.0058 30.1373 23.7914 30.3003C23.577 30.4547 23.3369 30.6005 22.7365 30.4032C22.5478 30.3432 22.3849 30.3089 22.2305 30.3003C22.0847 29.8972 21.673 28.7222 21.2871 27.6588C21.3986 27.6073 21.5015 27.5387 21.6044 27.4701L23.011 29.4512C23.0538 29.5113 23.1396 29.5198 23.1996 29.477C23.2597 29.4341 23.2682 29.3483 23.2254 29.2883L21.776 27.3415C21.8703 27.2643 21.9646 27.1871 22.0504 27.1013C22.9423 27.7874 23.9372 28.5507 24.2717 28.808C24.2288 28.9624 24.2116 29.1253 24.2116 29.3226Z" fill="#F3C921"/>
<path d="M24.7776 27.8817C24.5803 28.1476 24.4431 28.362 24.3487 28.585C23.9714 28.302 23.0366 27.5987 22.1875 26.9469C22.2733 26.844 22.3504 26.7411 22.4276 26.6296L23.9456 27.4358C23.9456 27.4358 24.0143 27.4529 24.04 27.4358C24.0743 27.4272 24.1 27.4015 24.1172 27.3757C24.1343 27.35 24.1343 27.3157 24.1172 27.2814C24.1172 27.2642 24.1086 27.2557 24.1 27.2471C24.0914 27.2299 24.0743 27.2214 24.0571 27.2128L22.5306 26.4495C22.5906 26.338 22.642 26.2265 22.6849 26.1064L24.3745 26.6811C24.6232 26.7582 24.829 26.9298 24.9062 27.1442C24.9834 27.3843 24.9491 27.633 24.7776 27.8732V27.8817Z" fill="#F3C921"/>
<path d="M25.5151 25.6261C25.5151 25.9177 25.3951 26.1406 25.1892 26.2864C25.0006 26.4237 24.7347 26.4322 24.486 26.355L22.7793 25.8233C22.8136 25.7032 22.8393 25.5832 22.8565 25.4545L24.5374 25.7376C24.5374 25.7376 24.5803 25.7376 24.5975 25.7376C24.6061 25.7376 24.6232 25.729 24.6318 25.7204C24.6575 25.7032 24.6747 25.6775 24.6832 25.6432C24.6832 25.6089 24.6832 25.5746 24.6575 25.5489C24.6404 25.5231 24.6061 25.506 24.5803 25.4974L22.8736 25.2573C22.8736 25.1972 22.8736 25.1458 22.8736 25.0858C22.8736 25.0086 22.8736 24.9314 22.8651 24.8542C23.9371 24.837 25.1035 24.8113 25.5752 24.8027C25.5237 25.0343 25.5066 25.2916 25.5066 25.6261H25.5151Z" fill="#F3C921"/>
<path d="M25.9004 24.1254C25.7889 24.2797 25.7032 24.4255 25.6517 24.5713C25.2229 24.5799 23.9793 24.6142 22.8473 24.6485C22.8301 24.5284 22.8044 24.4084 22.7701 24.2883L25.0857 23.5593C25.1543 23.5336 25.1972 23.465 25.1714 23.3964C25.1457 23.3278 25.0685 23.2849 24.9999 23.3106L22.7015 24.0825C22.6586 23.971 22.6071 23.8509 22.5557 23.748C23.4905 23.1133 24.5111 22.4015 24.8713 22.1614C24.9999 22.2471 25.1543 22.3158 25.343 22.3758C25.9519 22.573 26.0548 22.8218 26.1406 23.079C26.2263 23.3363 26.2864 23.6022 25.909 24.1168L25.9004 24.1254Z" fill="#F3C921"/>
<path d="M25.4462 22.0928C25.4462 22.0928 25.4462 22.0928 25.4377 22.0928C24.9574 21.9384 24.7601 21.7154 24.3913 21.218C24.2027 20.9607 23.954 20.7892 23.6709 20.7377C23.6538 20.6005 23.6281 20.4547 23.5938 20.2917C23.8253 20.4032 24.074 20.4118 24.2884 20.3861C24.4771 20.6777 25.1289 21.5782 26.098 21.9127C25.9522 21.9899 25.7378 22.0756 25.4548 22.0928H25.4462Z" fill="#F3C921"/>
<path d="M27.2133 21.7411C25.8411 21.9127 24.8463 20.712 24.5547 20.3175C24.6576 20.2832 24.7262 20.2317 24.7691 20.1888C25.0864 20.266 25.3523 20.1888 25.5581 20.0945C25.8411 20.4032 26.673 21.1837 27.908 21.3552C27.7537 21.5353 27.4878 21.6983 27.2133 21.7326V21.7411Z" fill="#F3C921"/>
<path d="M27.8817 21.055C26.8268 20.8749 26.0721 20.2402 25.7891 19.9658C25.8748 19.9058 25.9349 19.8457 25.9777 19.8028C26.3465 19.8457 26.621 19.76 26.8268 19.6399C27.1784 19.8715 28.2933 20.4632 29.597 20.4804C29.2196 21.0035 28.6707 21.1922 27.8817 21.055Z" fill="#F3C921"/>
<path d="M29.8293 20.1803C28.4742 20.2317 27.3679 19.6571 27.042 19.4684C27.2135 19.3055 27.2907 19.1425 27.3079 19.1168C27.5651 19.0739 27.771 18.9967 27.9425 18.8853C28.1483 18.971 29.8207 19.5799 31.6904 19.1854C31.4073 19.8115 30.7813 20.146 29.8293 20.1803Z" fill="#F3C921"/>
<path d="M32.4191 18.6707C30.6181 19.3568 28.7313 18.8765 28.1738 18.705C28.4311 18.4649 28.5255 18.2076 28.5512 18.1475C28.6884 18.0875 28.8085 18.0189 28.9114 17.9331C30.3265 18.0789 32.2647 17.9503 33.7742 17.127C33.697 17.8731 33.1653 18.3791 32.4105 18.6707H32.4191Z" fill="#F3C921"/>
<path d="M34.057 16.6296C32.6248 17.5902 30.6265 17.8217 29.1514 17.7102C29.3572 17.4615 29.4601 17.1528 29.5201 16.8697C31.1582 16.7325 33.5253 16.0293 34.9918 14.9058C35.0347 15.2745 34.9918 16.0121 34.0656 16.6296H34.057Z" fill="#F3C921"/>
<path d="M35.0687 14.4597C33.7994 15.5747 31.4752 16.3808 29.7686 16.5867C30.1373 16.2179 30.2059 15.7805 30.2145 15.6261C32.8132 14.82 34.7428 13.5163 35.6348 12.7188C35.7634 13.079 35.8492 13.7651 35.0687 14.4597Z" fill="#F3C921"/>
<path d="M35.7297 12.2471C34.7949 13.1562 31.8017 15.4289 27.5307 15.9435L27.2734 15.3946C30.4981 15.1631 33.9887 13.3878 36.0384 11.3037C36.1071 11.5181 36.0642 11.9126 35.7297 12.2385V12.2471Z" fill="#F3C921"/>
<path d="M4.05607 26.4065L4.39055 26.2864L4.15041 25.626L4.51062 25.4888L4.7336 26.1063L5.06808 25.9862L4.84509 25.3687L5.18814 25.2401L5.41971 25.8833L5.75418 25.7633L5.3854 24.7427L3.67871 25.3687L4.05607 26.4065Z" fill="white"/>
<path d="M4.931 23.0703L3.17285 23.5077L3.26719 23.9022L3.92757 23.7393L3.38726 24.3653L3.5159 24.8713L4.07337 24.1767C4.20201 24.3739 4.44215 24.4854 4.69086 24.4254C4.99961 24.3482 5.17971 24.0394 5.10253 23.7393L4.93958 23.0703H4.931ZM4.74232 23.7736C4.76805 23.8851 4.72517 23.9966 4.58795 24.0309C4.45072 24.0652 4.35639 23.988 4.33066 23.8765L4.27062 23.6449L4.69086 23.542L4.7509 23.7736H4.74232Z" fill="white"/>
<path d="M4.77707 21.7581C4.71704 21.2435 4.25392 20.8662 3.73076 20.9262C3.21618 20.9862 2.83882 21.4494 2.89886 21.9725C2.95889 22.4871 3.42201 22.8645 3.94517 22.8044C4.45975 22.7444 4.83711 22.2813 4.77707 21.7581ZM3.27622 21.9296C3.24191 21.6295 3.4649 21.3636 3.78222 21.3293C4.09097 21.295 4.37399 21.5094 4.40829 21.801C4.4426 22.1012 4.21961 22.367 3.90229 22.4013C3.59354 22.4356 3.31052 22.2212 3.27622 21.9296Z" fill="white"/>
<path d="M6.18372 30.2229L7.69315 29.2109L7.46159 28.885L6.54392 29.5025L6.99847 28.1903L6.79264 27.8816L5.2832 28.885L5.51476 29.2195L6.43243 28.602L5.97789 29.9142L6.18372 30.2229Z" fill="white"/>
<path d="M8.94525 33.1646L10.1717 31.8267L9.88007 31.5523L9.12536 32.3756L9.27115 30.9948L8.98813 30.7375L7.76172 32.0669L8.06189 32.3413L8.80803 31.5266L8.67081 32.9074L8.94525 33.1646Z" fill="white"/>
<path d="M4.79392 27.1785L5.08551 27.7702L4.81964 28.0532L5.0169 28.4478L6.3205 27.0069L6.1404 26.6467L4.20215 26.8183L4.3994 27.2128L4.77676 27.1699L4.79392 27.1785ZM5.75446 27.067L5.3428 27.5044L5.1627 27.1356L5.75446 27.067Z" fill="white"/>
<path d="M15.1882 34.5454C14.6908 34.3825 14.1591 34.6484 13.9961 35.1458C13.8332 35.6432 14.099 36.175 14.5965 36.3379C15.0939 36.5009 15.6256 36.235 15.7886 35.7376C15.9515 35.2401 15.6857 34.7084 15.1882 34.5454ZM14.7165 35.9777C14.4335 35.8834 14.2792 35.566 14.3821 35.2659C14.4764 34.9657 14.7937 34.8027 15.0768 34.8971C15.3598 34.9914 15.5141 35.3087 15.4112 35.6089C15.3083 35.9091 14.9996 36.072 14.7165 35.9777Z" fill="white"/>
<path d="M17.6931 37.0325L18.019 35.2486L17.6245 35.1714L17.4186 36.2692L16.8011 35.0256L16.4323 34.957L16.1064 36.7409L16.501 36.8095L16.6982 35.7203L17.3243 36.9639L17.6931 37.0325Z" fill="white"/>
<path d="M10.0601 33.5678L10.6004 33.9452L10.4975 34.3139L10.8577 34.5712L11.3208 32.6844L10.9949 32.4529L9.37402 33.5335L9.73423 33.7908L10.0516 33.5678H10.0601ZM10.8577 33.0103L10.7034 33.5935L10.3689 33.3534L10.8577 33.0103Z" fill="white"/>
<path d="M18.9109 36.7753L19.5713 36.8011L19.6828 37.1698L20.1287 37.187L19.5027 35.3431L19.0996 35.3259L18.3105 37.1012L18.7565 37.1184L18.9023 36.7668L18.9109 36.7753ZM19.2797 35.8834L19.4598 36.458L19.0481 36.4409L19.2797 35.8834Z" fill="white"/>
<path d="M3.62768 19.5369L2.83008 20.1372V20.7033L3.77347 19.9485L4.63968 20.6432L4.64826 20.1201L3.90212 19.5455H4.64826V19.1424L2.83865 19.1338V19.5369H3.62768Z" fill="white"/>
<path d="M25.9088 34.1337C25.4285 34.3396 25.2055 34.8884 25.4028 35.3687C25.6 35.849 26.1575 36.072 26.6378 35.8747C27.118 35.6689 27.341 35.12 27.1438 34.6397C26.9465 34.1594 26.389 33.9365 25.9088 34.1337ZM26.492 35.5231C26.2175 35.6346 25.8916 35.4974 25.7715 35.2143C25.6515 34.9227 25.7715 34.5968 26.0546 34.4853C26.329 34.3739 26.6549 34.5111 26.775 34.8027C26.895 35.0943 26.775 35.4202 26.492 35.5317V35.5231Z" fill="white"/>
<path d="M32.6585 31.6123L32.4012 31.3635L31.9123 31.8695L31.6293 31.5951L32.0924 31.132L31.8352 30.8833L31.3806 31.355L31.1147 31.0977L31.595 30.6088L31.3377 30.3601L30.583 31.1406L31.878 32.4013L32.6585 31.6123Z" fill="white"/>
<path d="M23.533 34.9572L24.0218 36.6982L24.4078 36.5867L24.2706 36.1065L24.485 36.0464C24.828 35.9435 25.0338 35.5833 24.9395 35.2403C24.8366 34.8886 24.4764 34.6914 24.1333 34.7857L23.5244 34.9572H23.533ZM24.3477 35.7205L24.1762 35.772L24.0133 35.1888L24.1848 35.1373C24.3477 35.0945 24.5107 35.1888 24.5536 35.3432C24.5965 35.5061 24.5021 35.6691 24.3477 35.712V35.7205Z" fill="white"/>
<path d="M30.0602 32.0498C30.1974 31.9383 30.3603 31.9126 30.5147 31.964L30.5833 31.5952C30.326 31.518 30.0516 31.5609 29.82 31.7582C29.4169 32.0927 29.3569 32.6844 29.6914 33.0875C30.0259 33.4906 30.6176 33.5421 31.0207 33.2162C31.2523 33.0275 31.3466 32.7616 31.3209 32.4957H30.9521C30.9693 32.6501 30.9178 32.8131 30.7806 32.9246C30.549 33.1132 30.206 33.0704 30.0001 32.8302C29.8029 32.5901 29.8286 32.2385 30.0602 32.0498Z" fill="white"/>
<path d="M21.7239 37.0841L21.6981 36.7324L21.0978 36.7753L20.9949 35.3259L20.5918 35.3517L20.7204 37.1613L21.7239 37.0841Z" fill="white"/>
<path d="M28.9279 34.6741L28.7563 34.3654L28.2332 34.6655L27.5042 33.3962L27.1611 33.5935L28.0531 35.1715L28.9279 34.6741Z" fill="white"/>
<path d="M13.5042 33.9143L12.7598 35.5637L13.1272 35.7295L13.8716 34.0801L13.5042 33.9143Z" fill="white"/>
<path d="M33.9532 29.3739L34.3134 28.8164L34.6907 28.9022L34.9309 28.5248L33.0269 28.1389L32.8125 28.4734L33.9532 30.0429L34.1933 29.6655L33.9617 29.3568L33.9532 29.3739ZM33.37 28.602L33.9532 28.7307L33.7302 29.0737L33.37 28.5935V28.602Z" fill="white"/>
<path d="M36.4497 24.9486L36.1152 24.8285L35.8922 25.4975L35.5235 25.3774L35.7293 24.7599L35.3948 24.6484L35.189 25.2659L34.8374 25.1458L35.0603 24.5026L34.7259 24.3911L34.3828 25.4203L36.0981 25.9949L36.4497 24.9486Z" fill="white"/>
<path d="M36.9723 22.7101L35.197 22.3413L35.1112 22.7358L36.2004 22.9588L34.9483 23.5506L34.8711 23.9194L36.6464 24.2881L36.7236 23.8936L35.643 23.6706L36.8951 23.0789L36.9723 22.7101Z" fill="white"/>
<path d="M35.66 21.0377C35.6685 20.8661 35.7715 20.7289 35.9173 20.6517L35.7028 20.3516C35.4713 20.4888 35.3169 20.7118 35.2912 21.0119C35.2569 21.5351 35.6428 21.9811 36.166 22.0239C36.6891 22.0668 37.1351 21.6723 37.178 21.1492C37.2037 20.849 37.0751 20.6003 36.8692 20.4287L36.6119 20.6946C36.7406 20.789 36.8178 20.9433 36.8092 21.1149C36.792 21.415 36.5176 21.638 36.2088 21.6123C35.9001 21.5866 35.66 21.3293 35.6857 21.0377H35.66Z" fill="white"/>
<path d="M28.7406 32.6294L28.4062 32.8545L29.4169 34.3556L29.7512 34.1305L28.7406 32.6294Z" fill="white"/>
<path d="M12.0063 33.1218L11.8348 33.4306L12.1864 33.6278L11.4746 34.8971L11.8262 35.0944L12.5381 33.8251L12.8897 34.0138L13.0612 33.705L12.0063 33.1218Z" fill="white"/>
<path d="M34.5798 26.9641L34.8971 27.1185L35.0944 26.6982C35.2316 26.844 35.283 27.0327 35.1887 27.2214C35.0601 27.4873 34.7256 27.5988 34.4426 27.4615C34.1595 27.3243 34.0395 26.9984 34.1681 26.7325C34.2453 26.5696 34.3825 26.4838 34.5455 26.4581L34.4511 26.0979C34.1853 26.1408 33.9537 26.2952 33.8251 26.5696C33.6021 27.0413 33.7993 27.5988 34.271 27.8303C34.7427 28.0533 35.3002 27.856 35.5318 27.3843C35.7633 26.9041 35.5575 26.4324 35.0601 26.1922C35.0258 26.1751 35 26.1665 34.9657 26.1494L34.5798 26.9555V26.9641Z" fill="white"/>
<path d="M35.3257 18.9794L36.029 19.3396L35.3601 19.7599L35.3772 20.2058L36.4149 19.5283L37.1611 19.5026L37.1439 19.0995L36.4064 19.1252L35.3086 18.5334L35.3257 18.9794Z" fill="white"/>
<path d="M30.5488 7.81316L30.8576 7.67594C30.8576 7.67594 30.5745 7.26428 30.7546 6.79258L31.1749 7.13563L31.3893 6.86977L30.9433 6.50098L31.0891 6.32088L30.7461 6.03786L30.6003 6.20939L30.1457 5.83203L29.9313 6.0979L30.3516 6.44095C29.9227 6.70682 29.4682 6.50956 29.4682 6.50956L29.391 6.85261C29.7598 6.99841 30.0514 7.00699 30.3001 6.92122C30.2658 7.16994 30.3258 7.44438 30.5145 7.76171C30.5059 7.75313 30.4888 7.74455 30.4802 7.7274C30.06 7.37577 29.5282 7.41865 29.2452 7.77028C28.9536 8.12191 29.0136 8.64507 29.4339 8.9967C29.8541 9.34833 30.3859 9.30544 30.6689 8.95381C30.9433 8.62791 30.909 8.14764 30.5574 7.80459L30.5488 7.81316ZM29.6654 8.72225C29.4339 8.525 29.4167 8.25913 29.5797 8.07045C29.7426 7.88177 30.0085 7.83889 30.2401 8.03615C30.4716 8.2334 30.4888 8.49927 30.3258 8.68795C30.1629 8.87663 29.897 8.91951 29.6654 8.72225Z" fill="white"/>
<path d="M31.7497 7.05835L31.4324 7.44429L31.1322 7.20415L30.9092 7.47859L31.2008 7.71873L30.832 8.15612L31.1665 8.43056L32.0756 7.33279L31.7497 7.05835Z" fill="white"/>
<path d="M20.9942 2.52148H20.5654L20.574 3.87654H21.0028V3.30193H21.3545V2.94172H20.9942V2.52148Z" fill="white"/>
<path d="M21.0032 4.84564V3.99658H19.0049V4.35679H20.5744V4.51116H19.0049V5.16296C19.0049 5.28303 19.0992 5.37737 19.2193 5.37737H21.0289V5.01717H19.4337V4.85421H21.0032V4.84564Z" fill="white"/>
<path d="M19.4765 3.35343C19.6137 3.57642 19.8453 3.75652 20.2226 3.88517L20.3856 3.56784C20.3856 3.56784 19.8967 3.43062 19.7423 2.95035H20.2826V2.60729H19.6995V2.37573H19.2535V2.60729H18.6703V2.95035H19.2106C19.0562 3.43062 18.5674 3.56784 18.5674 3.56784L18.7303 3.88517C19.1077 3.75652 19.3393 3.57642 19.4765 3.35343Z" fill="white"/>
<path d="M9.40891 6.38936L9.08301 6.6638L9.30599 6.92967L9.63189 6.64665L9.77769 6.82675L9.45179 7.10119L9.67477 7.35848L10.0007 7.08404L10.1808 7.29845L10.5067 7.02401L9.58043 5.93481L9.25453 6.21783L9.40891 6.38936Z" fill="white"/>
<path d="M9.71689 7.58992C9.29665 7.95013 9.24519 8.47329 9.54536 8.81634C9.83696 9.15939 10.3687 9.1937 10.7804 8.84207C11.2006 8.48186 11.2435 7.95871 10.9519 7.61565C10.6603 7.2726 10.1286 7.23829 9.71689 7.58992ZM10.5402 8.55047C10.3087 8.74773 10.0428 8.71342 9.87984 8.52474C9.71689 8.33606 9.72546 8.0702 9.95703 7.86437C10.1886 7.66711 10.4545 7.70142 10.6174 7.8901C10.7804 8.07877 10.7718 8.35322 10.5402 8.55047Z" fill="white"/>
<path d="M8.96249 6.7238C8.90246 6.65519 8.80812 6.64662 8.73951 6.70665L7.80469 7.50425L8.03625 7.77869L8.71378 7.20408C8.79954 7.36703 8.93676 7.79584 8.45649 8.41334L8.74808 8.60202C9.45992 7.72723 9.22836 7.04113 8.96249 6.73238V6.7238Z" fill="white"/>
<path d="M64.9488 7.42384H62.123V9.83007H64.9488V11.2703H62.123V13.6765H64.9488V15.4768H67.8971V5.9397H64.9488V7.42384Z" fill="#00479D"/>
<path d="M61.3961 14.9675C57.7217 14.9675 55.1934 17.4089 55.1934 20.4123C55.1934 23.4157 57.7217 25.8571 61.3961 25.8571C65.0705 25.8571 67.5989 23.4157 67.5989 20.4123C67.5989 17.4089 65.0705 14.9675 61.3961 14.9675ZM61.3961 23.3015C59.3752 23.3015 58.1766 22.0106 58.1766 20.4211C58.1766 18.8316 59.3664 17.5406 61.3961 17.5406C63.4258 17.5406 64.6069 18.8316 64.6069 20.4211C64.6069 22.0106 63.417 23.3015 61.3961 23.3015Z" fill="#00479D"/>
<path d="M106.154 5.9397V9.69834H103.346V12.1046H106.154V15.4768H109.111V5.9397H106.154Z" fill="#00479D"/>
<path d="M103.6 15.0377L104.413 13.413C104.413 13.413 100.888 12.4295 99.9427 8.95185H103.696V6.54561H99.7852V5H96.8282V6.54561H92.9175V8.95185H96.6619C95.7258 12.4207 92.1914 13.413 92.1914 13.413L93.2587 15.5383C95.8133 14.7479 97.3706 13.536 98.2979 12.0167C99.0328 13.2286 100.17 14.2385 101.894 15.0026C98.6129 15.3011 96.4082 17.6108 96.4082 20.421C96.4082 23.4332 98.9366 25.8657 102.611 25.8657C106.285 25.8657 108.814 23.4244 108.814 20.421C108.814 17.6898 106.732 15.4329 103.6 15.0377ZM102.611 23.3014C100.59 23.3014 99.3915 22.0105 99.3915 20.421C99.3915 18.8315 100.581 17.5405 102.611 17.5405C104.641 17.5405 105.822 18.8315 105.822 20.421C105.822 22.0105 104.632 23.3014 102.611 23.3014Z" fill="#00479D"/>
<path d="M61.3265 7.20424C61.3265 6.63342 60.8453 6.17676 60.2592 6.17676H52.0442V8.56543H57.8883C57.6871 9.70707 56.6548 12.5875 51.4756 13.6589L52.1492 15.9686C59.6905 14.5898 61.3353 9.65438 61.3353 7.20424H61.3265Z" fill="#00479D"/>
<path d="M87.6514 5.9397H84.6943V15.1255H87.6514V11.1561H90.031V8.69721H87.6514V5.9397Z" fill="#00479D"/>
<path d="M87.6512 21.633V15.8457H74.0996V18.2519H84.6942V19.2882H74.0996V23.6967C74.0996 24.4783 74.7558 25.1106 75.5781 25.1106H87.8262V22.7043H77.0566V21.6417H87.6599L87.6512 21.633Z" fill="#00479D"/>
<path d="M77.4239 11.5513C78.3513 13.0705 79.9085 14.2824 82.4631 15.0728L83.5304 12.9388C83.5304 12.9388 80.3197 12.0431 79.2086 8.95185H82.813V6.54561H78.9024V5H75.9454V6.54561H72.0348V8.95185H75.6392C74.5281 12.0431 71.3174 12.9388 71.3174 12.9388L72.3847 15.0728C74.9393 14.2824 76.4966 13.0705 77.4239 11.5513Z" fill="#00479D"/>
<path d="M64.6429 34.9211V34.2009H63.2082V33.4106H64.5379V32.6905H63.2082V31.944H64.5904V31.2239H62.3945V34.9211H64.6429Z" fill="#00479D"/>
<path d="M59.1309 31.2239V34.9211H59.9532V33.5423L60.9156 34.9211H61.9742L60.8806 33.4808C61.3443 33.3315 61.6767 32.8924 61.6767 32.3831C61.6767 31.742 61.1605 31.2239 60.5219 31.2239H59.1309ZM60.4431 31.944C60.6881 31.944 60.8806 32.0845 60.8806 32.3831C60.8806 32.6817 60.6881 32.8222 60.4431 32.8222H59.9532V31.944H60.4431Z" fill="#00479D"/>
<path d="M56.7773 31.1448C55.7187 31.1448 54.8613 32.0054 54.8613 33.068C54.8613 34.1306 55.7187 34.9912 56.7773 34.9912C57.8359 34.9912 58.6932 34.1306 58.6932 33.068C58.6932 32.0054 57.8359 31.1448 56.7773 31.1448ZM56.7773 34.2272C56.1736 34.2272 55.6749 33.7091 55.6749 33.068C55.6749 32.4269 56.1649 31.9088 56.7773 31.9088C57.3897 31.9088 57.8796 32.4269 57.8796 33.068C57.8796 33.7091 57.3897 34.2272 56.7773 34.2272Z" fill="#00479D"/>
<path d="M72.1138 34.9211V31.2239H71.2914V33.4896L69.6029 31.2239H68.8418V34.9211H69.6554V32.6641L71.3439 34.9211H72.1138Z" fill="#00479D"/>
<path d="M66.0161 34.1834H67.3546L67.6258 34.9211H68.5269L67.0921 31.2239H66.2785L64.8438 34.9211H65.7449L66.0161 34.1834ZM66.6897 32.3304L67.1096 33.4808H66.2698L66.6897 32.3304Z" fill="#00479D"/>
<path d="M121.351 31.2239L119.916 34.9211H120.817L121.08 34.1834H122.418L122.689 34.9211H123.59L122.156 31.2239H121.342H121.351ZM122.173 33.4808H121.342L121.762 32.3304L122.182 33.4808H122.173Z" fill="#00479D"/>
<path d="M52.7882 33.3052L54.0218 34.9211H55.1591L53.6106 32.9978L55.0191 31.2239H53.9518L52.7882 32.7431V31.2239H51.9746V34.9211H52.7882V33.3052Z" fill="#00479D"/>
<path d="M105.893 31.1448C104.834 31.1448 103.977 32.0054 103.977 33.068C103.977 34.1306 104.834 34.9912 105.893 34.9912C106.951 34.9912 107.817 34.1306 107.817 33.068C107.817 32.0054 106.96 31.1448 105.893 31.1448ZM105.893 34.2272C105.289 34.2272 104.79 33.7091 104.79 33.068C104.79 32.4269 105.28 31.9088 105.893 31.9088C106.505 31.9088 106.995 32.4269 106.995 33.068C106.995 33.7091 106.505 34.2272 105.893 34.2272Z" fill="#00479D"/>
<path d="M110.293 34.9211V34.2009H109.068V31.2239H108.246V34.9211H110.293Z" fill="#00479D"/>
<path d="M111.728 31.2239H110.905V34.9211H111.728V31.2239Z" fill="#00479D"/>
<path d="M118.175 34.9211V34.2009H116.74V33.4106H118.07V32.6905H116.74V31.944H118.123V31.2239H115.927V34.9211H118.175Z" fill="#00479D"/>
<path d="M129.837 34.9211V34.2009H128.402V33.4106H129.732V32.6905H128.402V31.944H129.785V31.2239H127.589V34.9211H129.837Z" fill="#00479D"/>
<path d="M101.089 31.2239V34.9211H101.911V33.8936H102.375C103.11 33.8936 103.705 33.2964 103.705 32.5587C103.705 31.821 103.11 31.2239 102.375 31.2239H101.098H101.089ZM102.261 33.1735H101.902V31.944H102.261C102.602 31.944 102.874 32.2162 102.874 32.5587C102.874 32.9012 102.602 33.1735 102.261 33.1735Z" fill="#00479D"/>
<path d="M114.081 31.9176C114.44 31.9176 114.728 32.102 114.912 32.3742L115.49 31.8912C115.183 31.4434 114.693 31.1536 114.081 31.1536C113.022 31.1536 112.165 32.0142 112.165 33.0768C112.165 34.1394 113.022 35 114.081 35C114.693 35 115.183 34.7102 115.49 34.2624L114.912 33.7793C114.728 34.0604 114.44 34.236 114.081 34.236C113.477 34.236 112.979 33.7179 112.979 33.0768C112.979 32.4357 113.469 31.9176 114.081 31.9176Z" fill="#00479D"/>
<path d="M136.084 31.9176C136.443 31.9176 136.731 32.102 136.915 32.3742L137.492 31.8912C137.186 31.4434 136.696 31.1536 136.084 31.1536C135.025 31.1536 134.168 32.0142 134.168 33.0768C134.168 34.1394 135.025 35 136.084 35C136.696 35 137.186 34.7102 137.492 34.2624L136.915 33.7793C136.74 34.0604 136.443 34.236 136.084 34.236C135.472 34.236 134.982 33.7179 134.982 33.0768C134.982 32.4357 135.472 31.9176 136.084 31.9176Z" fill="#00479D"/>
<path d="M94.8518 31.2239L93.417 34.9211H94.3181L94.5893 34.1834H95.9278L96.1903 34.9211H97.0914L95.6566 31.2239H94.843H94.8518ZM95.6741 33.4808H94.8343L95.2542 32.3304L95.6741 33.4808Z" fill="#00479D"/>
<path d="M87.4765 35C88.5351 35 89.3924 34.1394 89.3924 33.0768C89.3924 32.0142 88.5351 31.1536 87.4765 31.1536C86.4179 31.1536 85.5605 32.0142 85.5605 33.0768C85.5605 34.1394 86.4179 35 87.4765 35ZM87.4765 31.9176C88.0801 31.9176 88.5701 32.4357 88.5701 33.0768C88.5701 33.7179 88.0801 34.236 87.4765 34.236C86.8728 34.236 86.3742 33.7179 86.3742 33.0768C86.3742 32.4357 86.8641 31.9176 87.4765 31.9176Z" fill="#00479D"/>
<path d="M99.4534 34.9211V34.2009H98.2199V31.2239H97.4062V34.9211H99.4534Z" fill="#00479D"/>
<path d="M85.1319 31.2239H84.3096V34.9211H85.1319V31.2239Z" fill="#00479D"/>
<path d="M81.335 31.2239V31.944H82.1573V34.9211H82.971V31.944H83.7933V31.2239H81.335Z" fill="#00479D"/>
<path d="M89.8301 31.2239V34.9211H90.6524V32.6641L92.3409 34.9211H93.1021V31.2239H92.2884V33.4896L90.6 31.2239H89.8301Z" fill="#00479D"/>
<path d="M80.2064 31.2239H79.3928L77.958 34.9211H78.8591L79.1303 34.1834H80.4689L80.7313 34.9211H81.6324L80.1976 31.2239H80.2064ZM79.384 33.4808L79.804 32.3304L80.2239 33.4808H79.3928H79.384Z" fill="#00479D"/>
<path d="M77.6519 34.9211V31.2239H76.8382V33.4896L75.1498 31.2239H74.3799V34.9211H75.2023V32.6641L76.8907 34.9211H77.6519Z" fill="#00479D"/>
<path d="M133.73 34.9211V31.2239H132.908V33.4896L131.219 31.2239H130.449V34.9211H131.272V32.6641L132.96 34.9211H133.73Z" fill="#00479D"/>
<path d="M125.349 32.866V33.5861H126.294C126.154 33.9638 125.848 34.2272 125.41 34.2272C124.806 34.2272 124.308 33.7091 124.308 33.068C124.308 32.4269 124.806 31.9088 125.41 31.9088C125.769 31.9088 126.066 32.0932 126.241 32.3655L126.819 31.8825C126.512 31.4346 126.022 31.1448 125.41 31.1448C124.351 31.1448 123.494 32.0054 123.494 33.068C123.494 34.1306 124.351 34.9912 125.41 34.9912C126.469 34.9912 127.177 34.2009 127.177 33.068C127.177 32.9978 127.177 32.9275 127.169 32.866H125.358H125.349Z" fill="#00479D"/>
<path d="M139.916 31.2239L139.111 32.629L138.315 31.2239H137.414L138.709 33.4018V34.9211H139.522V33.4018L140.817 31.2239H139.916Z" fill="#00479D"/>
</svg>
